<svg width="25" height="24" viewBox="0 0 25 24" fill="none" xmlns="http://www.w3.org/2000/svg">
<path fill-rule="evenodd" clip-rule="evenodd" d="M1.81058 10.5356C1.80979 10.543 1.80939 10.5466 1.80859 10.5538C1.8261 10.5693 1.84122 10.5834 1.85196 10.5967L1.81058 10.5356Z" fill="#464646"/>
<path fill-rule="evenodd" clip-rule="evenodd" d="M1.80529 13.811C1.80489 13.8185 1.8045 13.8233 1.80371 13.8302C1.81442 13.8264 1.8263 13.8278 1.80529 13.811Z" fill="#464646"/>
<path fill-rule="evenodd" clip-rule="evenodd" d="M5.19238 3.9714C5.21197 3.95697 5.21995 3.9456 5.22394 3.93506C5.2156 3.94669 5.20653 3.95821 5.19238 3.9714Z" fill="#464646"/>
<path fill-rule="evenodd" clip-rule="evenodd" d="M21.873 7.04893C21.873 7.04893 21.8684 7.04352 21.8652 7.03955C21.8673 7.04942 21.8705 7.059 21.8719 7.06961L21.873 7.04893Z" fill="#464646"/>
<path fill-rule="evenodd" clip-rule="evenodd" d="M21.8108 7.01089C21.7849 6.94036 21.8465 7.01308 21.8672 7.03847C21.8482 6.95485 21.8069 6.88389 21.7522 6.82031C21.7255 6.83768 21.8116 6.96774 21.8108 7.01089Z" fill="#464646"/>
<path fill-rule="evenodd" clip-rule="evenodd" d="M22.3419 17.8219L22.345 17.793C22.3422 17.8042 22.3415 17.8134 22.3419 17.8219Z" fill="#464646"/>
<path fill-rule="evenodd" clip-rule="evenodd" d="M23.0056 16.1774L22.9697 16.1494C22.9824 16.1684 22.994 16.1754 23.0056 16.1774Z" fill="#464646"/>
<path fill-rule="evenodd" clip-rule="evenodd" d="M1.85547 10.6016L1.87177 10.6263C1.86843 10.6181 1.86258 10.6102 1.85547 10.6016Z" fill="#464646"/>
<path fill-rule="evenodd" clip-rule="evenodd" d="M2.82639 16.6562C2.81585 16.6634 2.80988 16.6733 2.80566 16.6835C2.80848 16.6898 2.82639 16.6562 2.82639 16.6562Z" fill="#464646"/>
<path fill-rule="evenodd" clip-rule="evenodd" d="M16.7662 22.5694C16.7642 22.5638 16.7607 22.5583 16.7555 22.5527L16.7002 22.5952C16.7316 22.5877 16.7531 22.5784 16.7662 22.5694Z" fill="#464646"/>
<ellipse cx="14.6865" cy="13.7495" rx="9.6875" ry="9.375" fill="#FDD9D9"/>
<path fill-rule="evenodd" clip-rule="evenodd" d="M5.52498 19.8813C5.53146 19.8787 5.5427 19.8801 5.54703 19.8753C5.49471 19.8215 5.34033 19.7052 5.14532 19.5532L5.09473 19.593C5.23742 19.6908 5.37623 19.7926 5.52498 19.8813Z" fill="#464646"/>
<path fill-rule="evenodd" clip-rule="evenodd" d="M9.46519 23.2236C9.30823 23.1471 9.15645 23.055 9.00424 22.9717C9.7977 23.1615 10.3784 23.2918 10.9358 23.3837C11.4927 23.4739 12.0276 23.5431 12.7186 23.5209L12.6412 23.5438C12.7406 23.5646 12.8223 23.5064 13.1518 23.4888C13.4826 23.4712 14.0555 23.502 15.1716 23.5909L15.1724 23.6033C15.249 23.5942 15.2459 23.5694 15.4016 23.5886C15.2723 23.5738 15.1439 23.563 15.0146 23.5442C15.2407 23.497 15.4332 23.4174 15.7337 23.3798C15.7994 23.386 15.8241 23.409 15.8323 23.4281C16.0783 23.393 16.3239 23.3569 16.5673 23.3127L16.8052 23.3603C17.0235 23.2796 16.8934 23.1315 17.5057 23.1199C17.2609 23.0462 17.7867 22.994 17.7024 22.9488C17.7348 22.9575 17.807 22.9659 17.8654 22.9753C18.2152 22.8937 18.8647 22.7089 19.0108 22.6094C19.0108 22.6094 18.6567 22.6329 18.255 22.6398C17.8533 22.6493 17.4049 22.6362 17.2116 22.6065C17.705 22.548 17.3374 22.5696 17.235 22.5477L17.2073 22.5821C16.9098 22.6027 16.8981 22.5289 16.7494 22.5328C16.7502 22.5387 16.7559 22.5452 16.7611 22.5518L16.7779 22.5389C16.7939 22.5496 16.787 22.56 16.7727 22.5699C16.7788 22.5847 16.7675 22.6005 16.6871 22.6079L16.701 22.598C16.5803 22.6262 16.3676 22.6448 16.2746 22.6527L16.2647 22.5911C16.1648 22.6659 15.7925 22.6674 15.4124 22.6423C15.0323 22.6206 14.6453 22.5632 14.5005 22.572C14.2056 22.5058 13.8476 22.6164 13.4822 22.5758C12.9028 22.5474 13.1938 22.4794 12.9062 22.4202C12.5473 22.3645 12.9763 22.4977 12.8314 22.4947L12.4038 22.3844C12.655 22.3906 12.5209 22.3457 12.4768 22.3191C12.1045 22.2901 11.5394 22.1112 11.4114 22.2177C10.9241 22.0917 10.9336 22.0355 10.7239 21.9976C10.7901 22.0323 10.9271 22.0736 10.9241 22.099C10.736 22.0139 10.8277 22.0976 10.9064 22.1223C10.7511 22.1276 10.3698 22.0003 10.0277 21.8733C9.68398 21.751 9.37827 21.6201 9.32811 21.6792L9.33504 21.6552C9.23904 21.7339 9.32119 21.8604 9.09937 21.8558L8.97657 21.7686L8.75864 21.7448C8.63152 21.6694 8.70762 21.6654 8.71151 21.6535C8.53768 21.6229 8.34311 21.5436 8.14118 21.4612C7.9427 21.3694 7.73775 21.2699 7.54879 21.1772C7.64565 21.3252 7.75072 21.4628 7.85622 21.6081C7.53841 21.4169 7.01045 21.0216 6.9097 21.0639L6.76096 20.8823C6.22133 20.3824 6.28445 20.7083 6.06479 20.5149L5.81573 20.2374L6.11539 20.4288C5.84082 20.1969 5.7405 20.0924 5.55067 19.8754C5.56019 19.8903 5.56753 19.9014 5.56624 19.9079L5.52473 19.8819C5.45943 19.9003 5.28821 19.8221 5.09492 19.6647C4.95742 19.5535 4.82727 19.4643 4.68631 19.3465C4.54102 19.2333 4.3927 19.0822 4.22666 18.8507C4.16872 18.8434 4.10948 18.837 4.05327 18.8268L3.80464 18.4784L3.86562 18.4224C4.13586 18.732 4.72262 19.2378 5.14508 19.5538L5.17578 19.5297C5.04995 19.437 4.91678 19.3367 4.79571 19.2424C4.6729 19.1498 4.56134 19.0639 4.49086 18.9883C4.42816 18.9065 4.30233 18.6704 4.47529 18.7564L4.28028 18.6842C3.91404 18.3207 3.7467 18.1222 3.58153 17.9156C3.50369 17.8085 3.42889 17.6975 3.33679 17.558C3.24339 17.4191 3.15647 17.2369 3.02719 17.0059L3.04319 17.105C2.97444 17.024 2.90569 16.9426 2.85726 16.8709C2.81229 16.7972 2.79153 16.7307 2.80624 16.6886C2.66009 16.4048 2.51091 16.1165 2.42789 15.8288C2.38076 15.6878 2.33967 15.5528 2.30551 15.4276C2.2813 15.2982 2.26487 15.1786 2.25579 15.0734L2.13429 15.0203C2.0971 14.8896 2.16498 14.661 2.02402 14.6349L1.91031 14.3678C1.87485 14.187 1.77885 14.0925 1.79788 13.873C1.79918 13.8585 1.80048 13.8447 1.80221 13.8304C1.76329 13.415 1.70967 13.8544 1.67983 13.3721C1.71875 13.2112 1.52893 13.2217 1.52676 12.9827L1.64134 12.7335C1.65043 12.6265 1.64827 12.543 1.63833 12.4679C1.63314 12.3924 1.62233 12.3252 1.60763 12.252C1.58039 12.1056 1.53325 11.9341 1.53368 11.6255C1.59724 11.329 1.72221 11.1969 1.8195 11.3927C1.70362 11.1233 1.74037 11.2694 1.69626 10.9128C1.7568 10.8633 1.75809 10.9015 1.80349 10.9826C1.89473 10.6792 1.77712 10.7879 1.80609 10.554C1.71572 10.4748 1.56827 10.3744 1.5713 10.2953L1.52979 10.3841C1.49736 10.1215 1.53973 9.84047 1.64221 9.55682L1.68891 9.57822C1.70188 9.47323 1.70837 9.36643 1.73172 9.26348L1.79918 9.25946L1.8982 8.82027L1.86534 8.8751C1.87615 8.82312 1.89604 8.71066 1.92976 8.59006C1.96954 8.47163 2.01797 8.34359 2.06726 8.25564L2.09796 8.27432C2.17104 8.15213 2.22595 8.03101 2.27135 7.90799C2.3267 7.78908 2.37211 7.6678 2.41535 7.54167C2.45945 7.41623 2.49621 7.28313 2.5481 7.14844C2.60474 7.01652 2.66743 6.87828 2.7431 6.73308L2.76558 6.84334C2.93379 6.68418 2.69727 6.73572 2.85509 6.51982L2.93811 6.55355C2.96189 6.29692 3.12318 6.31508 3.24555 6.20763L3.10718 6.20581L3.29269 5.96747C3.51321 5.71772 3.53223 5.89198 3.5491 5.96207L3.61266 5.73234L3.72119 5.76061C3.72638 5.5592 3.83534 5.64551 3.95944 5.38067C4.00528 5.38875 3.97371 5.45582 4.05154 5.39576L4.26126 4.95285L4.1164 5.20593L4.02776 5.08032C4.15057 4.7846 4.30709 4.7843 4.43595 4.61112C4.41087 4.65601 4.38319 4.69821 4.36071 4.74478C4.58858 4.47782 4.64869 4.51232 4.81343 4.40254C4.75073 4.42333 4.65387 4.4571 4.74424 4.34555C4.81472 4.26819 4.82079 4.34619 4.90294 4.29163C4.84889 4.1962 5.0145 3.99811 5.22334 3.89083C5.22983 3.90376 5.23459 3.91751 5.22854 3.9339C5.264 3.88482 5.27178 3.84548 5.36561 3.80068L5.38766 3.9259L5.47457 3.71973C5.59521 3.66456 5.7085 3.49528 5.73704 3.56476L5.68904 3.62487L6.10155 3.35635C6.23732 3.26451 6.38736 3.19424 6.52919 3.11195L6.58584 3.18179C6.59621 3.10447 6.71772 3.04645 6.82236 2.99352C6.92657 2.93986 7.02212 2.90449 6.9711 2.84209C7.17519 2.8341 7.60154 2.46137 7.57603 2.66671C7.87568 2.55027 8.08713 2.41605 8.32538 2.29243C8.44645 2.23635 8.57315 2.18057 8.71757 2.1279C8.86199 2.07476 9.0237 2.02257 9.22088 1.99779C9.37697 2.03714 9.63036 1.98084 9.91401 1.93453C10.1981 1.8941 10.5034 1.80914 10.7537 1.79733C11.7124 1.61153 12.3536 1.54217 13.3589 1.59415C13.432 1.62649 13.5094 1.65153 13.5911 1.67133C13.6716 1.69758 13.7563 1.71859 13.8437 1.73589C14.0188 1.77212 14.2073 1.78631 14.3967 1.81087C14.5852 1.84204 14.7763 1.87062 14.9588 1.90781C15.14 1.9498 15.3086 2.01267 15.4556 2.08643L15.652 2.06209C15.8349 2.19955 16.0939 2.28517 16.3706 2.39145C16.6426 2.50789 16.9422 2.62373 17.1788 2.82904C17.3271 2.86691 17.4023 2.89359 17.4343 2.90713C17.4118 2.89091 17.382 2.85788 17.3945 2.80642C17.5363 2.91223 17.8572 3.0659 17.7841 3.13842L17.7409 3.12462C17.6656 3.1983 18.2204 3.3538 18.3259 3.54734L18.3 3.39565L18.5624 3.59849L18.4773 3.56571C18.645 3.63892 18.7907 3.7244 18.9239 3.81175C19.0571 3.89866 19.1821 3.98168 19.2936 4.07123C19.5094 4.25907 19.7057 4.43021 19.8761 4.62323C20.0469 4.81552 20.225 4.99557 20.4049 5.20191C20.4974 5.30253 20.5969 5.40397 20.7071 5.50719C20.8105 5.6165 20.9242 5.72797 21.0526 5.84329C20.8429 5.778 21.2744 6.01093 21.1728 6.10969C21.2342 6.48436 21.5706 6.59817 21.7509 6.82068C21.7566 6.81722 21.7648 6.8161 21.7816 6.82445C21.8612 6.96822 21.9524 7.10503 22.0208 7.25447C21.7371 7.07753 22.3079 7.49903 22.0571 7.33044C22.3226 7.91543 22.608 8.5882 22.8488 9.30823C23.0866 10.0277 23.2695 10.801 23.3089 11.5417L23.3435 11.4727C23.3668 11.6594 23.3876 11.8697 23.4027 12.0694C23.42 12.2689 23.4248 12.4581 23.3867 12.6014C23.3526 12.7444 23.3798 12.8996 23.4165 13.0352C23.4498 13.1705 23.4853 13.2858 23.4866 13.3419C23.5463 13.6636 23.3733 13.9375 23.3928 13.8028C23.3729 14.1359 23.4965 14.4764 23.3413 14.929C23.1986 15.0597 23.1835 16.2126 23.014 16.1817L23.0252 16.1905C22.7515 16.7291 22.7143 17.3239 22.3451 17.8689C22.3451 17.8689 22.3403 17.8529 22.3407 17.8289C22.3118 18.0573 22.285 18.2924 22.2486 18.5277L22.1081 19.232C22.3234 19.2162 22.5418 19.1952 22.7636 19.169C22.9336 19.0293 23.1018 18.8844 23.2574 18.7286C23.414 18.5736 23.5865 18.4216 23.7339 18.2543C24.1901 17.1884 24.4975 16.0684 24.6575 14.9333C24.8638 14.0404 24.9797 13.1213 25 12.1929C24.8932 9.9439 24.1871 7.70217 22.9366 5.82292C22.822 5.70548 22.6893 5.6021 22.5669 5.49361C22.2819 4.88881 21.7812 4.3113 21.2364 3.77556C20.6937 3.23212 20.0737 2.76569 19.5448 2.28326L19.461 2.35037C19.1289 2.12963 19.1868 2.09214 19.115 2.02106C17.5506 1.00319 15.7319 0.330074 13.8934 0.0980918C12.975 -0.010743 12.0626 -0.0259634 11.177 0.0373398C10.2932 0.117939 9.43752 0.259203 8.62287 0.462344C8.45683 0.469911 8.14593 0.575676 7.84066 0.668858C7.53495 0.763034 7.25087 0.889684 7.11682 0.901272C6.15819 1.44787 5.1667 2.03312 4.3006 2.70827L4.32568 2.67342L3.93609 3.0125C3.91361 3.0199 3.90366 3.01233 3.91101 2.99594C3.72897 3.23134 3.44618 3.47577 3.16512 3.74931C2.88752 4.02652 2.58268 4.30451 2.3548 4.58548L2.37211 4.54536C1.71789 5.36916 1.19079 6.27889 0.824114 7.22926C0.455277 8.18002 0.217886 9.16312 0.0955168 10.1554C-0.0316086 11.148 -0.0294436 12.1526 0.0877366 13.152C0.20362 14.1517 0.429767 15.1491 0.782173 16.1313C1.05718 17.0668 1.62362 17.9957 2.3107 18.8382C3.01291 19.672 3.84356 20.4217 4.71009 21.1088C4.74425 21.1483 4.83245 21.222 4.96131 21.3211C5.09276 21.4161 5.26788 21.5315 5.47068 21.6634C5.88362 21.9123 6.4185 22.2075 6.97716 22.4444C8.08972 22.9355 9.27104 23.2036 9.46519 23.2236Z" fill="#464646"/>
<path fill-rule="evenodd" clip-rule="evenodd" d="M15.8331 23.4282L15.8184 23.4304C15.8231 23.4699 15.8443 23.4523 15.8331 23.4282Z" fill="#464646"/>
<path fill-rule="evenodd" clip-rule="evenodd" d="M7.52023 21.1589L7.54173 21.1699L7.48242 21.0806L7.52023 21.1589Z" fill="#464646"/>
<path fill-rule="evenodd" clip-rule="evenodd" d="M12.6934 22.317C12.455 22.2904 12.4438 22.3003 12.4761 22.3194C12.5624 22.3267 12.6382 22.3275 12.6934 22.317Z" fill="#464646"/>
<path fill-rule="evenodd" clip-rule="evenodd" d="M17.8738 23.0262C18.0053 23.0044 17.9499 22.9886 17.8677 22.9751C17.7353 23.0051 17.6436 23.0259 17.6436 23.0259C17.7184 23.022 17.7963 23.0304 17.8738 23.0262Z" fill="#464646"/>
<path fill-rule="evenodd" clip-rule="evenodd" d="M17.2317 22.5439L17.2628 22.5059C17.1947 22.5254 17.1995 22.5365 17.2317 22.5439Z" fill="#464646"/>
<path fill-rule="evenodd" clip-rule="evenodd" d="M8.67969 11.0581C8.67969 11.069 8.6818 11.0771 8.68356 11.0832L8.67969 11.0581Z" fill="#464646"/>
<path fill-rule="evenodd" clip-rule="evenodd" d="M9.92383 10.23C9.92992 10.2271 9.93161 10.2239 9.93127 10.2207C9.92958 10.2238 9.92755 10.2269 9.92383 10.23Z" fill="#464646"/>
<path fill-rule="evenodd" clip-rule="evenodd" d="M8.20564 8.02441C8.21148 8.03582 8.19652 8.03487 8.19141 8.03433C8.19506 8.05154 8.20491 8.05818 8.21841 8.05876C8.22571 8.04576 8.20491 8.03669 8.20564 8.02441Z" fill="#464646"/>
<path fill-rule="evenodd" clip-rule="evenodd" d="M6.75 7.30338L6.76628 7.28125C6.75793 7.28968 6.75334 7.29682 6.75 7.30338Z" fill="#464646"/>
<path fill-rule="evenodd" clip-rule="evenodd" d="M7.66918 11.5207C7.66522 11.5139 7.66126 11.5089 7.6573 11.5049C7.65612 11.5054 7.66918 11.5207 7.66918 11.5207Z" fill="#464646"/>
<path fill-rule="evenodd" clip-rule="evenodd" d="M5.11816 12.4433C5.12426 12.4515 5.12385 12.4307 5.12385 12.4307C5.12019 12.4346 5.11816 12.4388 5.11816 12.4433Z" fill="#464646"/>
<path fill-rule="evenodd" clip-rule="evenodd" d="M6.97266 11.7672C6.98938 11.7782 7.01684 11.765 7.04988 11.7451L7.03635 11.7163L6.97266 11.7672Z" fill="#464646"/>
<path fill-rule="evenodd" clip-rule="evenodd" d="M5.88587 11.4615L5.98791 11.484C5.78641 11.6341 5.65064 11.6304 5.49239 11.7839L5.49542 11.7649C5.46039 11.7662 5.52179 11.9108 5.12918 11.9129C5.1162 11.9137 5.12312 11.9258 5.09328 11.9213L5.16549 11.9293C5.14344 11.962 5.13263 12.0061 5.09372 12.0335C5.08118 12.0317 5.0708 12.021 5.06475 12.0118L4.96919 12.0789L4.916 12.0572C4.89697 12.0959 4.95752 12.1704 4.84898 12.1711C4.91255 12.2107 4.82736 12.2286 4.85417 12.252C4.84595 12.2472 4.83039 12.242 4.81742 12.2365C4.77159 12.2708 4.68813 12.339 4.68164 12.3814C4.68164 12.3814 4.94238 12.3936 5.02842 12.4257C4.95059 12.4491 5.01415 12.4429 5.0388 12.4545L5.03534 12.4377C5.08463 12.4282 5.10496 12.4644 5.13134 12.4628C5.11923 12.4545 5.1175 12.4494 5.11793 12.4445C5.11318 12.4371 5.11144 12.4299 5.12398 12.4257C5.13825 12.4157 5.17154 12.4045 5.18625 12.3998L5.20311 12.4298C5.20182 12.355 5.45952 12.4011 5.5019 12.3798C5.56503 12.3945 5.58967 12.318 5.65194 12.3079C5.74015 12.2711 5.7181 12.3287 5.77431 12.3314C5.83658 12.3212 5.74404 12.3021 5.7635 12.2884L5.84955 12.2955C5.81539 12.3194 5.84522 12.3266 5.85819 12.3345C5.91484 12.3095 6.03072 12.3173 6.01299 12.2477C6.10164 12.2359 6.11547 12.2599 6.14833 12.2454C6.13147 12.2403 6.10553 12.2419 6.09861 12.2298C6.14228 12.2402 6.10856 12.2155 6.09343 12.2162C6.12283 12.1652 6.38442 12.197 6.35675 12.1255L6.36324 12.1376C6.34595 12.0825 6.3027 12.044 6.31827 11.9994L6.35113 12.0098L6.37016 11.9712C6.39999 11.9755 6.39696 11.9943 6.40042 12.0004C6.43804 11.9492 6.52409 11.9367 6.58895 11.9088L6.44842 11.811C6.51761 11.8129 6.64646 11.8235 6.63219 11.7744L6.68883 11.8021C6.8406 11.83 6.73986 11.724 6.79564 11.7267L6.87563 11.7466L6.82331 11.7749C6.88903 11.7707 6.91887 11.7751 6.97811 11.7839C6.96773 11.7445 6.98503 11.7125 7.02265 11.6936C7.07799 11.6714 7.09831 11.6124 7.2103 11.6179L7.20252 11.556L7.28122 11.551L7.30414 11.591C7.24187 11.6229 7.13593 11.7026 7.05896 11.7486L7.06804 11.7676C7.11431 11.7415 7.15712 11.6941 7.18998 11.6808C7.20944 11.6804 7.27084 11.7005 7.2583 11.7432L7.26478 11.6879C7.41699 11.5963 7.41699 11.5938 7.60379 11.5482L7.57871 11.536C7.60378 11.5062 7.6293 11.4767 7.65654 11.5043C7.75729 11.4563 7.87188 11.425 7.96355 11.4403L7.95057 11.3854C7.97262 11.3764 8.04354 11.4304 8.0163 11.3588L8.04829 11.3134C8.07813 11.3012 8.08028 11.2646 8.12742 11.2737C8.20914 11.2574 8.10969 11.2303 8.19747 11.2167C8.23984 11.2371 8.18969 11.1423 8.23076 11.1331L8.30427 11.1808C8.39032 11.1836 8.36308 11.1096 8.45561 11.0572C8.51398 11.0562 8.56804 11.1018 8.56717 11.1696C8.57279 11.0847 8.56285 11.1188 8.60003 11.0588C8.62252 11.0796 8.61992 11.0882 8.62079 11.1179C8.68565 11.1208 8.63722 11.0782 8.6744 11.0594C8.65754 11.0055 8.62684 10.9222 8.63678 10.9126L8.6143 10.9054C8.63808 10.8583 8.67311 10.8228 8.73105 10.822L8.74272 10.8471L8.78294 10.8083L8.80369 10.8375L8.86552 10.79L8.85168 10.7868C8.86509 10.7738 8.91092 10.7339 8.94984 10.7334L8.95849 10.7511C9.07221 10.7575 9.10204 10.6484 9.19717 10.5875L9.20409 10.6298C9.25684 10.6458 9.18247 10.5707 9.23219 10.5656L9.25857 10.6076C9.26203 10.5313 9.3109 10.5941 9.34679 10.6019L9.30398 10.5518L9.3563 10.5381C9.41683 10.5285 9.4272 10.592 9.43628 10.6257L9.44536 10.562L9.47996 10.608C9.47261 10.5361 9.51023 10.6033 9.5366 10.5476C9.55087 10.5644 9.54568 10.5814 9.56514 10.5811L9.59757 10.4703L9.57163 10.5259L9.53617 10.4502C9.54266 10.3738 9.61876 10.4141 9.65984 10.3642L9.63562 10.4063C9.71519 10.3382 9.7407 10.3645 9.80815 10.348C9.78004 10.3459 9.74069 10.3416 9.76966 10.3127C9.79344 10.2941 9.80512 10.3264 9.83842 10.3184C9.80512 10.2733 9.8423 10.2185 9.92187 10.2039C9.92792 10.2094 9.93354 10.2151 9.93397 10.2206C9.94132 10.2062 9.93571 10.1929 9.97376 10.1868L10.0144 10.2348C10.0144 10.2123 10.0131 10.1905 10.0109 10.1692C10.0615 10.1602 10.0641 10.1073 10.103 10.1333L10.0966 10.1512L10.375 10.0116L10.4425 10.0302C10.3789 9.98805 10.6284 9.95536 10.4996 9.93041C10.6185 9.91658 10.6422 9.81245 10.765 9.85319C10.9479 9.75802 10.9004 9.69688 11.1179 9.60049C11.1058 9.59141 11.095 9.58173 11.0846 9.57139C11.1685 9.52539 10.8909 9.39947 10.7625 9.31727C10.449 9.17986 10.2159 9.07768 9.92533 8.95047C9.89247 8.86676 9.77356 8.81111 9.66114 8.76622C9.59498 8.73812 9.56687 8.73306 9.53747 8.72074C9.50763 8.70798 9.48213 8.69069 9.46526 8.66288L9.4164 8.68701C9.38613 8.58773 9.24343 8.60814 9.18592 8.49559C9.15393 8.50013 9.13923 8.49892 9.13317 8.4974C9.1362 8.5016 9.13837 8.51262 9.12626 8.5387C9.10983 8.50644 9.04454 8.49857 9.07654 8.45092C9.11805 8.40184 8.99351 8.42813 8.98833 8.36851L8.97449 8.4309L8.92995 8.39402L8.94897 8.39125C8.66705 8.38857 8.66489 8.16446 8.40199 8.15892C8.46166 8.11577 8.34491 8.16709 8.37778 8.10198C8.37215 7.99318 8.27357 8.06609 8.21995 8.06388C8.21822 8.06704 8.21563 8.07041 8.21044 8.07396L8.14169 8.02522C8.23076 7.96927 8.05132 8.06237 8.13001 8.01645C7.97348 7.84902 7.69027 7.77046 7.48488 7.61855L7.48315 7.64467C7.42953 7.60926 7.34565 7.59521 7.32186 7.53826C7.29765 7.48136 7.19949 7.53856 7.1809 7.53259C7.11431 7.54206 7.11215 7.44737 7.12988 7.46224C7.07453 7.44413 6.98633 7.49134 6.9353 7.42095C6.95 7.33944 6.70916 7.38195 6.75023 7.3039C6.68797 7.20605 6.55262 7.25123 6.48517 7.14862C6.48517 7.14862 6.48993 7.144 6.49598 7.14062L6.17082 7.2649L6.08175 7.55266L6.13234 7.85572L6.61316 8.06661L6.93097 8.35259L7.8308 8.82257L7.92635 8.80012C8.0431 8.99916 8.33151 9.00806 8.47809 9.18569L8.51009 9.138C8.56457 9.16472 8.54338 9.19361 8.5516 9.20965C8.67613 9.27589 8.80326 9.33928 8.93038 9.40185L9.12064 9.49542L9.16172 9.51514C9.17123 9.5176 9.19198 9.52361 9.19198 9.52361C9.2456 9.54048 9.31781 9.57996 9.28019 9.60015C9.20323 9.60352 9.22484 9.61243 9.15782 9.60642C9.26462 9.62657 9.21663 9.65286 9.19068 9.65926C9.18593 9.65895 9.18507 9.66354 9.1842 9.66834C9.17988 9.66527 9.17469 9.66038 9.17166 9.65705C9.1855 9.67832 9.17382 9.68516 9.16042 9.68252C9.11329 9.69649 9.04929 9.71547 9.00259 9.72935C8.45431 10.0187 8.00073 10.3966 7.42088 10.6315C7.12383 10.6916 6.89466 10.9686 6.56776 11.0632C6.48691 11.0434 5.92436 11.4091 5.88587 11.4615Z" fill="#464646"/>
<path fill-rule="evenodd" clip-rule="evenodd" d="M6.59413 11.9082C6.59015 11.9097 6.61878 11.9295 6.61878 11.9295L6.59413 11.9082Z" fill="#464646"/>
<path fill-rule="evenodd" clip-rule="evenodd" d="M5.83008 12.355C5.86104 12.3444 5.86033 12.3396 5.85224 12.335C5.84168 12.3397 5.83324 12.346 5.83008 12.355Z" fill="#464646"/>
<path fill-rule="evenodd" clip-rule="evenodd" d="M4.80467 12.2115C4.78837 12.2187 4.80032 12.226 4.81589 12.2327C4.83074 12.2217 4.84051 12.2146 4.84051 12.2146C4.82929 12.2152 4.81553 12.2108 4.80467 12.2115Z" fill="#464646"/>
<path fill-rule="evenodd" clip-rule="evenodd" d="M5.03906 12.4551L5.04262 12.4736C5.05014 12.4643 5.04657 12.4588 5.03906 12.4551Z" fill="#464646"/>
<path fill-rule="evenodd" clip-rule="evenodd" d="M16.1055 8.01781C16.1055 8.00691 16.103 7.99884 16.1016 7.99268L16.1055 8.01781Z" fill="#464646"/>
<path fill-rule="evenodd" clip-rule="evenodd" d="M14.8629 8.84863C14.8565 8.85158 14.8552 8.85473 14.8555 8.85794C14.8569 8.85483 14.8589 8.85175 14.8629 8.84863Z" fill="#464646"/>
<path fill-rule="evenodd" clip-rule="evenodd" d="M16.5788 11.0524C16.5726 11.041 16.5879 11.0419 16.593 11.0425C16.589 11.0253 16.5791 11.0186 16.566 11.0181C16.5587 11.0311 16.5795 11.0401 16.5788 11.0524Z" fill="#464646"/>
<path fill-rule="evenodd" clip-rule="evenodd" d="M18.0358 11.7783L18.0195 11.8004C18.0275 11.792 18.0325 11.7848 18.0358 11.7783Z" fill="#464646"/>
<path fill-rule="evenodd" clip-rule="evenodd" d="M17.1152 7.56152C17.1196 7.56836 17.1236 7.57332 17.1272 7.57742C17.1288 7.5769 17.1152 7.56152 17.1152 7.56152Z" fill="#464646"/>
<path fill-rule="evenodd" clip-rule="evenodd" d="M19.6707 6.63665C19.6643 6.62853 19.6651 6.64929 19.6651 6.64929C19.6687 6.64533 19.6703 6.64113 19.6707 6.63665Z" fill="#464646"/>
<path fill-rule="evenodd" clip-rule="evenodd" d="M17.8057 7.30962C17.789 7.29869 17.7616 7.31185 17.7285 7.33168L17.7421 7.3605L17.8057 7.30962Z" fill="#464646"/>
<path fill-rule="evenodd" clip-rule="evenodd" d="M18.9015 7.62144L18.7999 7.59896C19.0014 7.44887 19.1367 7.4525 19.2954 7.29904L19.2924 7.31798C19.3274 7.31677 19.266 7.17218 19.6582 7.17002C19.6716 7.16919 19.6647 7.15713 19.6945 7.16158L19.6219 7.15358C19.6444 7.12094 19.6552 7.07679 19.6941 7.04946C19.7067 7.05123 19.7166 7.06196 19.7231 7.07117L19.8186 7.00406L19.8714 7.02572C19.8904 6.98707 19.8299 6.91248 19.9384 6.91187C19.8753 6.87213 19.9605 6.8544 19.9337 6.83101C19.9419 6.83572 19.9574 6.84096 19.9704 6.84649C20.0158 6.81211 20.0997 6.74388 20.1057 6.70159C20.1057 6.70159 19.8454 6.68936 19.7594 6.65731C19.8372 6.63383 19.7737 6.63997 19.749 6.62843L19.7525 6.64525C19.7032 6.65468 19.6829 6.61853 19.6565 6.62017C19.6686 6.62843 19.6699 6.63353 19.6699 6.63838C19.6747 6.64581 19.6759 6.65299 19.6638 6.65718C19.6491 6.66722 19.6163 6.67842 19.6016 6.68317L19.5843 6.65308C19.586 6.72793 19.3283 6.68179 19.2859 6.70315C19.2228 6.6884 19.1981 6.7649 19.1354 6.77501C19.0477 6.81177 19.0693 6.75422 19.0135 6.75149C18.9508 6.7617 19.0438 6.78081 19.0239 6.79452L18.9383 6.78747C18.9724 6.76351 18.9426 6.75634 18.9292 6.74838C18.873 6.77346 18.7571 6.76563 18.7744 6.83516C18.6858 6.84705 18.6723 6.82301 18.6395 6.8375C18.6559 6.84264 18.6823 6.841 18.6892 6.85306C18.6455 6.84282 18.6793 6.86746 18.6944 6.86668C18.665 6.91779 18.403 6.88597 18.4311 6.9574L18.4242 6.94529C18.4419 7.00038 18.4851 7.03891 18.4696 7.08353L18.4367 7.07311L18.4177 7.11173C18.3878 7.10745 18.3904 7.08859 18.387 7.08254C18.3493 7.13374 18.2637 7.14628 18.1989 7.17412L18.339 7.27198C18.2702 7.27003 18.1414 7.25943 18.1556 7.30851L18.099 7.28084C17.9468 7.25291 18.048 7.35893 17.9918 7.35625L17.9122 7.33632L17.9645 7.30804C17.8988 7.31228 17.869 7.30787 17.8097 7.299C17.8201 7.33839 17.8024 7.37039 17.7652 7.38929C17.7094 7.41155 17.6895 7.47058 17.5775 7.46504L17.5853 7.52692L17.5062 7.53189L17.4837 7.4919C17.5459 7.46007 17.6519 7.38042 17.7288 7.33437L17.7198 7.3153C17.6735 7.34146 17.6307 7.38885 17.5978 7.40208C17.5784 7.40256 17.517 7.38241 17.5295 7.33982L17.5226 7.39508C17.3704 7.48666 17.3708 7.48913 17.1836 7.5347L17.2091 7.5469C17.1836 7.57669 17.1581 7.60618 17.1308 7.57868C17.0301 7.62663 16.9155 7.65794 16.8243 7.64267L16.8368 7.69759C16.8152 7.7065 16.7443 7.65249 16.7715 7.72414L16.7395 7.76958C16.7093 7.78174 16.7075 7.81832 16.6604 7.80919C16.5787 7.82549 16.6781 7.85261 16.5903 7.86627C16.548 7.84582 16.5981 7.9406 16.5566 7.94981L16.4831 7.90212C16.3975 7.89935 16.4247 7.97338 16.3318 8.02578C16.2738 8.02678 16.2198 7.98116 16.2206 7.91331C16.215 7.99815 16.225 7.96412 16.1878 8.02414C16.1649 8.00334 16.1679 7.99469 16.1666 7.96507C16.1022 7.96209 16.1502 8.00472 16.1134 8.02349C16.1298 8.07741 16.161 8.16069 16.151 8.17038L16.1735 8.17751C16.1497 8.22469 16.1147 8.26014 16.0568 8.26097L16.0447 8.23589L16.0044 8.27467L15.9841 8.24544L15.9223 8.29301L15.9361 8.29612C15.9227 8.30914 15.8765 8.349 15.838 8.34957L15.8293 8.33184C15.7152 8.32548 15.6858 8.43453 15.5906 8.49546L15.5837 8.45317C15.5305 8.43717 15.6049 8.51228 15.5552 8.5173L15.5292 8.47535C15.5258 8.55171 15.4769 8.48889 15.4406 8.4811L15.4838 8.53113L15.4315 8.54488C15.371 8.5544 15.3606 8.49096 15.3515 8.45728L15.3424 8.52097L15.3074 8.47492C15.3152 8.54687 15.2772 8.47968 15.2512 8.53537C15.2369 8.51855 15.2421 8.50151 15.2227 8.50186L15.1898 8.61268L15.2157 8.55708L15.2516 8.63283C15.2451 8.70915 15.169 8.66885 15.128 8.71875L15.1522 8.67664C15.0726 8.74474 15.0467 8.71845 14.9797 8.73492C15.0078 8.73709 15.0471 8.74132 15.0177 8.77025C14.9944 8.78884 14.9827 8.7565 14.9494 8.76459C14.9827 8.80964 14.9455 8.86447 14.8659 8.87909C14.8599 8.87351 14.8543 8.86784 14.8538 8.86231C14.8465 8.87675 14.8521 8.89007 14.814 8.89612L14.773 8.84817C14.7734 8.87066 14.7743 8.89249 14.7764 8.91377C14.7263 8.9228 14.7237 8.97564 14.6848 8.94965L14.6912 8.93175L14.4128 9.07138L14.3449 9.05278C14.4089 9.09494 14.1594 9.12759 14.2883 9.15254C14.1693 9.16638 14.1456 9.2705 14.0223 9.22976C13.8399 9.32494 13.8874 9.38608 13.6699 9.48246C13.6816 9.49154 13.6928 9.50123 13.7032 9.51152C13.6193 9.55757 13.8965 9.68349 14.0254 9.76569C14.3388 9.9031 14.5719 10.0052 14.862 10.1325C14.8953 10.2162 15.0142 10.2719 15.1262 10.3167C15.1924 10.3448 15.2209 10.3499 15.2499 10.3623C15.2797 10.375 15.3057 10.3923 15.3221 10.4201L15.3714 10.396C15.4012 10.4952 15.5444 10.4748 15.6014 10.5874C15.6339 10.5828 15.6486 10.5841 15.6546 10.5856C15.6516 10.5814 15.6494 10.5703 15.6616 10.5443C15.6776 10.5765 15.7428 10.5844 15.7113 10.6321C15.6698 10.6811 15.7943 10.6549 15.7991 10.7145L15.8133 10.6521L15.8579 10.689L15.8388 10.6918C16.1208 10.6944 16.1225 10.9185 16.3858 10.924C16.3262 10.9672 16.4429 10.9159 16.4096 10.981C16.4157 11.0898 16.5138 11.0169 16.5679 11.0191C16.5696 11.0159 16.5722 11.0126 16.5774 11.009L16.6461 11.0577C16.557 11.1137 16.7361 11.0206 16.6578 11.0665C16.8143 11.234 17.0976 11.3125 17.3025 11.4644L17.3047 11.4383C17.3583 11.4737 17.4422 11.4878 17.466 11.5447C17.4897 11.6016 17.5883 11.5444 17.6065 11.5504C17.6731 11.5409 17.6757 11.6356 17.6579 11.6207C17.7133 11.6389 17.8011 11.5916 17.8525 11.662C17.8378 11.7435 18.0787 11.701 18.0376 11.7791C18.0999 11.8769 18.2352 11.8318 18.3026 11.9344C18.3026 11.9344 18.2979 11.939 18.2914 11.9424L18.6166 11.8181L18.7061 11.5303L18.6551 11.2273L18.1742 11.0164L17.8568 10.7304L16.957 10.2604L16.861 10.2828C16.7443 10.0838 16.4559 10.0749 16.3093 9.89727L16.2777 9.94496C16.2232 9.91828 16.244 9.88935 16.2358 9.87335C16.1117 9.80702 15.9845 9.74372 15.8574 9.68111L15.6672 9.58754L15.6261 9.56782C15.6162 9.56535 15.5958 9.5593 15.5958 9.5593C15.5422 9.54248 15.47 9.503 15.5076 9.48281C15.5846 9.47944 15.5625 9.47053 15.6296 9.47658C15.5228 9.45639 15.5712 9.4301 15.5971 9.4237C15.6019 9.424 15.6027 9.41942 15.6036 9.41462C15.6075 9.41773 15.6127 9.42257 15.6157 9.42586C15.6019 9.40463 15.614 9.3978 15.627 9.40044C15.6741 9.38647 15.7385 9.36749 15.7852 9.35365C16.3331 9.06429 16.7867 8.68628 17.3669 8.45148C17.664 8.39129 17.8932 8.11438 18.2196 8.01973C18.3005 8.03958 18.8635 7.67381 18.9015 7.62144Z" fill="#464646"/>
<path fill-rule="evenodd" clip-rule="evenodd" d="M18.1924 7.17282C18.1965 7.1713 18.167 7.15088 18.167 7.15088L18.1924 7.17282Z" fill="#464646"/>
<path fill-rule="evenodd" clip-rule="evenodd" d="M18.9509 6.72461C18.9196 6.73515 18.9207 6.74 18.9284 6.7446C18.9393 6.73986 18.9474 6.73357 18.9509 6.72461Z" fill="#464646"/>
<path fill-rule="evenodd" clip-rule="evenodd" d="M19.9754 6.86729C19.9914 6.86008 19.9798 6.85286 19.9642 6.84619C19.9493 6.85714 19.9395 6.86421 19.9395 6.86421C19.9504 6.86359 19.9642 6.86802 19.9754 6.86729Z" fill="#464646"/>
<path fill-rule="evenodd" clip-rule="evenodd" d="M19.7471 6.62793L19.7435 6.60938C19.7359 6.61873 19.7395 6.62421 19.7471 6.62793Z" fill="#464646"/>
<path fill-rule="evenodd" clip-rule="evenodd" d="M14.0539 16.9222C14.0527 16.9012 14.0516 16.8836 14.0508 16.8701L14.0539 16.9222Z" fill="#464646"/>
<path fill-rule="evenodd" clip-rule="evenodd" d="M13.1399 15.7883C13.1355 15.7802 13.13 15.7778 13.124 15.7773C13.1296 15.7799 13.1351 15.7829 13.1399 15.7883Z" fill="#464646"/>
<path fill-rule="evenodd" clip-rule="evenodd" d="M9.37829 16.2129C9.38663 16.2353 9.36243 16.2162 9.35449 16.2095C9.35965 16.2374 9.37473 16.2581 9.39616 16.2747C9.40885 16.2654 9.37591 16.2286 9.37829 16.2129Z" fill="#464646"/>
<path fill-rule="evenodd" clip-rule="evenodd" d="M12.183 16.5512C12.1783 16.5476 12.1747 16.5448 12.1699 16.541C12.1739 16.5482 12.1783 16.5505 12.183 16.5512Z" fill="#464646"/>
<path fill-rule="evenodd" clip-rule="evenodd" d="M14.0524 16.8694L14.0508 16.8501C14.0512 16.8546 14.0516 16.8614 14.0524 16.8694Z" fill="#464646"/>
<path fill-rule="evenodd" clip-rule="evenodd" d="M14.9893 15.8398C14.9976 15.8451 15.0051 15.8477 15.0122 15.8493C15.0143 15.8472 14.9893 15.8398 14.9893 15.8398Z" fill="#464646"/>
<path fill-rule="evenodd" clip-rule="evenodd" d="M19.1585 17.0713C19.1577 17.0681 19.1387 17.0615 19.1387 17.0615C19.1446 17.0644 19.1506 17.0674 19.1585 17.0713Z" fill="#464646"/>
<path fill-rule="evenodd" clip-rule="evenodd" d="M16.0894 14.6081C16.089 14.6031 16.0907 14.596 16.0894 14.5918C16.0635 14.6084 16.0021 14.6807 15.9248 14.7898L15.9417 14.8266C15.9905 14.7518 16.0397 14.6758 16.0894 14.6081Z" fill="#464646"/>
<path fill-rule="evenodd" clip-rule="evenodd" d="M17.0706 15.9911L16.9785 15.8561C17.3979 16.1483 17.5691 16.3132 17.9566 16.5187L17.9315 16.5126C17.9557 16.5322 17.9877 16.5313 18.0802 16.5796C18.1745 16.6262 18.3215 16.7335 18.6121 16.9213C18.6324 16.9339 18.635 16.9299 18.6743 16.957L18.5758 16.8896C18.6436 16.9169 18.7046 16.938 18.7907 16.9802C18.8075 16.9913 18.8114 16.998 18.8114 17.0017L19.0242 17.1017L19.0843 17.1406C19.153 17.1645 19.1323 17.1366 19.3018 17.2237C19.2412 17.1851 19.3913 17.2572 19.3718 17.2435C19.3826 17.2495 19.3995 17.2588 19.4146 17.2673C19.5024 17.304 19.652 17.3666 19.7649 17.4138C19.7649 17.4138 19.6628 17.3712 19.5513 17.3149C19.4397 17.2583 19.3204 17.1853 19.2719 17.151C19.4094 17.23 19.3087 17.1705 19.2836 17.1517C19.1924 17.0988 19.1971 17.0913 19.1578 17.0645C19.1599 17.0738 19.1556 17.0729 19.1335 17.0592C19.1033 17.0417 19.0453 17.0058 19.0207 16.9888C18.9528 16.9628 18.6462 16.6969 18.5758 16.6343C18.5105 16.5626 18.4019 16.5132 18.3146 16.4327C18.1693 16.3132 18.2549 16.3554 18.1914 16.2832C18.1079 16.1987 18.1965 16.3157 18.1598 16.2865L18.0673 16.1757C18.1313 16.2263 18.104 16.1887 18.0975 16.173C18.005 16.0935 17.8887 15.9336 17.8333 15.9434C17.7257 15.8168 17.7382 15.8016 17.6885 15.7522C17.6997 15.7748 17.7291 15.8123 17.7235 15.8198C17.6885 15.7596 17.6971 15.8025 17.714 15.8241C17.6223 15.7762 17.4005 15.3974 17.3499 15.4237C17.3114 15.432 17.3097 15.4893 17.2431 15.459L17.2228 15.4122L17.1601 15.377C17.1367 15.3329 17.1614 15.3403 17.1653 15.3363C17.1177 15.3034 17.0701 15.2545 17.0234 15.2004C16.9733 15.1407 16.943 15.0994 16.8673 15.0128C16.892 15.1065 16.8924 15.1675 16.8959 15.2338C16.8487 15.1528 16.6741 14.8548 16.6395 14.8861L16.588 14.7548C16.5093 14.611 16.4566 14.539 16.4315 14.5245C16.4047 14.507 16.3991 14.5332 16.3852 14.5337C16.3779 14.5451 16.3679 14.5476 16.3489 14.5356C16.3316 14.5244 16.313 14.4982 16.2957 14.506L16.2412 14.5313L16.2897 14.4701C16.3057 14.4494 16.3225 14.4586 16.3394 14.4514C16.313 14.4443 16.2905 14.4399 16.2702 14.464C16.2503 14.4788 16.2322 14.4926 16.2131 14.5066C16.1772 14.5306 16.14 14.5553 16.0903 14.5882C16.0968 14.5863 16.102 14.5845 16.1042 14.5873L16.0899 14.6073C16.0886 14.6546 16.0462 14.7391 15.9744 14.8362C15.9213 14.9018 15.8815 14.9702 15.8313 15.0422C15.8188 15.0595 15.8058 15.077 15.792 15.0959C15.7816 15.1089 15.7699 15.1221 15.7569 15.1356C15.7306 15.1625 15.6986 15.1903 15.6571 15.2189L15.6795 15.2921L15.5645 15.3848L15.5234 15.3561C15.5662 15.3013 15.6233 15.219 15.683 15.1327C15.7669 15.0136 15.8547 14.889 15.9251 14.7891L15.9152 14.7664C15.8145 14.9021 15.7072 15.0837 15.6765 15.1144C15.648 15.1361 15.5529 15.176 15.5645 15.107L15.5637 15.1863C15.3535 15.4705 15.3548 15.4741 15.0824 15.7336L15.1235 15.7233C15.0919 15.7905 15.0608 15.8576 15.0124 15.8488C14.871 16.0199 14.7045 16.1836 14.5588 16.257L14.5938 16.32C14.5626 16.3554 14.4377 16.3533 14.5004 16.4251L14.4645 16.522C14.4217 16.57 14.4303 16.6238 14.3547 16.6597C14.3499 16.6618 14.3452 16.6639 14.3395 16.6662C14.2332 16.7674 14.3957 16.7029 14.2643 16.8131C14.1925 16.8273 14.3002 16.9114 14.2409 16.9658C14.209 16.9557 14.1795 16.9426 14.1523 16.9267C14.1013 16.9154 14.167 16.995 14.135 17.059C14.1056 17.0521 14.0784 16.9376 14.0559 16.8504C14.0823 16.9606 14.0749 16.9204 14.0758 16.987C14.0663 16.9371 14.0667 16.9239 14.0598 16.8785C14.0485 16.8161 14.0645 16.9257 14.0585 16.9267C14.0658 17.0342 14.0688 17.2179 14.0628 17.2335L14.071 17.2599C14.0555 17.3343 14.023 17.4484 14.0066 17.3175L14.0131 17.2582C14.0053 17.2571 13.9971 17.2553 13.9884 17.2527L13.9979 17.1789L13.9672 17.1549L13.9668 17.1787C13.9586 17.1775 13.9266 17.1551 13.9257 17.1074L13.9396 17.0787C13.9452 17.009 13.9335 17.0026 13.9067 16.9942C13.8933 16.9905 13.8773 16.987 13.8604 16.9799C13.8496 16.9731 13.8479 16.9792 13.8306 16.9591C13.8137 16.9391 13.7964 16.9179 13.7804 16.895L13.8431 16.8892C13.8479 16.7946 13.7601 16.9186 13.7337 16.8269L13.7887 16.7855C13.6697 16.7674 13.7484 16.6879 13.7476 16.6226L13.6862 16.6937L13.6455 16.5959C13.6083 16.4833 13.7026 16.4744 13.751 16.4626L13.6494 16.436L13.7078 16.3796C13.5993 16.3825 13.6896 16.3234 13.5936 16.2668C13.6144 16.2434 13.6425 16.2551 13.6347 16.2195L13.451 16.143L13.5469 16.199L13.4427 16.2528C13.3122 16.2146 13.377 16.1283 13.3091 16.0843L13.3662 16.1079C13.2767 16.0224 13.3147 15.9898 13.2992 15.9186C13.2923 15.9482 13.2832 15.9929 13.2434 15.9604C13.2188 15.9339 13.2672 15.9216 13.2594 15.8862C13.1902 15.9221 13.1081 15.8722 13.096 15.7866C13.1055 15.7813 13.1154 15.7768 13.1241 15.7772C13.1029 15.7674 13.0804 15.7698 13.0765 15.7304L13.1604 15.7001L13.0549 15.6892C13.0523 15.6641 13.0289 15.6465 13.0129 15.6317C12.9991 15.6207 12.9766 15.5887 13.006 15.5798C13.0177 15.5871 13.0341 15.6018 13.0423 15.6034L12.7288 15.0902L12.7652 15.0196C12.6782 15.0603 12.5939 14.6939 12.5477 14.8393C12.5109 14.6664 12.2869 14.5255 12.3669 14.4042C12.2532 14.2209 12.1572 14.129 12.0638 14.028C12.0396 14.0005 12.0158 13.9735 11.9929 13.9471L11.9561 13.9011L11.9376 13.8759C11.9311 13.862 11.925 13.8902 11.9185 13.8953C11.8679 13.9791 11.813 14.0576 11.7451 14.1337C11.6911 14.1152 11.5942 14.2316 11.4896 14.3825C11.3841 14.5325 11.2743 14.7172 11.1843 14.8582C11.0369 15.148 10.9128 15.3922 10.7891 15.6351C10.7346 15.7669 10.6788 15.8989 10.6053 16.0574C10.3749 16.1597 10.3852 16.5333 10.2032 16.6845L10.2205 16.7676C10.2015 16.7778 10.1846 16.7907 10.1695 16.8058C10.1509 16.8268 10.1448 16.8292 10.1418 16.8297C10.1331 16.835 10.1297 16.8441 10.1249 16.8546C10.1176 16.8755 10.1012 16.9013 10.0717 16.8716C10.0791 16.9113 10.0787 16.9288 10.0787 16.9341C10.0804 16.9352 10.086 16.9451 10.1016 16.9879C10.0839 16.9733 10.0778 17.0516 10.0592 16.9466L10.0588 16.9327C10.0484 16.8815 10.0488 16.901 10.0467 16.9266C10.0458 16.9383 10.0449 16.9556 10.0419 16.9573C10.0384 16.9546 10.035 16.9439 10.032 16.9192L10.0445 17.042L10.0246 17.004L10.0289 16.9872C9.99046 17.07 9.93641 16.9838 9.92819 16.9145L9.91781 16.866L9.91175 16.8442C9.90916 16.8371 9.91046 16.8342 9.89057 16.8113C9.83089 16.7391 9.75826 16.6673 9.66097 16.5952C9.75437 16.6036 9.57535 16.5447 9.63113 16.497C9.63199 16.3531 9.47893 16.3408 9.4011 16.2792C9.39807 16.2812 9.39417 16.2826 9.38639 16.2815L9.28867 16.1462C9.42098 16.1737 9.15549 16.0939 9.27224 16.1227C9.16198 15.9339 9.00155 15.7403 8.83335 15.5418C8.74428 15.4404 8.67466 15.3498 8.5605 15.2268C8.50429 15.1689 8.4416 15.1102 8.35987 15.0569C8.2682 15.0064 8.16961 14.9548 8.06411 14.951L8.09784 14.9699C8.03557 14.9613 7.96812 14.9703 7.90326 14.986C7.75278 15.0348 7.63777 15.1544 7.56426 15.2393C7.47692 15.3339 7.47605 15.4487 7.45356 15.4866C7.41465 15.5896 7.3299 15.6479 7.35584 15.6102C7.30266 15.712 7.27671 15.8246 7.18072 15.9499C7.12883 15.9792 6.97662 16.333 6.94981 16.3197C6.8335 16.487 6.75524 16.665 6.6346 16.8463C6.57493 16.9708 6.50185 17.1 6.41797 17.2214C6.44175 17.1868 6.46899 17.1547 6.50012 17.125C6.58574 17.029 6.67913 16.9387 6.77858 16.8526C7.019 16.5981 7.24861 16.3361 7.47389 16.0712L7.76879 15.7717C7.85786 15.6831 8.00963 15.5306 7.97936 15.5781C7.99276 15.5749 7.9785 15.5456 8.04985 15.6466L8.27469 16.0155L8.77282 16.8116L8.90211 16.8962C8.93237 16.9969 8.97691 17.0955 9.03183 17.1918C9.05907 17.24 9.0889 17.2879 9.1196 17.3356L9.18619 17.4334L9.28219 17.5697C9.40888 17.7497 9.536 17.9306 9.6601 18.1069C9.78463 18.2512 9.90397 18.401 10.0242 18.5727L10.0341 18.4868C10.1613 18.6281 10.1569 18.6821 10.1915 18.7381C10.1963 18.7415 10.2015 18.7535 10.2058 18.7499L10.2192 18.731L10.2456 18.6932L10.2979 18.6175L10.403 18.4658L10.6118 18.162L11.0295 17.5005C11.1869 17.247 11.3443 16.994 11.4991 16.745C11.573 16.6274 11.6465 16.5108 11.7192 16.3954L11.7745 16.3094C11.7927 16.281 11.8161 16.2458 11.8126 16.2479L11.8303 16.2078C11.8519 16.152 11.8887 16.123 11.9133 16.1367C11.925 16.194 11.9423 16.1947 11.9328 16.2768C11.9492 16.2167 11.9739 16.2145 11.9916 16.2266C12.0011 16.2332 12.0093 16.2441 12.0158 16.256C12.0201 16.2651 12.0526 16.316 12.0526 16.316L12.1174 16.4215L12.1032 16.4159L12.2009 16.5368C12.1992 16.5458 12.1914 16.5517 12.1836 16.551C12.3384 16.6579 12.4309 16.9257 12.5252 17.1192L12.5109 17.1136C12.5957 17.2442 12.6817 17.3721 12.7695 17.498C12.9096 17.7011 13.0492 17.903 13.1885 18.1045C13.348 18.3319 13.5072 18.5585 13.6659 18.7846L13.8985 19.112L13.9275 19.1526C13.937 19.1619 13.9465 19.1936 13.9569 19.1672L14.0178 19.0841L14.1389 18.9187C14.2993 18.6946 14.4602 18.493 14.6163 18.2597C14.7732 18.0261 14.9298 17.7927 15.0872 17.5582C15.2541 17.3055 15.4279 17.0572 15.6134 16.81C15.814 16.5997 15.9684 16.3287 16.1279 16.0483C16.2071 15.9076 16.2884 15.7653 16.374 15.6247L16.4064 15.5722C16.4151 15.5583 16.4336 15.5274 16.431 15.535C16.4475 15.5358 16.457 15.5462 16.4592 15.5435C16.4631 15.5531 16.4613 15.5527 16.4635 15.5677C16.4674 15.5571 16.4553 15.5503 16.4756 15.5657C16.5305 15.6083 16.585 15.6504 16.6369 15.6909C16.8479 15.8491 17.0299 15.9697 17.0706 15.9911Z" fill="#464646"/>
<path fill-rule="evenodd" clip-rule="evenodd" d="M16.8626 14.9987L16.8698 15.008L16.8574 14.9502L16.8626 14.9987Z" fill="#464646"/>
<path fill-rule="evenodd" clip-rule="evenodd" d="M18.1492 16.212C18.0968 16.1619 18.0924 16.1621 18.0972 16.1726C18.1166 16.1902 18.1345 16.2043 18.1492 16.212Z" fill="#464646"/>
<path fill-rule="evenodd" clip-rule="evenodd" d="M19.4062 17.267C19.4416 17.2825 19.4289 17.2754 19.409 17.2647C19.3723 17.2487 19.3477 17.2378 19.3477 17.2378C19.3636 17.2457 19.3903 17.2589 19.4062 17.267Z" fill="#464646"/>
<path fill-rule="evenodd" clip-rule="evenodd" d="M19.2811 17.1511L19.293 17.1544C19.2732 17.1438 19.2736 17.1451 19.2811 17.1511Z" fill="#464646"/>
</svg>
