<svg width="25" height="25" viewBox="0 0 25 25" fill="none" xmlns="http://www.w3.org/2000/svg">
<ellipse cx="11.3018" cy="13.125" rx="9.6875" ry="9.375" fill="#FDEFD9"/>
<path fill-rule="evenodd" clip-rule="evenodd" d="M1.62056 6.79932C1.60632 6.81801 1.60499 6.83047 1.62056 6.79932V6.79932Z" fill="#1E2126"/>
<path fill-rule="evenodd" clip-rule="evenodd" d="M19.9504 20.2982C20.0961 20.2277 20.2313 20.1435 20.3711 20.0612C19.8699 20.6216 19.4339 20.969 19.0019 21.2662C18.5718 21.5679 18.1534 21.8347 17.6038 22.1803L17.654 22.1215C17.5622 22.1491 17.5328 22.2513 17.261 22.406C16.9914 22.5552 16.4749 22.7981 15.4309 22.9171L15.4273 22.9044C15.3595 22.9261 15.3667 22.9515 15.2201 22.9573L15.5852 22.9361C15.3884 23.0247 15.2247 23.1455 14.9438 23.2138C14.8809 23.2134 14.8547 23.1921 14.8443 23.1731C14.6181 23.2391 14.3865 23.2789 14.1568 23.3291C14.0817 23.3151 14.0066 23.2975 13.9315 23.2771C13.7257 23.3427 13.8433 23.5259 13.2571 23.4734C13.4851 23.5815 12.9749 23.5675 13.05 23.6254C13.0197 23.6118 12.9514 23.5947 12.8971 23.5761C12.7247 23.5879 12.4764 23.6042 12.2485 23.6195C12.0219 23.6286 11.8161 23.6453 11.7328 23.6738C11.7328 23.6738 11.817 23.6937 11.9499 23.7254C12.0829 23.7534 12.2648 23.809 12.4615 23.8421C12.8537 23.9271 13.3051 23.9891 13.5018 24.0415C12.9912 24.0429 13.3679 24.066 13.4729 24.1003L13.5041 24.0673C13.8112 24.0641 13.8207 24.1383 13.9772 24.142C13.9763 24.1356 13.9709 24.1288 13.9654 24.1216L13.9473 24.1343C13.9311 24.1225 13.9383 24.1121 13.9537 24.1021C13.9478 24.0859 13.96 24.0714 14.0441 24.0655L14.0292 24.0759C14.1559 24.0533 14.3757 24.0212 14.472 24.0112L14.4856 24.075C14.5363 24.0334 14.6588 24.0112 14.818 23.9909C14.9763 23.9669 15.1727 23.9497 15.3744 23.9357C15.7733 23.8941 16.1922 23.8502 16.3396 23.795C16.6675 23.7751 16.995 23.5331 17.37 23.4137C17.9476 23.1659 17.6988 23.3744 18.0064 23.278C18.3773 23.1288 17.9001 23.2477 18.0394 23.1695C18.1927 23.1215 18.3492 23.0781 18.5021 23.0247C18.2633 23.1663 18.4135 23.127 18.4718 23.1261C18.6532 23.0256 18.901 22.9184 19.1068 22.8081C19.3086 22.6914 19.4714 22.5792 19.4872 22.4901C19.9785 22.2129 20.011 22.2481 20.2069 22.1057C20.13 22.14 19.9861 22.2169 19.9699 22.1975C20.1856 22.1075 20.0472 22.1219 19.9658 22.1667C20.0273 22.1061 20.1535 22.0175 20.3041 21.9103C20.4561 21.804 20.6424 21.6913 20.8075 21.5638C21.149 21.3218 21.4376 21.0649 21.4109 20.9898L21.4299 21.0079C21.4078 20.8772 21.2445 20.898 21.3657 20.6863C21.4145 20.6596 21.4607 20.6302 21.5068 20.6004L21.6276 20.3891C21.7578 20.2901 21.7284 20.3679 21.7384 20.3765C21.9569 20.0513 22.3264 19.651 22.6018 19.2638L22.0826 19.5076C22.2178 19.3656 22.4218 19.172 22.5725 18.987C22.7217 18.8015 22.8343 18.6374 22.8144 18.5808C22.885 18.5306 22.9474 18.475 23.0148 18.4216C23.288 18.1172 23.3341 17.9811 23.3332 17.8929C23.3346 17.8051 23.2952 17.7653 23.3884 17.6346C23.4789 17.5301 23.5675 17.4238 23.6494 17.313C23.6001 17.4369 23.5427 17.5572 23.4839 17.6771C23.7068 17.3388 23.7864 17.1977 23.9778 16.9263C23.9651 16.9417 23.9538 16.9525 23.947 16.9534C23.9538 16.9358 23.9592 16.9177 23.9647 16.8996C23.9316 16.834 23.9678 16.6246 24.0655 16.3595C24.2026 15.9796 24.2193 15.6625 24.474 15.0619L24.3975 14.8823L24.5504 14.4218L24.6354 14.4354C24.5558 14.904 24.3871 15.7846 24.194 16.3677L24.2279 16.3903C24.3378 16.042 24.4192 15.6354 24.478 15.4029C24.5219 15.2943 24.6811 15.0198 24.6861 15.2459C24.6766 15.1659 24.668 15.0867 24.6531 15.0067C24.7698 14.4069 24.7956 14.1003 24.8485 13.79C24.8833 13.477 24.9435 13.1608 25 12.5181L24.9539 12.6289C24.9376 12.3742 24.8942 12.1228 24.9656 12.0495C24.9525 11.2779 24.8919 10.4782 24.8883 9.96027L24.7671 9.87298C24.7377 9.71332 24.8236 9.43695 24.6666 9.39444C24.6237 9.28498 24.5825 9.17597 24.5319 9.06968C24.4717 8.85438 24.3817 8.74086 24.3546 8.48259C24.3527 8.4654 24.3514 8.44912 24.3496 8.43193C24.2103 7.94841 24.26 8.47264 24.113 7.91268C24.1076 7.71457 23.9136 7.77337 23.8258 7.50922C23.8353 7.40293 23.8407 7.29754 23.8421 7.19306C23.6942 6.69642 23.5282 6.68014 23.1577 6.04781C23.0162 5.7217 23.027 5.50459 23.2468 5.64752C22.9605 5.44217 23.0962 5.56656 22.7973 5.24723C22.8045 5.16084 22.8398 5.19159 22.9357 5.24225C22.7647 4.88945 22.7642 5.07173 22.5892 4.84015C22.4544 4.83563 22.2649 4.86095 22.2034 4.79265L22.245 4.8994C22.022 4.69179 21.7877 4.46564 21.5977 4.16757L21.6448 4.14269C21.5561 4.05539 21.4607 3.97443 21.3693 3.8903L21.401 3.82743C21.273 3.70305 21.1445 3.58002 21.0075 3.46604L21.0482 3.52891C20.9491 3.45111 20.6397 3.18289 20.4764 3.01192L20.5067 2.98885C20.0712 2.46598 19.5302 2.26245 18.864 1.87346L18.9906 1.8608C18.7997 1.66133 18.8703 1.9205 18.6152 1.7328L18.6473 1.64414C18.3443 1.61564 18.3438 1.44829 18.1905 1.31938L18.2158 1.46864C18.1122 1.40668 18.0086 1.34426 17.9028 1.28546C17.5581 1.08011 17.7418 1.04348 17.8241 1.0082L17.5333 0.984676L17.5251 0.865266C17.2908 0.90326 17.3465 0.766665 16.99 0.703794C16.9765 0.655849 17.0696 0.664443 16.9611 0.607452C16.7598 0.588003 16.559 0.573979 16.3586 0.565838C16.4776 0.577146 16.5952 0.594784 16.7141 0.60971L16.6232 0.745403C16.2442 0.744951 16.1605 0.58257 15.8982 0.557241L16.0827 0.558147C15.6652 0.483063 15.6584 0.421096 15.4323 0.331087C15.4988 0.376318 15.5987 0.444168 15.4282 0.425623C15.3038 0.407983 15.373 0.357776 15.2599 0.317068C15.2106 0.412505 14.9067 0.410695 14.6448 0.32159C14.6502 0.307569 14.6584 0.294 14.6774 0.287667C14.6059 0.293095 14.5661 0.316614 14.4494 0.275454L14.5358 0.169616L14.2893 0.249222C14.1378 0.200373 13.9039 0.264149 13.9311 0.187256L14.0215 0.172779C13.6294 0.128001 13.235 0.0981535 12.8401 0.0931781L12.8229 0C12.7076 0.124837 12.1725 -0.0303044 12.2191 0.130265C11.9888 0.0483972 11.3511 0.267316 11.4619 0.0750847C10.679 0.161928 10.3013 0.403458 9.36861 0.569907C9.00269 0.521962 8.12566 0.858484 7.57294 1.11675C6.5186 1.68259 5.88899 2.13489 4.96673 2.91015C4.61393 3.04856 4.27786 3.36246 3.96486 3.70124C3.65186 4.04182 3.36736 4.41091 3.06477 4.66646L2.9942 4.88674C2.54687 5.19612 2.21985 5.94061 1.73814 6.50012C1.68024 6.67471 1.64361 6.76155 1.62551 6.79909C1.64542 6.77241 1.68477 6.73622 1.7395 6.74934C1.59521 6.90674 1.4568 7.30885 1.37177 7.23241L1.38579 7.17994C1.34463 7.14149 1.28402 7.28985 1.2103 7.46761C1.14335 7.64853 1.06963 7.86111 0.979166 7.94977L1.13657 7.8783C1.07958 7.99681 1.0149 8.11215 0.964689 8.23337L0.98233 8.12662C0.781504 8.96927 0.596512 9.54867 0.419659 10.1303C0.264516 10.7129 0.11932 11.3005 0.171788 12.1051C0.0614245 11.8853 0.216115 12.4222 0.0822316 12.4353C-0.117689 12.8329 0.103942 13.1866 0.150078 13.5109C0.156863 13.5109 0.165003 13.5145 0.176763 13.5331L0.191693 14.107C0.0953506 13.9415 0.136965 14.0428 0.182196 14.1464C0.229236 14.25 0.285771 14.3558 0.194856 14.2056C0.192143 14.9583 0.33598 15.8235 0.593344 16.6847C0.8489 17.5482 1.2216 18.4022 1.61104 19.1819L1.61511 19.0933C1.7101 19.2927 1.84624 19.4999 1.97063 19.6976C2.09004 19.8988 2.2108 20.0829 2.27458 20.2412C2.39715 20.5664 2.79429 20.7691 2.87344 20.8672C3.15433 21.107 3.25609 21.4521 3.15975 21.3295C3.29092 21.4747 3.45013 21.5869 3.61749 21.714C3.78168 21.8447 3.95084 21.9921 4.12227 22.2011C4.12951 22.2594 4.20504 22.3467 4.31314 22.4462C4.42441 22.5421 4.57141 22.6462 4.71163 22.7479C4.9916 22.9528 5.27294 23.117 5.2259 23.1917L5.23902 23.184C5.72209 23.6964 6.36844 23.9031 6.96956 24.3419C6.96956 24.3419 6.95147 24.3459 6.92388 24.3432C7.1826 24.397 7.45127 24.4224 7.70773 24.459C7.96735 24.4889 8.22925 24.5024 8.48254 24.5214C8.42329 24.2953 8.37037 24.0709 8.32287 23.8498C8.16637 23.7068 8.02163 23.5472 7.8787 23.3929C7.73396 23.2428 7.60053 23.0795 7.46936 22.9189C6.53941 22.4358 5.68409 21.8022 4.91291 21.0771C4.36064 20.4348 3.88028 19.7383 3.48949 19.0024C2.95079 18.148 2.51023 17.2311 2.22392 16.2632C1.93896 15.2948 1.76754 14.2843 1.75307 13.2662L1.62778 12.827C1.75397 12.2245 1.81458 11.5456 1.93444 10.8558C2.05431 10.1697 2.2298 9.47043 2.54642 8.90143L2.45595 8.83674C2.58939 8.49525 2.64683 8.54727 2.69794 8.47173C3.36917 6.92348 4.41039 5.49374 5.70219 4.39417C6.98629 3.29009 8.50334 2.51664 9.99235 2.17651C10.1448 2.1756 10.4302 2.09961 10.7151 2.05167C10.9992 2.00101 11.2778 1.96709 11.3963 1.98789C12.3525 1.71651 13.4276 1.71515 14.4015 1.87165L14.3626 1.87844C14.5168 1.89517 14.6715 1.911 14.8248 1.93452C14.8425 1.94673 14.8425 1.95985 14.8262 1.96528C15.3626 1.96301 16.1411 2.27918 16.7114 2.56594L16.6725 2.56233C18.3922 3.27697 19.8889 4.38332 21.0224 5.79995C22.164 7.20798 22.9452 8.9358 23.1862 10.7844C23.2392 11.6506 23.2948 12.5705 23.2224 13.5344C23.1496 14.4938 22.9307 15.4884 22.5114 16.3885C22.3933 16.5368 21.9881 17.5496 21.3919 18.4573C21.1002 18.9142 20.7704 19.3439 20.4982 19.6736C20.2204 19.9979 20.0092 20.2322 19.9504 20.2982Z" fill="#1E2126"/>
<path fill-rule="evenodd" clip-rule="evenodd" d="M9.65813 9.53372C9.65813 10.3135 9.02581 10.9464 8.24557 10.9464C7.46534 10.9464 6.83301 10.3135 6.83301 9.53372C6.83301 8.75345 7.46534 8.12109 8.24557 8.12109C9.02581 8.12109 9.65813 8.75345 9.65813 9.53372Z" fill="#1E2126"/>
<path fill-rule="evenodd" clip-rule="evenodd" d="M18.6142 9.53372C18.6142 10.3135 17.9814 10.9464 17.2016 10.9464C16.4214 10.9464 15.7891 10.3135 15.7891 9.53372C15.7891 8.75345 16.4214 8.12109 17.2016 8.12109C17.9814 8.12109 18.6142 8.75345 18.6142 9.53372Z" fill="#1E2126"/>
<path fill-rule="evenodd" clip-rule="evenodd" d="M9.9847 17.4173L10.0281 17.4014C9.89921 17.4729 9.76578 17.5498 9.61923 17.6095C10.0331 17.595 10.4153 17.6104 10.4537 17.0685C10.5858 17.2825 10.9133 17.2879 10.8961 17.2246C10.9395 17.1567 10.9915 17.1052 11.0454 17.0541C11.0069 17.0853 10.9698 17.1183 10.935 17.154C10.9698 17.1183 11.0069 17.0853 11.0454 17.0541C11.3941 16.7365 11.9084 16.7356 12.3716 16.8397C12.4362 16.8523 12.529 16.8618 12.6325 16.8881C12.7366 16.9102 12.8537 16.9297 12.9673 16.969C13.0817 17.0007 13.1943 17.0373 13.2911 17.083C13.3884 17.1237 13.4716 17.1617 13.5259 17.2033C13.5589 17.2237 13.591 17.2436 13.6236 17.2635C13.5715 17.2214 13.5715 17.2214 13.52 17.1798C13.6064 17.173 13.6901 17.1662 13.7692 17.1604C13.8493 17.159 13.9262 17.1644 14.0017 17.1721C13.9927 17.1282 14.0031 17.0943 13.9655 17.0233L14.0252 17.0753C14.0781 17.0405 14.1419 17.04 14.2034 17.0468C14.2631 17.0581 14.3206 17.0771 14.3649 17.0749C14.3251 17.1169 14.3735 17.1545 14.4165 17.1861L14.4151 17.1441C14.501 17.1974 14.5951 17.2517 14.6897 17.3015C14.786 17.3485 14.8774 17.3992 14.9479 17.4571C14.9683 17.472 14.9719 17.4996 14.9696 17.5218C15.0244 17.5448 15.0814 17.5647 15.1352 17.5901C15.0796 17.6407 15.204 17.7334 15.1121 17.7167C15.265 17.733 15.3351 17.852 15.4826 17.875C15.815 18.1722 16.1574 18.5015 16.5062 18.8489L16.5243 18.8249C16.6477 18.9443 16.8567 19.0094 16.897 19.2247C17.0566 19.3175 17.1738 19.507 17.3438 19.5151C17.4316 19.6793 17.5135 19.7318 17.6062 19.9001C17.6686 19.8354 17.7428 20.0511 17.7781 19.9507C17.8482 19.8019 17.7577 19.8177 17.812 19.6897L17.788 19.6997C17.7591 19.1772 17.603 18.6611 17.3547 18.1903C17.1086 17.9288 16.9318 17.5864 16.6649 17.3318C16.3845 17.0545 16.0303 16.813 15.7304 16.6646C15.654 16.6361 15.6463 16.5515 15.6115 16.4823C15.3455 16.3294 15.018 16.1137 14.6897 15.9993C14.6955 16.002 14.7005 16.006 14.7037 16.0088C14.5309 15.9486 14.4364 15.8174 14.2613 15.7659C14.2545 15.7862 14.2274 15.7785 14.2107 15.7849C14.212 15.7374 13.9456 15.6826 13.6697 15.6822C13.3974 15.6641 13.1224 15.6989 13.0971 15.6609C13.0785 15.6623 13.0591 15.6636 13.0396 15.6632C12.6832 15.5741 12.2879 15.3597 11.9554 15.4072C11.8871 15.4605 11.8116 15.5085 11.7587 15.5668C11.6967 15.527 11.6958 15.6148 11.6275 15.613C11.4271 15.437 11.3344 15.5383 11.4375 15.5949C11.2996 15.6401 11.158 15.6578 11.0359 15.693C10.9821 15.7211 10.9296 15.7491 10.8771 15.7799C10.8341 15.8106 10.7993 15.7898 10.7618 15.7509C10.6469 15.817 10.669 15.7573 10.5329 15.7781C10.4746 15.7152 10.2525 16.0015 10.2118 15.9947L10.228 15.9766C10.0792 16.0187 9.92953 15.9377 9.78614 16.0002C9.37092 16.1381 8.99278 16.4353 8.66621 16.666C8.70873 16.727 8.72592 16.5981 8.78924 16.6741C8.59429 16.8017 8.35502 16.889 8.16867 17.0455C8.12163 17.059 8.0592 17.0726 8.02799 17.0699C7.95381 17.107 8.02167 17.1282 7.97508 17.1631L7.92124 17.1219C7.90315 17.2205 7.78148 17.1599 7.74666 17.2377C7.76384 17.259 7.74666 17.2825 7.7254 17.3015C7.67067 17.2553 7.67339 17.3725 7.62635 17.3268C7.6182 17.3435 7.61368 17.3558 7.59106 17.3644C7.58835 17.4091 7.54763 17.7628 7.55894 17.8072L7.54085 17.8126C7.51733 17.8506 7.54945 17.8972 7.57478 17.8836L7.5404 17.9257C7.53995 17.9175 7.50602 17.9596 7.50602 17.9596C7.49517 17.9641 7.46125 17.9546 7.44451 17.9239C7.44723 17.9637 7.43863 17.9994 7.41059 18.018C7.49608 17.9718 7.60735 17.9212 7.715 17.8931C7.71409 17.937 7.64669 17.9673 7.63086 18.0039C7.56618 18.0143 7.47798 18.0709 7.40787 18.1156C7.40199 18.1319 7.46214 18.1839 7.41194 18.1962C7.3563 18.1826 7.3925 18.2337 7.34274 18.24C7.33686 18.1939 7.36355 18.1686 7.38752 18.1405C7.32782 18.1098 7.30339 18.1934 7.27309 18.2093C7.28394 18.2314 7.22966 18.2826 7.22287 18.3305C7.17855 18.2821 7.16996 18.3418 7.12744 18.3486C7.10573 18.3717 7.11794 18.4006 7.14327 18.4006C7.198 18.4418 7.23871 18.3165 7.27987 18.3884C7.24549 18.3812 7.22604 18.4377 7.21338 18.4666C7.24549 18.4847 7.24866 18.4617 7.26946 18.4961C7.24504 18.5223 7.2663 18.5752 7.22242 18.5743C7.21654 18.5639 7.22921 18.5544 7.23509 18.5463C7.2075 18.5865 7.14734 18.2133 7.13739 18.2744C7.17222 18.2794 7.198 18.6096 7.21655 18.5824C7.2464 18.5675 7.2663 18.6304 7.29163 18.6118L7.26765 18.5639C7.29886 18.5368 7.36354 18.5544 7.37937 18.5784C7.34093 18.6331 7.25001 18.2957 7.25544 18.3613L7.28213 18.3504C7.29118 18.3834 7.2776 18.4481 7.23147 18.4508C7.26313 18.4685 7.25861 18.5024 7.25725 18.5318C7.25001 18.5693 7.22333 18.5978 7.2749 18.6051C7.34681 18.4685 7.55488 18.8651 7.64624 18.7489C7.54493 18.7629 7.58337 18.6924 7.60689 18.6327C7.63403 18.6408 7.68333 18.6363 7.72359 18.6082C7.73761 18.5711 7.70956 18.5734 7.69554 18.5562C7.72223 18.5467 7.75615 18.5187 7.78962 18.5458C7.76158 18.4929 7.84164 18.5209 7.84481 18.4807C7.84073 18.4409 7.82446 18.4707 7.81586 18.4382C7.84798 18.4015 7.89184 18.3504 7.9217 18.3246C7.96331 18.3346 8.04653 18.3391 8.07955 18.4002C8.03251 18.4535 8.01126 18.321 7.9805 18.3893C8.07413 18.4142 7.96376 18.4572 8.01442 18.5056C8.06192 18.5092 8.0886 18.4712 8.10172 18.4327L8.08725 18.4323C8.09675 18.3974 8.12071 18.3291 8.18178 18.3269C8.20258 18.3531 8.23109 18.354 8.2234 18.3789L8.25506 18.3441C8.25008 18.3332 8.2451 18.3224 8.23154 18.3292C8.2243 18.2961 8.24781 18.2857 8.27314 18.2835C8.30209 18.302 8.32019 18.0008 8.33285 18.0189C8.35411 17.9913 8.39799 18.0175 8.39301 17.9691C8.37311 17.9506 8.27586 18.2966 8.29667 18.2532C8.34371 18.2586 8.40658 17.8425 8.47804 17.8732C8.49387 17.8533 8.50971 17.8262 8.48031 17.8067C8.52283 17.7868 8.51966 17.861 8.56444 17.8605C8.56082 17.8565 8.54996 17.8506 8.55765 17.8447L8.60967 17.8533C8.61736 17.7687 8.7318 17.7457 8.73315 17.6475C8.74356 17.6873 8.77341 17.7506 8.76708 17.8063L8.74898 17.799C8.75215 17.8112 8.73586 17.8456 8.76119 17.8691C8.80597 17.8556 8.82452 17.8248 8.83221 17.7705C8.84487 17.7714 8.85799 17.7719 8.8693 17.7746C8.86614 17.7714 8.86341 17.7692 8.85934 17.7656C8.88467 17.7714 8.88604 17.7751 8.89146 17.7882C8.98238 17.8519 8.97062 17.6416 9.06199 17.629C9.06877 17.6036 9.05203 17.6149 9.06018 17.5819C9.14159 17.5589 9.20536 17.5534 9.28181 17.5222C9.27502 17.4729 9.26643 17.4575 9.21351 17.4412L9.2705 17.415C9.29854 17.5394 9.42564 17.4336 9.44825 17.5625C9.4772 17.5729 9.50797 17.5561 9.52244 17.5209C9.50842 17.496 9.48354 17.453 9.51836 17.4304C9.58893 17.4299 9.56947 17.4263 9.63008 17.4304C9.66039 17.4553 9.65451 17.4774 9.67351 17.501C9.70607 17.4209 9.77166 17.5344 9.82277 17.4915C9.85172 17.4593 9.91686 17.4078 9.88565 17.3521C9.93721 17.3264 9.96163 17.3684 9.9847 17.4173Z" fill="#1E2126"/>
</svg>
