<svg width="25" height="24" viewBox="0 0 25 24" fill="none" xmlns="http://www.w3.org/2000/svg">
<ellipse cx="13.7227" cy="11.875" rx="9.6875" ry="9.375" fill="#EDFDD9"/>
<path fill-rule="evenodd" clip-rule="evenodd" d="M12.7814 1.49316L12.752 1.49954C12.7637 1.49843 12.7728 1.49594 12.7814 1.49316Z" fill="#1E2126"/>
<path fill-rule="evenodd" clip-rule="evenodd" d="M10.99 1.34863L10.9746 1.39136C10.9886 1.37322 10.9918 1.35994 10.99 1.34863Z" fill="#1E2126"/>
<path fill-rule="evenodd" clip-rule="evenodd" d="M21.9014 16.9278C21.9128 16.9338 21.9246 16.9342 21.936 16.9329C21.9403 16.9267 21.9014 16.9278 21.9014 16.9278Z" fill="#1E2126"/>
<path fill-rule="evenodd" clip-rule="evenodd" d="M18.1489 2.7334C18.147 2.73881 18.1462 2.74532 18.1466 2.75293L18.2176 2.75897C18.1878 2.74375 18.1654 2.73563 18.1489 2.7334Z" fill="#1E2126"/>
<path fill-rule="evenodd" clip-rule="evenodd" d="M23.5039 12.9812C23.4984 12.977 23.4942 12.9665 23.4878 12.9653C23.4675 13.0371 23.4473 13.2281 23.416 13.4728L23.4735 13.4965C23.4874 13.3244 23.5018 13.1527 23.5039 12.9812Z" fill="#1E2126"/>
<path fill-rule="evenodd" clip-rule="evenodd" d="M23.6468 7.77811C23.6895 7.9532 23.7363 8.12351 23.7731 8.29898C23.3821 7.56093 23.0773 7.04107 22.7763 6.55406C22.4718 6.07094 22.1641 5.62501 21.6895 5.10422L21.7587 5.14881C21.7043 5.06091 21.6122 5.03224 21.3762 4.79057C21.1364 4.54903 20.7894 4.08018 20.0471 3.17856L20.0551 3.16949C19.9935 3.11751 19.98 3.1347 19.8795 3.0047C19.9648 3.11088 20.0454 3.22057 20.1273 3.32768C19.9314 3.18785 19.7368 3.0948 19.4856 2.90029C19.4425 2.84676 19.4404 2.81201 19.4472 2.79301C19.2352 2.63899 19.0254 2.48307 18.8029 2.34235C18.7514 2.27531 18.7007 2.20577 18.6467 2.13995C18.5318 2.09304 18.4757 2.11964 18.3862 2.10546C18.2967 2.09127 18.178 2.03355 17.9163 1.83858C18.0721 2.05783 17.6047 1.74329 17.6452 1.8374C17.6228 1.81051 17.5663 1.75908 17.5219 1.71526C17.3492 1.63259 17.09 1.53337 16.8515 1.45463C16.6112 1.37999 16.39 1.33198 16.298 1.32953C16.298 1.32953 16.3803 1.37492 16.5103 1.44644C16.5741 1.48229 16.6497 1.52463 16.7324 1.57112C16.8114 1.62237 16.8979 1.6781 16.987 1.73578C17.3421 1.96419 17.6971 2.26598 17.8306 2.41434C17.3991 2.13796 17.7069 2.36144 17.7748 2.44372L17.8187 2.43528C18.0678 2.61374 18.0252 2.68092 18.143 2.77616C18.1464 2.77122 18.1464 2.76282 18.1468 2.7545L18.1253 2.75248C18.1198 2.73411 18.132 2.73103 18.1493 2.73348C18.1548 2.71841 18.1734 2.71549 18.2409 2.76299L18.2232 2.76101C18.3355 2.82083 18.5069 2.95763 18.5821 3.01526L18.5483 3.06579C18.672 3.08382 18.9519 3.34289 19.2031 3.63754C19.4582 3.92936 19.6866 4.25264 19.7892 4.35832C19.9466 4.61857 20.2667 4.82088 20.4841 5.12517C20.8514 5.58781 20.6082 5.40682 20.7552 5.6671C20.954 5.97928 20.7644 5.5643 20.8594 5.67736C20.9278 5.81145 21.0005 5.94145 21.0646 6.07715C20.9038 5.87782 20.9591 6.01094 20.9688 6.06212C21.193 6.37036 21.4463 6.92134 21.6093 6.9514C21.8457 7.40974 21.8018 7.43722 21.912 7.62527C21.8926 7.5516 21.8335 7.41751 21.8525 7.4037C21.9158 7.60505 21.9158 7.47915 21.8812 7.40197C21.9871 7.51964 22.1552 7.89316 22.2928 8.23945C22.4343 8.58464 22.5461 8.90201 22.62 8.90256L22.5981 8.91307C22.7184 8.93499 22.7556 8.78848 22.8987 8.96188C22.9067 9.01166 22.9126 9.06219 22.9181 9.11244L23.0448 9.29559C23.0731 9.44251 23.019 9.3867 23.0089 9.39113C23.1871 9.7012 23.3019 10.1863 23.3948 10.5983C23.4467 10.43 23.4864 10.2596 23.5274 10.0844C23.5552 10.2697 23.5784 10.5304 23.6033 10.7491C23.6207 10.9695 23.6515 11.1473 23.6971 11.1759L23.6426 11.4051C23.5624 12.1342 23.7701 11.8957 23.7431 12.1879C23.7161 12.3096 23.681 12.4297 23.6506 12.548C23.6485 12.4299 23.6511 12.3117 23.646 12.1937C23.6059 12.5489 23.5691 12.6889 23.486 12.9621C23.494 12.9465 23.4999 12.9345 23.5058 12.9323L23.5046 12.9812C23.5518 13.0266 23.5713 13.2135 23.5345 13.4608C23.467 13.806 23.491 14.1018 23.2331 14.6203C23.2529 14.6753 23.2719 14.7307 23.2888 14.786C23.2251 14.9167 23.1621 15.0465 23.0921 15.1732L23.0165 15.1454C23.0942 14.9518 23.1778 14.6635 23.2533 14.3598C23.3264 14.0553 23.3787 13.7335 23.4167 13.4728L23.3817 13.4584C23.3369 13.7654 23.296 14.1213 23.2348 14.3206C23.1951 14.416 23.041 14.6383 23.0406 14.445L23.0633 14.6517C22.9109 15.1505 22.8075 15.3957 22.6918 15.6395C22.5749 15.8827 22.4385 16.126 22.1303 16.5804L22.2118 16.5173C22.1261 16.7189 22.0319 16.9189 21.942 16.9339C21.5844 17.4901 21.1098 17.9924 20.7594 18.2468C20.7644 18.2921 20.7661 18.3349 20.7687 18.379C20.669 18.4779 20.4242 18.5305 20.4748 18.6716C20.4191 18.7551 20.3591 18.8346 20.2966 18.9124C20.1535 19.0377 20.11 19.1627 19.9124 19.2679C19.8989 19.2743 19.8858 19.2804 19.8728 19.2868C19.5265 19.5409 19.939 19.3524 19.5299 19.6345C19.364 19.681 19.4674 19.8364 19.2618 19.9693L18.9882 20.0082C18.5846 20.1899 18.6091 20.3547 18.0657 20.684C17.7769 20.7951 17.5933 20.7554 17.7174 20.5726C17.5388 20.8108 17.6499 20.7052 17.3568 20.9272C17.283 20.9049 17.3142 20.8795 17.364 20.8028C17.0499 20.887 17.207 20.9292 16.9874 21.0308C16.9646 21.1477 16.9549 21.3278 16.8823 21.363C16.9161 21.3606 16.9494 21.3572 16.9823 21.352C16.7611 21.4986 16.5057 21.6428 16.1992 21.6943L16.1932 21.6447L15.8952 21.7744L15.8568 21.7219C15.7145 21.7808 15.5663 21.821 15.421 21.8718L15.4865 21.8706C15.4354 21.8895 15.3256 21.9285 15.2032 21.9661C15.0791 21.9981 14.9414 22.0246 14.8388 22.0314V21.996C14.2621 22.0141 13.8226 22.2199 13.1487 22.2717L13.2323 22.1972C13.0018 22.1372 13.1762 22.3086 12.9018 22.2858L12.8857 22.1997C12.6493 22.3267 12.5758 22.1756 12.4141 22.1341L12.4897 22.2488L12.1794 22.2211C11.8399 22.1642 11.9792 22.0643 12.0307 22.0093L11.796 22.0828L11.7588 21.9796C11.5824 22.0842 11.5942 21.9542 11.2965 21.9777C11.2775 21.937 11.3531 21.9246 11.2568 21.8962C11.0918 21.9229 10.9241 21.9529 10.757 21.9662C10.857 21.9634 10.9562 21.9616 11.0563 21.9506L10.9997 22.0914C10.6763 22.1545 10.5898 22.0028 10.3656 22.0058L10.5235 21.9901C10.1621 21.9638 10.1591 21.8815 9.96996 21.8083C10.024 21.8493 10.1089 21.9112 9.96237 21.8959C9.8564 21.879 9.91846 21.8324 9.82431 21.7934C9.77618 21.8874 9.5123 21.8617 9.29993 21.7504C9.30668 21.7379 9.31555 21.7265 9.33286 21.7225C9.2708 21.7206 9.23322 21.7357 9.14076 21.6838L9.23238 21.5976C9.15807 21.6132 9.08461 21.6227 9.01072 21.6327C8.89504 21.5596 8.68436 21.5681 8.72616 21.5052L8.80511 21.5102C8.64678 21.4524 8.49141 21.388 8.33941 21.3159C8.18742 21.2444 8.03036 21.1838 7.88344 21.1022L7.9075 21.0174C7.76733 21.0805 7.43674 20.7421 7.40043 20.8838C7.27335 20.7217 6.71816 20.5692 6.90308 20.4764C6.62907 20.297 6.39391 20.1968 6.15916 20.0579C5.91808 19.9296 5.67953 19.7609 5.39624 19.4765C5.33924 19.3243 5.15178 19.1389 4.94997 18.9276C4.74562 18.7193 4.52227 18.4891 4.36015 18.2932C3.67111 17.5745 3.25567 17.0633 2.7334 16.1734C2.68105 15.8525 2.50625 15.5148 2.33695 15.1615C2.17229 14.8081 2.00425 14.4412 1.97639 14.1049L1.85184 13.9496C1.86619 13.4953 1.58332 12.8577 1.66607 12.2289C1.62089 12.0817 1.604 12.0029 1.59894 11.9682C1.59725 11.9962 1.58501 12.0393 1.53603 12.0557C1.54954 11.8782 1.51576 11.52 1.61245 11.5453L1.623 11.5899C1.67367 11.6022 1.661 11.47 1.6458 11.3092C1.63651 11.1487 1.63525 10.9587 1.68296 10.8639L1.5698 10.9651C1.58247 10.8538 1.59176 10.7426 1.60738 10.6319C1.60991 10.6622 1.61624 10.6926 1.62131 10.7229C1.56811 9.98787 1.69562 9.45725 1.85057 8.96217C2.01396 8.46567 2.1858 7.99432 2.36692 7.32116C2.40281 7.53746 2.4159 7.0442 2.54509 7.08418C2.69582 6.96453 2.75873 6.82009 2.79673 6.66789C2.83473 6.51619 2.86133 6.36466 2.91284 6.22893C2.90735 6.22576 2.9027 6.21905 2.90228 6.19984C2.98714 6.05591 3.08172 5.91865 3.18009 5.78393C3.15096 6.12169 3.26622 5.40964 3.23033 5.71439C3.64198 5.2083 4.10683 4.62756 4.65907 4.09276C5.20751 3.55757 5.84588 3.07213 6.51296 2.73247L6.43655 2.72993C6.60332 2.6384 6.79035 2.5358 6.96768 2.4387C7.14753 2.34619 7.32739 2.27868 7.47094 2.24926C7.75847 2.1964 8.02403 1.92707 8.12916 1.87768C8.41499 1.71686 8.73333 1.76955 8.59949 1.8024C8.75824 1.73848 8.9115 1.67122 9.08123 1.59472C9.25096 1.51669 9.44601 1.46447 9.68625 1.45531C9.7766 1.50289 10.0911 1.43044 10.393 1.36749C10.6949 1.30863 10.9845 1.27372 10.9934 1.34803L10.998 1.33473C11.6018 1.43475 12.1886 1.27017 12.8258 1.47612C12.8258 1.47612 12.8114 1.48566 12.7882 1.49292C13.0195 1.44475 13.2513 1.42436 13.492 1.38995C13.7297 1.36618 13.9699 1.3571 14.2173 1.34216C14.1413 1.14233 14.0586 0.940306 13.9687 0.736509C13.7837 0.607147 13.5895 0.497501 13.3911 0.385955C13.1939 0.268836 12.9896 0.167128 12.7806 0.0698109C11.5933 -0.0691778 10.3955 0.00415877 9.24166 0.247178C8.30648 0.36455 7.37933 0.599547 6.48848 0.951367C5.43339 1.4423 4.46317 2.11795 3.61538 2.91743C2.76549 3.71598 2.0718 4.65889 1.50985 5.66347C1.45792 5.8234 1.4195 5.98844 1.3815 6.15187C0.979142 6.70272 0.68993 7.43072 0.487273 8.1882C0.282082 8.94714 0.152468 9.73138 0.0156745 10.4539L0.112778 10.4929C0.0908236 10.9017 0.0338286 10.8709 0.00976298 10.9719C-0.0746777 12.8986 0.393546 14.8436 1.2236 16.5226C1.63271 17.3675 2.13049 18.1518 2.68442 18.866C3.23329 19.5845 3.84802 20.2252 4.48554 20.7988C4.69538 21.0657 5.52754 21.6367 5.72133 21.8166C6.7304 22.3118 7.79013 22.8111 8.85155 23.1448L8.80807 23.1434L9.31471 23.2737C9.33371 23.2879 9.33328 23.3002 9.31555 23.3029C9.90706 23.3699 10.7975 23.6316 11.5233 23.725L11.4798 23.7328C13.5975 23.932 15.6879 23.5111 17.5249 22.6627C19.3665 21.8063 20.9971 20.5585 22.3722 18.9761C23.049 18.2673 23.6245 17.3574 24.0576 16.3402C24.4946 15.323 24.7948 14.2028 24.9422 13.0387C24.9755 12.9342 25.0152 12.5542 24.9941 12.037C24.9759 11.5203 24.8797 10.8745 24.7091 10.259C24.3772 9.01681 23.757 7.94078 23.6468 7.77811Z" fill="#1E2126"/>
<path fill-rule="evenodd" clip-rule="evenodd" d="M19.4463 2.78834L19.4569 2.79628C19.4767 2.77072 19.4533 2.76809 19.4463 2.78834Z" fill="#1E2126"/>
<path fill-rule="evenodd" clip-rule="evenodd" d="M23.3998 10.6239L23.3943 10.5981L23.3613 10.7086L23.3998 10.6239Z" fill="#1E2126"/>
<path fill-rule="evenodd" clip-rule="evenodd" d="M20.8193 5.89648C20.9615 6.09601 20.9742 6.10078 20.9674 6.06244C20.916 5.99027 20.8641 5.93221 20.8193 5.89648Z" fill="#1E2126"/>
<path fill-rule="evenodd" clip-rule="evenodd" d="M17.5471 1.67296C17.4201 1.60723 17.4585 1.65405 17.5209 1.71593C17.6531 1.77474 17.7438 1.81847 17.7438 1.81847C17.6788 1.77191 17.6159 1.71876 17.5471 1.67296Z" fill="#1E2126"/>
<path fill-rule="evenodd" clip-rule="evenodd" d="M17.7715 2.44482L17.7217 2.45372C17.7892 2.48235 17.7927 2.4709 17.7715 2.44482Z" fill="#1E2126"/>
<path fill-rule="evenodd" clip-rule="evenodd" d="M9.58141 8.80771C9.58141 9.53592 8.99117 10.1262 8.26287 10.1262C7.535 10.1262 6.94434 9.53592 6.94434 8.80771C6.94434 8.07954 7.535 7.48926 8.26287 7.48926C8.99117 7.48926 9.58141 8.07954 9.58141 8.80771Z" fill="#1E2126"/>
<path fill-rule="evenodd" clip-rule="evenodd" d="M17.9418 8.80771C17.9418 9.53592 17.3515 10.1262 16.6232 10.1262C15.8949 10.1262 15.3047 9.53592 15.3047 8.80771C15.3047 8.07954 15.8949 7.48926 16.6232 7.48926C17.3515 7.48926 17.9418 8.07954 17.9418 8.80771Z" fill="#1E2126"/>
<path fill-rule="evenodd" clip-rule="evenodd" d="M9.59193 16.0452C9.58978 16.0413 9.58627 16.0451 9.59193 16.0452V16.0452Z" fill="#1E2126"/>
<path fill-rule="evenodd" clip-rule="evenodd" d="M13.9364 16.0762C13.9376 16.0537 13.9352 16.0357 13.9336 16.022L13.9364 16.0762Z" fill="#1E2126"/>
<path fill-rule="evenodd" clip-rule="evenodd" d="M12.3146 16.5709C12.3108 16.5702 12.3089 16.5732 12.3076 16.5775C12.3096 16.5746 12.3116 16.5721 12.3146 16.5709Z" fill="#1E2126"/>
<path fill-rule="evenodd" clip-rule="evenodd" d="M8.43555 15.4516C8.43874 15.4484 8.43904 15.4459 8.43991 15.4414L8.43555 15.4516Z" fill="#1E2126"/>
<path fill-rule="evenodd" clip-rule="evenodd" d="M8.46731 15.436C8.46888 15.4572 8.44537 15.4563 8.43793 15.4556C8.43244 15.4877 8.44341 15.4998 8.46456 15.5001C8.48454 15.475 8.45751 15.4591 8.46731 15.436Z" fill="#1E2126"/>
<path fill-rule="evenodd" clip-rule="evenodd" d="M6.9873 13.6191L6.99777 13.6204C6.99457 13.6195 6.99108 13.6192 6.9873 13.6191Z" fill="#1E2126"/>
<path fill-rule="evenodd" clip-rule="evenodd" d="M7.10156 13.9733L7.14487 13.9565C7.12626 13.9621 7.11266 13.9677 7.10156 13.9733Z" fill="#1E2126"/>
<path fill-rule="evenodd" clip-rule="evenodd" d="M13.9343 16.0151L13.9337 16C13.9334 16.0035 13.9337 16.0089 13.9343 16.0151Z" fill="#1E2126"/>
<path fill-rule="evenodd" clip-rule="evenodd" d="M15.3232 15.7339C15.3295 15.7462 15.3354 15.7556 15.3409 15.7635C15.3427 15.7631 15.3232 15.7339 15.3232 15.7339Z" fill="#1E2126"/>
<path fill-rule="evenodd" clip-rule="evenodd" d="M18.8339 14.362L18.8203 14.3496L18.8328 14.3829C18.8361 14.3761 18.836 14.3692 18.8339 14.362Z" fill="#1E2126"/>
<path fill-rule="evenodd" clip-rule="evenodd" d="M16.2895 15.4835C16.287 15.4776 16.2862 15.4714 16.2828 15.4654C16.2587 15.4581 16.2186 15.477 16.1709 15.5074L16.2021 15.5674L16.2895 15.4835Z" fill="#1E2126"/>
<path fill-rule="evenodd" clip-rule="evenodd" d="M18.1131 16.157L17.9387 16.1162C18.2047 15.8455 18.4276 15.8479 18.6088 15.5617L18.6134 15.5956C18.6708 15.5887 18.4981 15.3441 19.1285 15.2968L19.1374 15.3071C19.1492 15.2936 19.1314 15.2732 19.1821 15.2772L19.0605 15.2723C19.0787 15.2116 19.0711 15.1323 19.1179 15.0794C19.1395 15.0809 19.1614 15.0985 19.177 15.1139L19.2915 14.9826L19.3894 15.0125C19.397 14.9416 19.2552 14.8205 19.4287 14.8029C19.3029 14.7434 19.4283 14.6994 19.3713 14.6627C19.3873 14.6696 19.4147 14.6762 19.4392 14.6835C19.4899 14.6159 19.5798 14.4829 19.5625 14.4089C19.5625 14.4089 19.1424 14.4326 18.9875 14.386C19.0956 14.3355 18.9989 14.3544 18.9533 14.3374L18.9693 14.3661C18.8975 14.3886 18.8435 14.3283 18.803 14.3342C18.808 14.3387 18.8135 14.3441 18.8194 14.3496C18.8275 14.3471 18.8325 14.3558 18.8355 14.3642C18.8477 14.3765 18.8545 14.3888 18.8376 14.3976C18.8211 14.4167 18.7764 14.44 18.7565 14.4499L18.7114 14.3995C18.7582 14.5304 18.3284 14.473 18.2756 14.5109C18.1697 14.4882 18.1743 14.6229 18.0831 14.6434C17.9666 14.7107 17.9691 14.6087 17.8809 14.6049C17.7901 14.6232 17.9434 14.6559 17.9206 14.6801L17.7846 14.6683C17.8243 14.6262 17.7745 14.6138 17.75 14.5998C17.677 14.6449 17.4954 14.6275 17.5571 14.7499C17.427 14.768 17.3945 14.7248 17.3519 14.749C17.3797 14.7588 17.419 14.757 17.4355 14.7785C17.3637 14.7587 17.427 14.8035 17.4498 14.8028C17.4291 14.8947 17.0145 14.817 17.0905 14.9461L17.0749 14.9241C17.126 15.0233 17.2096 15.0957 17.2049 15.1733L17.1496 15.1517L17.1365 15.2186C17.0888 15.2081 17.0855 15.1747 17.0774 15.1636C17.0407 15.2509 16.9153 15.2657 16.8262 15.3052L17.0804 15.4984C16.971 15.487 16.7705 15.4503 16.8093 15.5405L16.7135 15.4827C16.4716 15.4068 16.6611 15.6142 16.5746 15.5999L16.4471 15.5496L16.5172 15.5082C16.4184 15.5034 16.3728 15.4908 16.2807 15.4617C16.2875 15.4663 16.293 15.4694 16.2968 15.4748C16.3086 15.5347 16.2913 15.5883 16.2402 15.614C16.1629 15.6408 16.1486 15.7459 15.9784 15.7049L16.005 15.819L15.8877 15.8067L15.845 15.7277C15.9303 15.6874 16.0688 15.5731 16.1697 15.5065L16.1507 15.4702C16.0891 15.5057 16.0397 15.5829 15.9932 15.597C15.9641 15.5925 15.8678 15.5389 15.8754 15.4658L15.8801 15.5635C15.6787 15.6867 15.6757 15.6889 15.4135 15.7098L15.4524 15.7406C15.4207 15.786 15.3878 15.8293 15.3439 15.7695C15.2058 15.8204 15.0441 15.8305 14.9141 15.762L14.9369 15.8673C14.9065 15.8742 14.8035 15.7451 14.8465 15.8874L14.8039 15.9545C14.7621 15.9623 14.7608 16.0279 14.6941 15.989C14.6899 15.9863 14.6857 15.9836 14.681 15.9805C14.5801 15.9797 14.7199 16.0766 14.597 16.0596C14.5383 16.0008 14.608 16.1981 14.5493 16.1935L14.4484 16.0687C14.3306 16.0176 14.3665 16.1695 14.2339 16.2108C14.1541 16.1795 14.0866 16.0652 14.0925 15.9428C14.0785 16.0932 14.0946 16.0373 14.0393 16.1248C14.0114 16.0737 14.0161 16.0595 14.0173 16.0052C13.9329 15.962 13.9916 16.0671 13.9405 16.0781C13.9557 16.1856 13.9857 16.3551 13.9705 16.3665L14 16.3933C13.9603 16.4638 13.9054 16.5068 13.8273 16.4725L13.8159 16.4195L13.7543 16.4635L13.7332 16.3973L13.6403 16.4413L13.658 16.4562C13.6373 16.4706 13.5664 16.5119 13.5153 16.4869L13.5086 16.449C13.3616 16.356 13.2941 16.5319 13.1501 16.569L13.156 16.4886C13.094 16.4193 13.1628 16.6098 13.0973 16.5806L13.0792 16.4858C13.0475 16.6191 13.0083 16.4697 12.9669 16.4277L13.0019 16.5501L12.9314 16.5343C12.852 16.5035 12.8651 16.3818 12.8664 16.3156L12.8305 16.4199L12.8069 16.3104C12.7874 16.4433 12.7693 16.2937 12.7153 16.3701C12.7051 16.3288 12.7182 16.3029 12.695 16.2875L12.6084 16.4562L12.6637 16.3794L12.6735 16.5424C12.6194 16.6741 12.5818 16.534 12.5388 16.5829L12.5671 16.5322C12.4932 16.5774 12.4835 16.5086 12.4379 16.4758C12.4531 16.505 12.4771 16.5483 12.4476 16.572C12.4252 16.5827 12.4311 16.5157 12.4083 16.4994C12.4108 16.6078 12.3581 16.6709 12.3044 16.6217C12.304 16.6063 12.3044 16.5914 12.3074 16.5814C12.2956 16.5994 12.2901 16.6276 12.2664 16.6022L12.2736 16.4812L12.2361 16.5973C12.2065 16.5653 12.1677 16.6542 12.1685 16.5726L12.1841 16.5479C12.1119 16.54 12.0397 16.5354 11.9684 16.5233L11.965 16.4267C11.9439 16.5593 11.8506 16.375 11.8552 16.5409C11.8168 16.451 11.6939 16.6026 11.7243 16.4154C11.5892 16.3916 11.4997 16.5735 11.3385 16.4632C11.2941 16.3013 11.1303 16.3336 11.0277 16.299C10.8137 16.3321 10.6684 16.3647 10.4472 16.36C10.4117 16.2386 10.3323 16.235 10.2462 16.2402C10.1597 16.2467 10.0651 16.2638 10.0229 16.1794L9.95827 16.2493C9.92112 16.0897 9.7286 16.1959 9.66569 16.0179C9.62136 16.0408 9.60067 16.0453 9.59265 16.0453C9.59645 16.0514 9.59772 16.0701 9.57703 16.122C9.55845 16.0735 9.4719 16.0816 9.52468 15.9843L9.53776 15.9781C9.5918 15.8801 9.41617 15.9754 9.42335 15.8711L9.38872 15.9874L9.33552 15.9385L9.36297 15.9264C9.16833 15.9707 9.08052 15.89 9.00663 15.8056C8.9319 15.7182 8.86266 15.6393 8.67731 15.65C8.7854 15.5671 8.59076 15.6716 8.67267 15.5548C8.72207 15.3709 8.54348 15.5067 8.46664 15.5043C8.46199 15.5098 8.4565 15.5157 8.44679 15.5221L8.37628 15.4423C8.54094 15.3441 8.22133 15.5087 8.36488 15.428C8.24878 15.1525 7.90511 15.0025 7.75818 14.7164L7.7299 14.7561C7.68979 14.688 7.58466 14.6425 7.6083 14.5517C7.63574 14.4613 7.43984 14.5103 7.41957 14.4938C7.31529 14.481 7.41536 14.3454 7.42464 14.3737C7.36723 14.3284 7.19496 14.3508 7.2051 14.2291C7.31909 14.1316 6.94798 14.0549 7.10039 13.9755L7.08646 13.9808C7.13881 13.8201 6.91209 13.7864 6.96106 13.6201C6.96106 13.6201 6.97416 13.6182 6.9864 13.6186C6.79472 13.5914 6.59882 13.5529 6.39912 13.5024C6.2239 13.583 6.04953 13.6674 5.87643 13.7553C5.76032 13.8969 5.64168 14.0497 5.53613 14.2071C5.6763 14.4738 5.8283 14.7297 6.00478 14.9639C6.06431 15.1973 6.14368 15.4263 6.2353 15.6536C6.59502 16.1055 7.01088 16.4996 7.46391 16.8337C7.52217 16.8249 7.57874 16.817 7.63701 16.8052C7.76536 17.1897 8.26482 17.2007 8.49323 17.5068L8.55192 17.4114C8.64312 17.4498 8.60554 17.5084 8.61905 17.5368C9.03787 17.7373 9.50061 17.8668 9.93885 17.9622C10.3801 18.0605 10.8061 18.1275 11.2042 18.2352C11.2764 18.3199 11.5183 18.2887 11.5766 18.3697C11.8489 18.2468 12.1212 18.2442 12.3842 18.2469L12.375 18.2596C12.4159 18.2517 12.456 18.2405 12.4965 18.2305C12.5025 18.2393 12.5037 18.2525 12.5004 18.2614C12.6321 18.1541 12.8554 18.233 13.0302 18.2503L13.0222 18.2636C14.0228 18.1562 14.8381 17.6985 15.7716 17.4566C16.2622 17.4391 16.6109 16.9764 17.1201 16.8467C17.1881 16.8697 17.435 16.7299 17.6601 16.5619C17.8868 16.3956 18.0928 16.2052 18.1131 16.157Z" fill="#1E2126"/>
<path fill-rule="evenodd" clip-rule="evenodd" d="M16.8128 15.3011C16.8178 15.2991 16.7705 15.2627 16.7705 15.2627L16.8128 15.3011Z" fill="#1E2126"/>
<path fill-rule="evenodd" clip-rule="evenodd" d="M17.7734 14.5571C17.7295 14.5764 17.7337 14.5853 17.7488 14.5937C17.7634 14.585 17.7731 14.5735 17.7734 14.5571Z" fill="#1E2126"/>
<path fill-rule="evenodd" clip-rule="evenodd" d="M19.4723 14.7228C19.4958 14.7058 19.47 14.6941 19.4382 14.6841C19.4198 14.7078 19.4072 14.7236 19.4072 14.7236C19.426 14.7204 19.4535 14.7263 19.4723 14.7228Z" fill="#1E2126"/>
<path fill-rule="evenodd" clip-rule="evenodd" d="M18.9497 14.3315L18.9344 14.3032C18.9289 14.3185 18.9368 14.3266 18.9497 14.3315Z" fill="#1E2126"/>
</svg>
