<svg width="25" height="26" viewBox="0 0 25 26" fill="none" xmlns="http://www.w3.org/2000/svg">
<ellipse cx="10.9375" cy="13.75" rx="9.6875" ry="9.375" fill="#D0FFD5"/>
<path fill-rule="evenodd" clip-rule="evenodd" d="M19.3828 20.7104C19.3883 20.705 19.3913 20.702 19.3968 20.6965C19.3938 20.6717 19.3917 20.6494 19.3921 20.6309L19.3828 20.7104Z" fill="#121212"/>
<path fill-rule="evenodd" clip-rule="evenodd" d="M19.3828 20.7104C19.3883 20.705 19.3913 20.702 19.3968 20.6965C19.3938 20.6717 19.3917 20.6494 19.3921 20.6309L19.3828 20.7104Z" fill="#1E2126" fill-opacity="0.2"/>
<path fill-rule="evenodd" clip-rule="evenodd" d="M21.6945 18.0311C21.6988 18.0267 21.7013 18.0239 21.7054 18.0198C21.697 18.0167 21.6907 18.0095 21.6945 18.0311Z" fill="#121212"/>
<path fill-rule="evenodd" clip-rule="evenodd" d="M21.6945 18.0311C21.6988 18.0267 21.7013 18.0239 21.7054 18.0198C21.697 18.0167 21.6907 18.0095 21.6945 18.0311Z" fill="#1E2126" fill-opacity="0.2"/>
<path fill-rule="evenodd" clip-rule="evenodd" d="M11.9192 23.5704C11.8901 23.5683 11.8741 23.5721 11.8623 23.5784C11.8787 23.5746 11.896 23.5712 11.9192 23.5704Z" fill="#121212"/>
<path fill-rule="evenodd" clip-rule="evenodd" d="M11.9192 23.5704C11.8901 23.5683 11.8741 23.5721 11.8623 23.5784C11.8787 23.5746 11.896 23.5712 11.9192 23.5704Z" fill="#1E2126" fill-opacity="0.2"/>
<path fill-rule="evenodd" clip-rule="evenodd" d="M19.3926 20.6233L19.3958 20.5967C19.3933 20.6043 19.3929 20.6131 19.3926 20.6233Z" fill="#121212"/>
<path fill-rule="evenodd" clip-rule="evenodd" d="M19.3926 20.6233L19.3958 20.5967C19.3933 20.6043 19.3929 20.6131 19.3926 20.6233Z" fill="#1E2126" fill-opacity="0.2"/>
<path fill-rule="evenodd" clip-rule="evenodd" d="M22.9521 14.9787C22.9656 14.981 22.9776 14.9771 22.9883 14.972C22.9907 14.9642 22.9521 14.9787 22.9521 14.9787Z" fill="#121212"/>
<path fill-rule="evenodd" clip-rule="evenodd" d="M22.9521 14.9787C22.9656 14.981 22.9776 14.9771 22.9883 14.972C22.9907 14.9642 22.9521 14.9787 22.9521 14.9787Z" fill="#1E2126" fill-opacity="0.2"/>
<path fill-rule="evenodd" clip-rule="evenodd" d="M22.5472 4.94575C22.6317 5.11463 22.6907 5.30078 22.7597 5.47693C22.2376 4.7578 21.8208 4.26067 21.4086 3.79986C20.9895 3.34723 20.5642 2.9359 19.9372 2.50824L20.0198 2.53866C19.9404 2.46103 19.8437 2.44377 19.5299 2.26036C19.3738 2.16774 19.1722 2.0211 18.8884 1.80454C18.5906 1.60842 18.2356 1.30111 17.7171 0.959749L17.723 0.947992C17.6454 0.911763 17.6345 0.935687 17.4965 0.827953L17.8411 1.08995C17.5968 1.01046 17.3798 0.952849 17.0656 0.833811C17.0053 0.793451 16.993 0.759402 16.9948 0.737428C16.7347 0.643224 16.4809 0.534944 16.2167 0.45436L16.0015 0.296505C15.8725 0.279617 15.8226 0.322837 15.7282 0.332825C15.6315 0.349168 15.5007 0.305404 15.1829 0.184777C15.399 0.36238 14.8392 0.181598 14.9055 0.262001C14.8765 0.239483 14.8065 0.199849 14.7507 0.165164C14.6526 0.147004 14.5328 0.124849 14.4052 0.101196C14.2763 0.0898461 14.1392 0.0778149 14.008 0.0663288C13.7469 0.047261 13.5127 0.0389073 13.4178 0.0577028C13.4178 0.0577028 13.7969 0.177378 14.2123 0.320569C14.6263 0.476516 15.0667 0.693933 15.2442 0.801848C14.7285 0.643993 15.103 0.783689 15.1947 0.84684L15.2374 0.827C15.5361 0.95362 15.5125 1.02844 15.6578 1.0974C15.6596 1.09141 15.6573 1.08265 15.6555 1.07388L15.6328 1.0777C15.6228 1.05999 15.6342 1.0535 15.6528 1.05123C15.6542 1.03407 15.6723 1.02599 15.754 1.05686L15.7354 1.05963C15.8657 1.09195 16.085 1.16459 16.1735 1.21426L16.1522 1.27641C16.2816 1.26551 16.6398 1.45034 16.9807 1.6747C17.3122 1.9135 17.6558 2.16139 17.7771 2.24855C18 2.48554 18.3986 2.57589 18.6891 2.84692C19.184 3.22283 18.8898 3.10025 19.1041 3.32907C19.3769 3.60555 19.0905 3.2192 19.2126 3.31363L19.5136 3.67774C19.3016 3.5143 19.3892 3.63688 19.4105 3.68727C19.7243 3.93424 20.0729 4.46814 20.2582 4.45271C20.5864 4.87856 20.5374 4.92259 20.689 5.09193C20.6554 5.0202 20.5696 4.89354 20.5882 4.87493C20.6885 5.07105 20.6672 4.94075 20.6177 4.86721C20.6831 4.91805 20.7766 5.03155 20.881 5.17184C20.9832 5.31439 21.0817 5.49599 21.1839 5.6617C21.3945 5.98994 21.5461 6.31228 21.627 6.29911L21.6052 6.31364C21.7359 6.31682 21.7541 6.15747 21.9311 6.31546L21.9761 6.46891C22.0315 6.52475 22.0905 6.57877 22.1391 6.63916C22.1849 6.79215 22.1232 6.73994 22.1123 6.74675C22.2249 6.89748 22.3334 7.09451 22.4392 7.3029C22.5418 7.5131 22.6176 7.74691 22.7093 7.95302L22.7688 7.38916C22.821 7.58165 22.8895 7.85042 22.959 8.07288C23.0221 8.29851 23.0707 8.48601 23.1301 8.50508L23.1183 8.75523C23.171 9.14295 23.2014 9.26961 23.2636 9.33181C23.319 9.39491 23.3753 9.399 23.3889 9.55427C23.3867 9.6882 23.3935 9.81849 23.3835 9.95151C23.3594 9.82666 23.319 9.7059 23.2881 9.58287C23.3458 9.96105 23.3222 10.1213 23.3127 10.4278C23.3167 10.4091 23.319 10.3955 23.3249 10.3914L23.3372 10.4427C23.3917 10.4786 23.4834 10.6643 23.5029 10.9317C23.5219 11.3094 23.6522 11.6022 23.5374 12.212L23.6495 12.3631C23.6359 12.5161 23.6023 12.6678 23.5714 12.8185L23.4847 12.8149C23.5247 12.3713 23.4588 11.5382 23.3826 10.978L23.3422 10.973C23.3717 11.3058 23.4643 11.6812 23.4466 11.9055C23.4316 12.0154 23.3467 12.291 23.2841 12.093L23.373 12.2973C23.3535 13.4092 23.3594 13.4305 23.0602 14.5537L23.1242 14.4638C23.1006 14.694 23.0766 14.9264 22.9944 14.9727C22.9081 15.3105 22.7792 15.6442 22.6625 15.9452C22.5204 16.2385 22.3797 16.4972 22.2512 16.6856L22.3043 16.8146C22.2371 16.9467 22.0056 17.0797 22.1059 17.205L22.016 17.5092C21.9139 17.6822 21.9039 17.817 21.7427 17.9891C21.7318 18.0004 21.7209 18.0109 21.7105 18.0218C21.5902 18.2111 21.6106 18.222 21.6251 18.2388C21.6401 18.256 21.6533 18.2824 21.4835 18.4835C21.331 18.5838 21.4917 18.7082 21.3323 18.9107C21.2433 18.9538 21.1621 19.001 21.069 19.0383C20.8956 19.1949 20.8275 19.3093 20.7512 19.4528C20.7131 19.524 20.6731 19.6026 20.6173 19.6966C20.556 19.786 20.4756 19.8877 20.3648 20.0121C20.112 20.2159 19.9226 20.2409 19.9789 20.0107C19.8872 20.3153 19.9603 20.1705 19.732 20.4783C19.6512 20.4792 19.6725 20.4425 19.6979 20.3499C19.411 20.5333 19.5831 20.5278 19.3978 20.7008C19.4151 20.8288 19.4637 21.0145 19.4001 21.0703L19.4995 21.0313C19.322 21.2456 19.1023 21.4599 18.8199 21.6174L18.7985 21.5688L18.5325 21.7808L18.4771 21.7377L18.0894 22.0269L18.1539 22.0051C18.0672 22.0796 17.7457 22.2739 17.5451 22.3506L17.5342 22.3143C17.2509 22.4205 16.998 22.5204 16.7506 22.6684C16.5049 22.8219 16.228 22.9431 15.8989 23.0752L15.9615 22.9717C15.7114 22.9789 15.9393 23.1111 15.6528 23.161L15.6115 23.0756C15.4031 23.2595 15.2891 23.1365 15.1121 23.1374L15.2215 23.2341L14.8992 23.2963C14.5369 23.3285 14.6504 23.1878 14.6871 23.1165L14.4692 23.2563L14.402 23.1596C14.2513 23.3144 14.2268 23.1782 13.9326 23.294C13.9013 23.2568 13.9753 23.2246 13.8686 23.2191L13.3792 23.4293L13.6793 23.3263L13.6611 23.4874C13.3492 23.6395 13.2216 23.5333 12.9924 23.58L13.149 23.5269C12.7722 23.5805 12.7477 23.5147 12.5343 23.4888C12.6006 23.5151 12.7041 23.5542 12.5511 23.5814C12.4385 23.595 12.4884 23.5287 12.3822 23.516C12.359 23.6291 12.0835 23.674 11.836 23.6168C11.8397 23.6018 11.8451 23.5878 11.8619 23.5787C11.7984 23.5937 11.7643 23.62 11.6553 23.5914L11.7248 23.4765L11.5087 23.5814C11.3698 23.5483 11.1587 23.6009 11.1836 23.5278L11.2649 23.5128C10.9131 23.4629 10.5589 23.4325 10.2139 23.3485L10.2153 23.2541C10.0895 23.3598 9.65866 23.1092 9.66093 23.265C9.48796 23.1297 8.88005 23.1288 9.04258 22.9835C8.71116 22.8872 8.45283 22.8241 8.16908 22.7669C7.89124 22.6975 7.60204 22.5903 7.23476 22.3824C7.13533 22.243 6.90198 22.0914 6.63412 21.9425C6.37443 21.7799 6.09068 21.6011 5.86822 21.4553C4.99519 20.8983 4.42632 20.4892 3.70492 19.6997C3.58461 19.3842 3.339 19.0805 3.10474 18.7545C2.86911 18.4308 2.64801 18.084 2.57401 17.7462L2.42419 17.605C2.38379 17.1383 2.02195 16.5095 2.03239 15.8299C1.96747 15.6782 1.94023 15.5965 1.93161 15.5593C1.93206 15.5897 1.92389 15.6374 1.87349 15.661C1.87713 15.468 1.77633 15.0921 1.88756 15.1048L1.90573 15.1511C2.01332 15.1666 1.78133 14.5836 1.85896 14.3585L1.75455 14.4865L1.74183 14.1201L1.7718 14.2159C1.58157 13.4328 1.59383 12.8471 1.62652 12.2841C1.66828 11.7198 1.72095 11.1773 1.6869 10.4273C1.78587 10.637 1.65966 10.129 1.79904 10.1277C1.90709 9.95469 1.92616 9.78581 1.91889 9.61919C1.91072 9.45212 1.87168 9.28595 1.88439 9.13296C1.87758 9.13159 1.87077 9.12615 1.86396 9.10708C1.90981 8.93456 1.94432 8.75932 1.9988 8.58998C2.08733 8.94001 1.95657 8.18365 2.02604 8.50281C2.26121 7.84724 2.51454 7.09769 2.86276 6.36177C3.20961 5.62584 3.65089 4.90307 4.1857 4.34375L4.10716 4.36599C4.17163 4.29108 4.24019 4.21164 4.30965 4.13083C4.38274 4.05274 4.45674 3.9742 4.52893 3.89747C4.67012 3.74039 4.82766 3.61644 4.96295 3.54381C5.03105 3.50749 5.09098 3.4571 5.1441 3.40035C5.2004 3.34723 5.25079 3.28821 5.29528 3.22964C5.38426 3.11342 5.45055 3.00174 5.49549 2.96269C5.72839 2.71027 6.06662 2.67395 5.94223 2.74614C6.22688 2.54275 6.44662 2.23267 6.92876 2.08739C7.03318 2.11372 7.33055 1.96208 7.61794 1.8218C7.9094 1.69468 8.19133 1.58118 8.21903 1.66835L8.22084 1.65337C8.38156 1.65019 8.53274 1.62204 8.68301 1.59389C8.83465 1.57392 8.98447 1.54304 9.13656 1.51126C9.44028 1.46809 9.7599 1.42292 10.0895 1.50218C10.0895 1.50218 10.0763 1.51399 10.0532 1.52398C10.5122 1.36771 11.0002 1.29657 11.52 1.2578C11.4379 1.0471 11.3439 0.832629 11.2368 0.615755C10.82 0.363968 10.361 0.162712 9.87431 0C8.54681 0.0160261 7.26427 0.370417 6.13518 0.957025C5.19358 1.34519 4.30965 1.88127 3.52105 2.54638C3.0775 2.98948 2.65619 3.45664 2.29843 3.97647C1.94295 4.48857 1.62742 5.01839 1.36637 5.57499C0.826571 6.68047 0.483349 7.85541 0.260436 9.03353L0.296758 9.55926C0.0788385 10.2344 0.00846831 11.0384 0.00120433 11.846C-0.00832963 12.6555 0.042516 13.4695 0.021632 14.2191L0.131956 14.2413C0.172816 14.6576 0.106985 14.6368 0.0969973 14.7421C0.204141 15.7191 0.388919 16.7201 0.728056 17.6958C1.06129 18.6732 1.57658 19.608 2.19538 20.4048C2.81599 21.2061 3.52196 21.9057 4.28377 22.4932C4.47536 22.6398 4.66603 22.786 4.85535 22.9308C5.0542 23.0611 5.25215 23.1905 5.44873 23.319C5.64168 23.4543 5.84643 23.5646 6.04891 23.6767C6.25231 23.7857 6.44707 23.9101 6.65273 24.0063C6.79847 24.108 7.12262 24.2547 7.43815 24.3963C7.7623 24.5153 8.07783 24.6306 8.19814 24.7105C9.36855 24.9352 10.5907 25.1386 11.767 25.1904L11.7221 25.2008L12.276 25.1967C12.2991 25.2063 12.3023 25.219 12.2846 25.2267C12.5965 25.1645 12.9969 25.159 13.4164 25.1391C13.8341 25.1036 14.2763 25.1023 14.6567 25.0351L14.6145 25.0555C16.8346 24.686 18.8576 23.6368 20.4733 22.2026C22.0669 20.7389 23.3058 18.9393 24.1367 16.8827C24.5743 15.9447 24.8558 14.8401 24.9493 13.6806C25.0492 12.5207 24.9938 11.318 24.8499 10.1222C24.8785 9.89613 24.6097 8.57091 24.0454 7.3651C23.7753 6.7581 23.4348 6.1897 23.151 5.75341C22.8496 5.32847 22.6308 5.01566 22.5472 4.94575Z" fill="#121212"/>
<path fill-rule="evenodd" clip-rule="evenodd" d="M22.5472 4.94575C22.6317 5.11463 22.6907 5.30078 22.7597 5.47693C22.2376 4.7578 21.8208 4.26067 21.4086 3.79986C20.9895 3.34723 20.5642 2.9359 19.9372 2.50824L20.0198 2.53866C19.9404 2.46103 19.8437 2.44377 19.5299 2.26036C19.3738 2.16774 19.1722 2.0211 18.8884 1.80454C18.5906 1.60842 18.2356 1.30111 17.7171 0.959749L17.723 0.947992C17.6454 0.911763 17.6345 0.935687 17.4965 0.827953L17.8411 1.08995C17.5968 1.01046 17.3798 0.952849 17.0656 0.833811C17.0053 0.793451 16.993 0.759402 16.9948 0.737428C16.7347 0.643224 16.4809 0.534944 16.2167 0.45436L16.0015 0.296505C15.8725 0.279617 15.8226 0.322837 15.7282 0.332825C15.6315 0.349168 15.5007 0.305404 15.1829 0.184777C15.399 0.36238 14.8392 0.181598 14.9055 0.262001C14.8765 0.239483 14.8065 0.199849 14.7507 0.165164C14.6526 0.147004 14.5328 0.124849 14.4052 0.101196C14.2763 0.0898461 14.1392 0.0778149 14.008 0.0663288C13.7469 0.047261 13.5127 0.0389073 13.4178 0.0577028C13.4178 0.0577028 13.7969 0.177378 14.2123 0.320569C14.6263 0.476516 15.0667 0.693933 15.2442 0.801848C14.7285 0.643993 15.103 0.783689 15.1947 0.84684L15.2374 0.827C15.5361 0.95362 15.5125 1.02844 15.6578 1.0974C15.6596 1.09141 15.6573 1.08265 15.6555 1.07388L15.6328 1.0777C15.6228 1.05999 15.6342 1.0535 15.6528 1.05123C15.6542 1.03407 15.6723 1.02599 15.754 1.05686L15.7354 1.05963C15.8657 1.09195 16.085 1.16459 16.1735 1.21426L16.1522 1.27641C16.2816 1.26551 16.6398 1.45034 16.9807 1.6747C17.3122 1.9135 17.6558 2.16139 17.7771 2.24855C18 2.48554 18.3986 2.57589 18.6891 2.84692C19.184 3.22283 18.8898 3.10025 19.1041 3.32907C19.3769 3.60555 19.0905 3.2192 19.2126 3.31363L19.5136 3.67774C19.3016 3.5143 19.3892 3.63688 19.4105 3.68727C19.7243 3.93424 20.0729 4.46814 20.2582 4.45271C20.5864 4.87856 20.5374 4.92259 20.689 5.09193C20.6554 5.0202 20.5696 4.89354 20.5882 4.87493C20.6885 5.07105 20.6672 4.94075 20.6177 4.86721C20.6831 4.91805 20.7766 5.03155 20.881 5.17184C20.9832 5.31439 21.0817 5.49599 21.1839 5.6617C21.3945 5.98994 21.5461 6.31228 21.627 6.29911L21.6052 6.31364C21.7359 6.31682 21.7541 6.15747 21.9311 6.31546L21.9761 6.46891C22.0315 6.52475 22.0905 6.57877 22.1391 6.63916C22.1849 6.79215 22.1232 6.73994 22.1123 6.74675C22.2249 6.89748 22.3334 7.09451 22.4392 7.3029C22.5418 7.5131 22.6176 7.74691 22.7093 7.95302L22.7688 7.38916C22.821 7.58165 22.8895 7.85042 22.959 8.07288C23.0221 8.29851 23.0707 8.48601 23.1301 8.50508L23.1183 8.75523C23.171 9.14295 23.2014 9.26961 23.2636 9.33181C23.319 9.39491 23.3753 9.399 23.3889 9.55427C23.3867 9.6882 23.3935 9.81849 23.3835 9.95151C23.3594 9.82666 23.319 9.7059 23.2881 9.58287C23.3458 9.96105 23.3222 10.1213 23.3127 10.4278C23.3167 10.4091 23.319 10.3955 23.3249 10.3914L23.3372 10.4427C23.3917 10.4786 23.4834 10.6643 23.5029 10.9317C23.5219 11.3094 23.6522 11.6022 23.5374 12.212L23.6495 12.3631C23.6359 12.5161 23.6023 12.6678 23.5714 12.8185L23.4847 12.8149C23.5247 12.3713 23.4588 11.5382 23.3826 10.978L23.3422 10.973C23.3717 11.3058 23.4643 11.6812 23.4466 11.9055C23.4316 12.0154 23.3467 12.291 23.2841 12.093L23.373 12.2973C23.3535 13.4092 23.3594 13.4305 23.0602 14.5537L23.1242 14.4638C23.1006 14.694 23.0766 14.9264 22.9944 14.9727C22.9081 15.3105 22.7792 15.6442 22.6625 15.9452C22.5204 16.2385 22.3797 16.4972 22.2512 16.6856L22.3043 16.8146C22.2371 16.9467 22.0056 17.0797 22.1059 17.205L22.016 17.5092C21.9139 17.6822 21.9039 17.817 21.7427 17.9891C21.7318 18.0004 21.7209 18.0109 21.7105 18.0218C21.5902 18.2111 21.6106 18.222 21.6251 18.2388C21.6401 18.256 21.6533 18.2824 21.4835 18.4835C21.331 18.5838 21.4917 18.7082 21.3323 18.9107C21.2433 18.9538 21.1621 19.001 21.069 19.0383C20.8956 19.1949 20.8275 19.3093 20.7512 19.4528C20.7131 19.524 20.6731 19.6026 20.6173 19.6966C20.556 19.786 20.4756 19.8877 20.3648 20.0121C20.112 20.2159 19.9226 20.2409 19.9789 20.0107C19.8872 20.3153 19.9603 20.1705 19.732 20.4783C19.6512 20.4792 19.6725 20.4425 19.6979 20.3499C19.411 20.5333 19.5831 20.5278 19.3978 20.7008C19.4151 20.8288 19.4637 21.0145 19.4001 21.0703L19.4995 21.0313C19.322 21.2456 19.1023 21.4599 18.8199 21.6174L18.7985 21.5688L18.5325 21.7808L18.4771 21.7377L18.0894 22.0269L18.1539 22.0051C18.0672 22.0796 17.7457 22.2739 17.5451 22.3506L17.5342 22.3143C17.2509 22.4205 16.998 22.5204 16.7506 22.6684C16.5049 22.8219 16.228 22.9431 15.8989 23.0752L15.9615 22.9717C15.7114 22.9789 15.9393 23.1111 15.6528 23.161L15.6115 23.0756C15.4031 23.2595 15.2891 23.1365 15.1121 23.1374L15.2215 23.2341L14.8992 23.2963C14.5369 23.3285 14.6504 23.1878 14.6871 23.1165L14.4692 23.2563L14.402 23.1596C14.2513 23.3144 14.2268 23.1782 13.9326 23.294C13.9013 23.2568 13.9753 23.2246 13.8686 23.2191L13.3792 23.4293L13.6793 23.3263L13.6611 23.4874C13.3492 23.6395 13.2216 23.5333 12.9924 23.58L13.149 23.5269C12.7722 23.5805 12.7477 23.5147 12.5343 23.4888C12.6006 23.5151 12.7041 23.5542 12.5511 23.5814C12.4385 23.595 12.4884 23.5287 12.3822 23.516C12.359 23.6291 12.0835 23.674 11.836 23.6168C11.8397 23.6018 11.8451 23.5878 11.8619 23.5787C11.7984 23.5937 11.7643 23.62 11.6553 23.5914L11.7248 23.4765L11.5087 23.5814C11.3698 23.5483 11.1587 23.6009 11.1836 23.5278L11.2649 23.5128C10.9131 23.4629 10.5589 23.4325 10.2139 23.3485L10.2153 23.2541C10.0895 23.3598 9.65866 23.1092 9.66093 23.265C9.48796 23.1297 8.88005 23.1288 9.04258 22.9835C8.71116 22.8872 8.45283 22.8241 8.16908 22.7669C7.89124 22.6975 7.60204 22.5903 7.23476 22.3824C7.13533 22.243 6.90198 22.0914 6.63412 21.9425C6.37443 21.7799 6.09068 21.6011 5.86822 21.4553C4.99519 20.8983 4.42632 20.4892 3.70492 19.6997C3.58461 19.3842 3.339 19.0805 3.10474 18.7545C2.86911 18.4308 2.64801 18.084 2.57401 17.7462L2.42419 17.605C2.38379 17.1383 2.02195 16.5095 2.03239 15.8299C1.96747 15.6782 1.94023 15.5965 1.93161 15.5593C1.93206 15.5897 1.92389 15.6374 1.87349 15.661C1.87713 15.468 1.77633 15.0921 1.88756 15.1048L1.90573 15.1511C2.01332 15.1666 1.78133 14.5836 1.85896 14.3585L1.75455 14.4865L1.74183 14.1201L1.7718 14.2159C1.58157 13.4328 1.59383 12.8471 1.62652 12.2841C1.66828 11.7198 1.72095 11.1773 1.6869 10.4273C1.78587 10.637 1.65966 10.129 1.79904 10.1277C1.90709 9.95469 1.92616 9.78581 1.91889 9.61919C1.91072 9.45212 1.87168 9.28595 1.88439 9.13296C1.87758 9.13159 1.87077 9.12615 1.86396 9.10708C1.90981 8.93456 1.94432 8.75932 1.9988 8.58998C2.08733 8.94001 1.95657 8.18365 2.02604 8.50281C2.26121 7.84724 2.51454 7.09769 2.86276 6.36177C3.20961 5.62584 3.65089 4.90307 4.1857 4.34375L4.10716 4.36599C4.17163 4.29108 4.24019 4.21164 4.30965 4.13083C4.38274 4.05274 4.45674 3.9742 4.52893 3.89747C4.67012 3.74039 4.82766 3.61644 4.96295 3.54381C5.03105 3.50749 5.09098 3.4571 5.1441 3.40035C5.2004 3.34723 5.25079 3.28821 5.29528 3.22964C5.38426 3.11342 5.45055 3.00174 5.49549 2.96269C5.72839 2.71027 6.06662 2.67395 5.94223 2.74614C6.22688 2.54275 6.44662 2.23267 6.92876 2.08739C7.03318 2.11372 7.33055 1.96208 7.61794 1.8218C7.9094 1.69468 8.19133 1.58118 8.21903 1.66835L8.22084 1.65337C8.38156 1.65019 8.53274 1.62204 8.68301 1.59389C8.83465 1.57392 8.98447 1.54304 9.13656 1.51126C9.44028 1.46809 9.7599 1.42292 10.0895 1.50218C10.0895 1.50218 10.0763 1.51399 10.0532 1.52398C10.5122 1.36771 11.0002 1.29657 11.52 1.2578C11.4379 1.0471 11.3439 0.832629 11.2368 0.615755C10.82 0.363968 10.361 0.162712 9.87431 0C8.54681 0.0160261 7.26427 0.370417 6.13518 0.957025C5.19358 1.34519 4.30965 1.88127 3.52105 2.54638C3.0775 2.98948 2.65619 3.45664 2.29843 3.97647C1.94295 4.48857 1.62742 5.01839 1.36637 5.57499C0.826571 6.68047 0.483349 7.85541 0.260436 9.03353L0.296758 9.55926C0.0788385 10.2344 0.00846831 11.0384 0.00120433 11.846C-0.00832963 12.6555 0.042516 13.4695 0.021632 14.2191L0.131956 14.2413C0.172816 14.6576 0.106985 14.6368 0.0969973 14.7421C0.204141 15.7191 0.388919 16.7201 0.728056 17.6958C1.06129 18.6732 1.57658 19.608 2.19538 20.4048C2.81599 21.2061 3.52196 21.9057 4.28377 22.4932C4.47536 22.6398 4.66603 22.786 4.85535 22.9308C5.0542 23.0611 5.25215 23.1905 5.44873 23.319C5.64168 23.4543 5.84643 23.5646 6.04891 23.6767C6.25231 23.7857 6.44707 23.9101 6.65273 24.0063C6.79847 24.108 7.12262 24.2547 7.43815 24.3963C7.7623 24.5153 8.07783 24.6306 8.19814 24.7105C9.36855 24.9352 10.5907 25.1386 11.767 25.1904L11.7221 25.2008L12.276 25.1967C12.2991 25.2063 12.3023 25.219 12.2846 25.2267C12.5965 25.1645 12.9969 25.159 13.4164 25.1391C13.8341 25.1036 14.2763 25.1023 14.6567 25.0351L14.6145 25.0555C16.8346 24.686 18.8576 23.6368 20.4733 22.2026C22.0669 20.7389 23.3058 18.9393 24.1367 16.8827C24.5743 15.9447 24.8558 14.8401 24.9493 13.6806C25.0492 12.5207 24.9938 11.318 24.8499 10.1222C24.8785 9.89613 24.6097 8.57091 24.0454 7.3651C23.7753 6.7581 23.4348 6.1897 23.151 5.75341C22.8496 5.32847 22.6308 5.01566 22.5472 4.94575Z" fill="#1E2126" fill-opacity="0.2"/>
<path fill-rule="evenodd" clip-rule="evenodd" d="M22.7197 7.979L22.7088 7.95312L22.6943 8.07434L22.7197 7.979Z" fill="#121212"/>
<path fill-rule="evenodd" clip-rule="evenodd" d="M22.7197 7.979L22.7088 7.95312L22.6943 8.07434L22.7197 7.979Z" fill="#1E2126" fill-opacity="0.2"/>
<path fill-rule="evenodd" clip-rule="evenodd" d="M19.2217 3.55225C19.4106 3.72524 19.4269 3.72433 19.4106 3.68755C19.3406 3.62671 19.2757 3.57767 19.2217 3.55225Z" fill="#121212"/>
<path fill-rule="evenodd" clip-rule="evenodd" d="M19.2217 3.55225C19.4106 3.72524 19.4269 3.72433 19.4106 3.68755C19.3406 3.62671 19.2757 3.57767 19.2217 3.55225Z" fill="#1E2126" fill-opacity="0.2"/>
<path fill-rule="evenodd" clip-rule="evenodd" d="M7.39941 7.46101C7.40634 7.44754 7.41018 7.43561 7.41326 7.42676L7.39941 7.46101Z" fill="#121212"/>
<path fill-rule="evenodd" clip-rule="evenodd" d="M7.39941 7.46101C7.40634 7.44754 7.41018 7.43561 7.41326 7.42676L7.39941 7.46101Z" fill="#1E2126" fill-opacity="0.2"/>
<path fill-rule="evenodd" clip-rule="evenodd" d="M4.80762 8.46289C4.81956 8.46558 4.8211 8.47826 4.8211 8.4821C4.84035 8.49055 4.84613 8.48632 4.84459 8.47518C4.8288 8.45982 4.82187 8.47211 4.80762 8.46289Z" fill="#121212"/>
<path fill-rule="evenodd" clip-rule="evenodd" d="M4.80762 8.46289C4.81956 8.46558 4.8211 8.47826 4.8211 8.4821C4.84035 8.49055 4.84613 8.48632 4.84459 8.47518C4.8288 8.45982 4.82187 8.47211 4.80762 8.46289Z" fill="#1E2126" fill-opacity="0.2"/>
<path fill-rule="evenodd" clip-rule="evenodd" d="M4.38446 9.32703L4.35352 9.3125C4.36619 9.31921 4.37588 9.32368 4.38446 9.32703Z" fill="#121212"/>
<path fill-rule="evenodd" clip-rule="evenodd" d="M4.38446 9.32703L4.35352 9.3125C4.36619 9.31921 4.37588 9.32368 4.38446 9.32703Z" fill="#1E2126" fill-opacity="0.2"/>
<path fill-rule="evenodd" clip-rule="evenodd" d="M7.41602 7.42175L7.42038 7.41113C7.41945 7.41363 7.41789 7.41738 7.41602 7.42175Z" fill="#121212"/>
<path fill-rule="evenodd" clip-rule="evenodd" d="M7.41602 7.42175L7.42038 7.41113C7.41945 7.41363 7.41789 7.41738 7.41602 7.42175Z" fill="#1E2126" fill-opacity="0.2"/>
<path fill-rule="evenodd" clip-rule="evenodd" d="M8.00537 7.81982C8.00159 7.82875 7.99884 7.83561 7.99609 7.84179C7.99678 7.84247 8.00537 7.81982 8.00537 7.81982Z" fill="#121212"/>
<path fill-rule="evenodd" clip-rule="evenodd" d="M8.00537 7.81982C8.00159 7.82875 7.99884 7.83561 7.99609 7.84179C7.99678 7.84247 8.00537 7.81982 8.00537 7.81982Z" fill="#1E2126" fill-opacity="0.2"/>
<path fill-rule="evenodd" clip-rule="evenodd" d="M8.63796 9.25006L8.64828 9.24316L8.62695 9.25144C8.6297 9.25213 8.63349 9.25144 8.63796 9.25006Z" fill="#121212"/>
<path fill-rule="evenodd" clip-rule="evenodd" d="M8.63796 9.25006L8.64828 9.24316L8.62695 9.25144C8.6297 9.25213 8.63349 9.25144 8.63796 9.25006Z" fill="#1E2126" fill-opacity="0.2"/>
<path fill-rule="evenodd" clip-rule="evenodd" d="M8.28625 8.18899L8.29511 8.17887C8.2968 8.16453 8.28414 8.15146 8.26473 8.13965L8.2373 8.17845L8.28625 8.18899Z" fill="#121212"/>
<path fill-rule="evenodd" clip-rule="evenodd" d="M8.28625 8.18899L8.29511 8.17887C8.2968 8.16453 8.28414 8.15146 8.26473 8.13965L8.2373 8.17845L8.28625 8.18899Z" fill="#1E2126" fill-opacity="0.2"/>
<path fill-rule="evenodd" clip-rule="evenodd" d="M7.81135 9.32813L7.86401 9.23688C7.96116 9.26321 7.90805 9.36264 8.01882 9.36309L7.9993 9.37353C7.98341 9.39305 8.17681 9.26639 8.01519 9.52063C8.00974 9.5288 8.027 9.51745 8.00838 9.53879L8.05015 9.48794C8.07739 9.48295 8.1237 9.46478 8.13822 9.47477C8.13051 9.48385 8.11326 9.49611 8.10009 9.50519L8.1355 9.5288L8.0851 9.57238C8.12233 9.5633 8.23992 9.48976 8.18771 9.55695C8.26625 9.49884 8.24582 9.54378 8.28714 9.51654C8.27806 9.52426 8.26398 9.53561 8.25081 9.5465C8.26988 9.55876 8.31211 9.57965 8.36159 9.56739C8.36159 9.56739 8.39791 9.52698 8.44285 9.47614C8.4878 9.42483 8.54092 9.36128 8.57951 9.32359C8.57315 9.36809 8.59403 9.32632 8.619 9.30407L8.59721 9.31361C8.6072 9.28319 8.66032 9.25186 8.66894 9.2337C8.66486 9.23643 8.65986 9.2396 8.65487 9.24278C8.65396 9.24641 8.64715 9.24959 8.64125 9.25186C8.6299 9.25867 8.62082 9.26276 8.62037 9.25595C8.61401 9.2505 8.61356 9.23188 8.61356 9.22371L8.65669 9.19693C8.56634 9.23643 8.72025 9.01896 8.70526 8.99445C8.74249 8.93724 8.65941 8.95994 8.66622 8.91636C8.64942 8.86688 8.71026 8.85099 8.72887 8.80286C8.73387 8.75701 8.68665 8.84553 8.67621 8.83736L8.70617 8.76246C8.72615 8.77562 8.74159 8.74702 8.75384 8.73113C8.73841 8.70026 8.77155 8.59674 8.68847 8.65622C8.69346 8.58903 8.72297 8.56043 8.71298 8.54181C8.7039 8.55952 8.70073 8.58131 8.68574 8.59538C8.70572 8.55044 8.67167 8.59629 8.6694 8.60855C8.62173 8.61854 8.69392 8.37202 8.61129 8.44647L8.62536 8.43149C8.56362 8.48733 8.5155 8.55316 8.4701 8.57314L8.48644 8.53727L8.4483 8.54998C8.45693 8.52138 8.47645 8.50913 8.48326 8.50186C8.43423 8.50867 8.43059 8.44693 8.40789 8.41288L8.29167 8.61127C8.30393 8.55316 8.32663 8.43376 8.27624 8.48688L8.30893 8.41469C8.34525 8.26079 8.23447 8.43875 8.24083 8.38881L8.26353 8.30301L8.28895 8.32344C8.28759 8.27032 8.29258 8.24036 8.30121 8.17998C8.29939 8.18542 8.29803 8.18951 8.2953 8.1936C8.26307 8.22402 8.23311 8.23718 8.21585 8.22175C8.19361 8.1936 8.13959 8.23219 8.1405 8.12958L8.0851 8.19496L8.07739 8.13095L8.11144 8.07283C8.14322 8.0969 8.2213 8.1146 8.26716 8.13957L8.28532 8.1146C8.25853 8.09781 8.21268 8.10461 8.19906 8.08827C8.1977 8.07147 8.21223 7.99792 8.25218 7.96932L8.20088 8.01518C8.10735 7.96524 8.10599 7.97205 8.04198 7.85128L8.03517 7.88624C8.00656 7.89351 7.97887 7.90123 7.99749 7.84902C7.94255 7.80907 7.89533 7.74414 7.88625 7.64653L7.84676 7.71599C7.83541 7.70646 7.85902 7.5857 7.8118 7.68694L7.76958 7.70918C7.75324 7.69693 7.72645 7.73551 7.72055 7.68512C7.68741 7.63291 7.69467 7.74823 7.66153 7.6883C7.66425 7.62928 7.61295 7.77773 7.59616 7.75322L7.60705 7.63609C7.58208 7.56118 7.54122 7.66878 7.47902 7.65198C7.45995 7.60476 7.46767 7.50625 7.51035 7.42816C7.45542 7.52169 7.47993 7.49036 7.42999 7.5294C7.43453 7.48582 7.44043 7.4781 7.45814 7.44269C7.43499 7.38458 7.42772 7.47538 7.4023 7.46721C7.37687 7.54484 7.34101 7.66923 7.33238 7.67287L7.33647 7.6992C7.30151 7.73642 7.27109 7.75141 7.24885 7.70555L7.25747 7.6656L7.22206 7.68013L7.22887 7.62837L7.18029 7.63564L7.18438 7.65062C7.17257 7.65562 7.13489 7.66968 7.1181 7.64017L7.12264 7.61157C7.07406 7.51578 7.01231 7.6252 6.94512 7.63155L6.95783 7.57298C6.93786 7.51306 6.94603 7.66333 6.92016 7.63291L6.92242 7.56027C6.89291 7.6547 6.89155 7.53894 6.87476 7.50216L6.87975 7.5975L6.84797 7.57662C6.81346 7.54393 6.82799 7.45586 6.8348 7.40592L6.80847 7.48037L6.80393 7.39592C6.78486 7.49399 6.78532 7.37868 6.75217 7.4327C6.74945 7.40092 6.75762 7.38231 6.74582 7.36914L6.69452 7.48991L6.72539 7.43588L6.72448 7.55891C6.69497 7.65334 6.67999 7.54756 6.6582 7.58252L6.67272 7.54529C6.63595 7.57707 6.63141 7.52486 6.60781 7.49898C6.61598 7.52123 6.62824 7.55482 6.61416 7.57162C6.60327 7.57888 6.60508 7.52895 6.59328 7.51578C6.59645 7.59795 6.57376 7.64108 6.54606 7.60613C6.54561 7.59432 6.5447 7.58297 6.54561 7.57571C6.54062 7.58933 6.53971 7.61067 6.52699 7.59251L6.52427 7.50125L6.51201 7.59024C6.49567 7.56708 6.48296 7.63518 6.47751 7.57389L6.48341 7.55482L6.374 7.54711L6.36083 7.47583C6.36628 7.57525 6.295 7.44723 6.32042 7.57026C6.28819 7.50761 6.25232 7.63382 6.23553 7.49353C6.16107 7.49898 6.15608 7.63563 6.05756 7.59478C5.99537 7.48899 5.92137 7.54938 5.86507 7.55664C5.77881 7.64335 5.72933 7.70737 5.64942 7.78954C5.51595 7.66605 5.53047 7.91121 5.42742 7.86309L5.44376 7.92982C5.34888 7.86127 5.3575 8.00837 5.24854 7.95843C5.25126 7.99111 5.24945 8.00338 5.24809 8.00746C5.25217 8.00837 5.26307 8.01654 5.28758 8.05059C5.2558 8.03606 5.24627 8.08691 5.20042 8.01654C5.15275 7.93664 5.17545 8.07057 5.11688 8.02517L5.17908 8.09099L5.14276 8.09962L5.13958 8.0801C5.14548 8.32526 4.91213 8.15319 4.93029 8.38337C4.8749 8.29983 4.94664 8.43921 4.87082 8.3643C4.75051 8.29393 4.84494 8.4324 4.85175 8.47689C4.85583 8.48052 4.85992 8.48506 4.86492 8.49187L4.82133 8.51866C4.74188 8.40562 4.87944 8.62035 4.81316 8.52275C4.64836 8.55271 4.62112 8.75338 4.50081 8.85326L4.5335 8.86642C4.50762 8.89593 4.51897 8.95858 4.45587 8.95495C4.39231 8.95223 4.49899 9.05392 4.49945 9.06572C4.53758 9.12202 4.41954 9.09069 4.43089 9.08161C4.42953 9.12065 4.52669 9.20374 4.45813 9.22054C4.34418 9.18603 4.51125 9.3808 4.39185 9.32995C4.29379 9.35628 4.41682 9.46251 4.32103 9.49565C4.32103 9.49565 4.31286 9.49112 4.30469 9.48658C4.41546 9.57011 4.52896 9.64729 4.64382 9.7172C4.78638 9.74581 4.92802 9.77668 5.06921 9.80937C5.18952 9.81845 5.30801 9.83252 5.42469 9.85159C5.41834 9.79257 5.41561 9.73083 5.41924 9.66772C5.48099 9.64638 5.54092 9.62868 5.60402 9.61687C5.64397 9.51926 5.69845 9.42347 5.76564 9.33403L5.71298 9.24777C5.87732 9.32359 5.8115 9.12066 5.94679 9.17151L5.8973 9.10341C5.91092 9.08616 5.94043 9.12928 5.95314 9.13791C6.08616 9.01487 6.23553 8.82283 6.42938 8.87868C6.45889 8.92635 6.49658 8.88594 6.52064 8.94087C6.54788 8.82692 6.6078 8.82238 6.66001 8.82556C6.66637 8.82829 6.67454 8.82238 6.68226 8.81693C6.68362 8.82374 6.68453 8.83373 6.68453 8.84009C6.70723 8.76563 6.75717 8.83509 6.78895 8.86596C6.88247 8.88503 6.98008 8.85779 7.08314 8.85734C7.18438 8.85689 7.29152 8.87822 7.36326 8.97538C7.39004 9.13291 7.57572 9.02259 7.60569 9.18104C7.57572 9.25776 7.77185 9.33676 7.81135 9.32813Z" fill="#121212"/>
<path fill-rule="evenodd" clip-rule="evenodd" d="M7.81135 9.32813L7.86401 9.23688C7.96116 9.26321 7.90805 9.36264 8.01882 9.36309L7.9993 9.37353C7.98341 9.39305 8.17681 9.26639 8.01519 9.52063C8.00974 9.5288 8.027 9.51745 8.00838 9.53879L8.05015 9.48794C8.07739 9.48295 8.1237 9.46478 8.13822 9.47477C8.13051 9.48385 8.11326 9.49611 8.10009 9.50519L8.1355 9.5288L8.0851 9.57238C8.12233 9.5633 8.23992 9.48976 8.18771 9.55695C8.26625 9.49884 8.24582 9.54378 8.28714 9.51654C8.27806 9.52426 8.26398 9.53561 8.25081 9.5465C8.26988 9.55876 8.31211 9.57965 8.36159 9.56739C8.36159 9.56739 8.39791 9.52698 8.44285 9.47614C8.4878 9.42483 8.54092 9.36128 8.57951 9.32359C8.57315 9.36809 8.59403 9.32632 8.619 9.30407L8.59721 9.31361C8.6072 9.28319 8.66032 9.25186 8.66894 9.2337C8.66486 9.23643 8.65986 9.2396 8.65487 9.24278C8.65396 9.24641 8.64715 9.24959 8.64125 9.25186C8.6299 9.25867 8.62082 9.26276 8.62037 9.25595C8.61401 9.2505 8.61356 9.23188 8.61356 9.22371L8.65669 9.19693C8.56634 9.23643 8.72025 9.01896 8.70526 8.99445C8.74249 8.93724 8.65941 8.95994 8.66622 8.91636C8.64942 8.86688 8.71026 8.85099 8.72887 8.80286C8.73387 8.75701 8.68665 8.84553 8.67621 8.83736L8.70617 8.76246C8.72615 8.77562 8.74159 8.74702 8.75384 8.73113C8.73841 8.70026 8.77155 8.59674 8.68847 8.65622C8.69346 8.58903 8.72297 8.56043 8.71298 8.54181C8.7039 8.55952 8.70073 8.58131 8.68574 8.59538C8.70572 8.55044 8.67167 8.59629 8.6694 8.60855C8.62173 8.61854 8.69392 8.37202 8.61129 8.44647L8.62536 8.43149C8.56362 8.48733 8.5155 8.55316 8.4701 8.57314L8.48644 8.53727L8.4483 8.54998C8.45693 8.52138 8.47645 8.50913 8.48326 8.50186C8.43423 8.50867 8.43059 8.44693 8.40789 8.41288L8.29167 8.61127C8.30393 8.55316 8.32663 8.43376 8.27624 8.48688L8.30893 8.41469C8.34525 8.26079 8.23447 8.43875 8.24083 8.38881L8.26353 8.30301L8.28895 8.32344C8.28759 8.27032 8.29258 8.24036 8.30121 8.17998C8.29939 8.18542 8.29803 8.18951 8.2953 8.1936C8.26307 8.22402 8.23311 8.23718 8.21585 8.22175C8.19361 8.1936 8.13959 8.23219 8.1405 8.12958L8.0851 8.19496L8.07739 8.13095L8.11144 8.07283C8.14322 8.0969 8.2213 8.1146 8.26716 8.13957L8.28532 8.1146C8.25853 8.09781 8.21268 8.10461 8.19906 8.08827C8.1977 8.07147 8.21223 7.99792 8.25218 7.96932L8.20088 8.01518C8.10735 7.96524 8.10599 7.97205 8.04198 7.85128L8.03517 7.88624C8.00656 7.89351 7.97887 7.90123 7.99749 7.84902C7.94255 7.80907 7.89533 7.74414 7.88625 7.64653L7.84676 7.71599C7.83541 7.70646 7.85902 7.5857 7.8118 7.68694L7.76958 7.70918C7.75324 7.69693 7.72645 7.73551 7.72055 7.68512C7.68741 7.63291 7.69467 7.74823 7.66153 7.6883C7.66425 7.62928 7.61295 7.77773 7.59616 7.75322L7.60705 7.63609C7.58208 7.56118 7.54122 7.66878 7.47902 7.65198C7.45995 7.60476 7.46767 7.50625 7.51035 7.42816C7.45542 7.52169 7.47993 7.49036 7.42999 7.5294C7.43453 7.48582 7.44043 7.4781 7.45814 7.44269C7.43499 7.38458 7.42772 7.47538 7.4023 7.46721C7.37687 7.54484 7.34101 7.66923 7.33238 7.67287L7.33647 7.6992C7.30151 7.73642 7.27109 7.75141 7.24885 7.70555L7.25747 7.6656L7.22206 7.68013L7.22887 7.62837L7.18029 7.63564L7.18438 7.65062C7.17257 7.65562 7.13489 7.66968 7.1181 7.64017L7.12264 7.61157C7.07406 7.51578 7.01231 7.6252 6.94512 7.63155L6.95783 7.57298C6.93786 7.51306 6.94603 7.66333 6.92016 7.63291L6.92242 7.56027C6.89291 7.6547 6.89155 7.53894 6.87476 7.50216L6.87975 7.5975L6.84797 7.57662C6.81346 7.54393 6.82799 7.45586 6.8348 7.40592L6.80847 7.48037L6.80393 7.39592C6.78486 7.49399 6.78532 7.37868 6.75217 7.4327C6.74945 7.40092 6.75762 7.38231 6.74582 7.36914L6.69452 7.48991L6.72539 7.43588L6.72448 7.55891C6.69497 7.65334 6.67999 7.54756 6.6582 7.58252L6.67272 7.54529C6.63595 7.57707 6.63141 7.52486 6.60781 7.49898C6.61598 7.52123 6.62824 7.55482 6.61416 7.57162C6.60327 7.57888 6.60508 7.52895 6.59328 7.51578C6.59645 7.59795 6.57376 7.64108 6.54606 7.60613C6.54561 7.59432 6.5447 7.58297 6.54561 7.57571C6.54062 7.58933 6.53971 7.61067 6.52699 7.59251L6.52427 7.50125L6.51201 7.59024C6.49567 7.56708 6.48296 7.63518 6.47751 7.57389L6.48341 7.55482L6.374 7.54711L6.36083 7.47583C6.36628 7.57525 6.295 7.44723 6.32042 7.57026C6.28819 7.50761 6.25232 7.63382 6.23553 7.49353C6.16107 7.49898 6.15608 7.63563 6.05756 7.59478C5.99537 7.48899 5.92137 7.54938 5.86507 7.55664C5.77881 7.64335 5.72933 7.70737 5.64942 7.78954C5.51595 7.66605 5.53047 7.91121 5.42742 7.86309L5.44376 7.92982C5.34888 7.86127 5.3575 8.00837 5.24854 7.95843C5.25126 7.99111 5.24945 8.00338 5.24809 8.00746C5.25217 8.00837 5.26307 8.01654 5.28758 8.05059C5.2558 8.03606 5.24627 8.08691 5.20042 8.01654C5.15275 7.93664 5.17545 8.07057 5.11688 8.02517L5.17908 8.09099L5.14276 8.09962L5.13958 8.0801C5.14548 8.32526 4.91213 8.15319 4.93029 8.38337C4.8749 8.29983 4.94664 8.43921 4.87082 8.3643C4.75051 8.29393 4.84494 8.4324 4.85175 8.47689C4.85583 8.48052 4.85992 8.48506 4.86492 8.49187L4.82133 8.51866C4.74188 8.40562 4.87944 8.62035 4.81316 8.52275C4.64836 8.55271 4.62112 8.75338 4.50081 8.85326L4.5335 8.86642C4.50762 8.89593 4.51897 8.95858 4.45587 8.95495C4.39231 8.95223 4.49899 9.05392 4.49945 9.06572C4.53758 9.12202 4.41954 9.09069 4.43089 9.08161C4.42953 9.12065 4.52669 9.20374 4.45813 9.22054C4.34418 9.18603 4.51125 9.3808 4.39185 9.32995C4.29379 9.35628 4.41682 9.46251 4.32103 9.49565C4.32103 9.49565 4.31286 9.49112 4.30469 9.48658C4.41546 9.57011 4.52896 9.64729 4.64382 9.7172C4.78638 9.74581 4.92802 9.77668 5.06921 9.80937C5.18952 9.81845 5.30801 9.83252 5.42469 9.85159C5.41834 9.79257 5.41561 9.73083 5.41924 9.66772C5.48099 9.64638 5.54092 9.62868 5.60402 9.61687C5.64397 9.51926 5.69845 9.42347 5.76564 9.33403L5.71298 9.24777C5.87732 9.32359 5.8115 9.12066 5.94679 9.17151L5.8973 9.10341C5.91092 9.08616 5.94043 9.12928 5.95314 9.13791C6.08616 9.01487 6.23553 8.82283 6.42938 8.87868C6.45889 8.92635 6.49658 8.88594 6.52064 8.94087C6.54788 8.82692 6.6078 8.82238 6.66001 8.82556C6.66637 8.82829 6.67454 8.82238 6.68226 8.81693C6.68362 8.82374 6.68453 8.83373 6.68453 8.84009C6.70723 8.76563 6.75717 8.83509 6.78895 8.86596C6.88247 8.88503 6.98008 8.85779 7.08314 8.85734C7.18438 8.85689 7.29152 8.87822 7.36326 8.97538C7.39004 9.13291 7.57572 9.02259 7.60569 9.18104C7.57572 9.25776 7.77185 9.33676 7.81135 9.32813Z" fill="#1E2126" fill-opacity="0.2"/>
<path fill-rule="evenodd" clip-rule="evenodd" d="M8.40625 8.40398C8.4074 8.4059 8.42857 8.36816 8.42857 8.36816L8.40625 8.40398Z" fill="#121212"/>
<path fill-rule="evenodd" clip-rule="evenodd" d="M8.40625 8.40398C8.4074 8.4059 8.42857 8.36816 8.42857 8.36816L8.40625 8.40398Z" fill="#1E2126" fill-opacity="0.2"/>
<path fill-rule="evenodd" clip-rule="evenodd" d="M8.76823 8.7338C8.76417 8.71688 8.75886 8.72033 8.75293 8.72816C8.75543 8.73348 8.76011 8.73568 8.76823 8.7338Z" fill="#121212"/>
<path fill-rule="evenodd" clip-rule="evenodd" d="M8.76823 8.7338C8.76417 8.71688 8.75886 8.72033 8.75293 8.72816C8.75543 8.73348 8.76011 8.73568 8.76823 8.7338Z" fill="#1E2126" fill-opacity="0.2"/>
<path fill-rule="evenodd" clip-rule="evenodd" d="M8.21484 9.56075C8.21559 9.56709 8.22975 9.55701 8.24541 9.54469C8.23907 9.54021 8.23572 9.5376 8.23572 9.5376C8.23087 9.5432 8.22006 9.55515 8.21484 9.56075Z" fill="#121212"/>
<path fill-rule="evenodd" clip-rule="evenodd" d="M8.21484 9.56075C8.21559 9.56709 8.22975 9.55701 8.24541 9.54469C8.23907 9.54021 8.23572 9.5376 8.23572 9.5376C8.23087 9.5432 8.22006 9.55515 8.21484 9.56075Z" fill="#1E2126" fill-opacity="0.2"/>
<path fill-rule="evenodd" clip-rule="evenodd" d="M8.62012 9.30148L8.6392 9.29322C8.63295 9.2919 8.62637 9.29587 8.62012 9.30148Z" fill="#121212"/>
<path fill-rule="evenodd" clip-rule="evenodd" d="M8.62012 9.30148L8.6392 9.29322C8.63295 9.2919 8.62637 9.29587 8.62012 9.30148Z" fill="#1E2126" fill-opacity="0.2"/>
<path fill-rule="evenodd" clip-rule="evenodd" d="M18.0977 7.4769C18.1034 7.46305 18.1065 7.45113 18.1092 7.44189L18.0977 7.4769Z" fill="#121212"/>
<path fill-rule="evenodd" clip-rule="evenodd" d="M18.0977 7.4769C18.1034 7.46305 18.1065 7.45113 18.1092 7.44189L18.0977 7.4769Z" fill="#1E2126" fill-opacity="0.2"/>
<path fill-rule="evenodd" clip-rule="evenodd" d="M15.4365 8.39404C15.4484 8.39826 15.4481 8.41092 15.4477 8.41475C15.4658 8.4255 15.4719 8.42204 15.4719 8.41054C15.4581 8.39366 15.4496 8.40478 15.4365 8.39404Z" fill="#121212"/>
<path fill-rule="evenodd" clip-rule="evenodd" d="M15.4365 8.39404C15.4484 8.39826 15.4481 8.41092 15.4477 8.41475C15.4658 8.4255 15.4719 8.42204 15.4719 8.41054C15.4581 8.39366 15.4496 8.40478 15.4365 8.39404Z" fill="#1E2126" fill-opacity="0.2"/>
<path fill-rule="evenodd" clip-rule="evenodd" d="M14.8737 9.18768L14.8467 9.16797C14.8576 9.17673 14.866 9.18293 14.8737 9.18768Z" fill="#121212"/>
<path fill-rule="evenodd" clip-rule="evenodd" d="M14.8737 9.18768L14.8467 9.16797C14.8576 9.17673 14.866 9.18293 14.8737 9.18768Z" fill="#1E2126" fill-opacity="0.2"/>
<path fill-rule="evenodd" clip-rule="evenodd" d="M18.1133 7.4364L18.1167 7.42578C18.1161 7.42828 18.1148 7.43203 18.1133 7.4364Z" fill="#121212"/>
<path fill-rule="evenodd" clip-rule="evenodd" d="M18.1133 7.4364L18.1167 7.42578C18.1161 7.42828 18.1148 7.43203 18.1133 7.4364Z" fill="#1E2126" fill-opacity="0.2"/>
<path fill-rule="evenodd" clip-rule="evenodd" d="M18.7328 7.78711C18.7297 7.79638 18.7276 7.8036 18.7256 7.81013C18.7263 7.81047 18.7328 7.78711 18.7328 7.78711Z" fill="#121212"/>
<path fill-rule="evenodd" clip-rule="evenodd" d="M18.7328 7.78711C18.7297 7.79638 18.7276 7.8036 18.7256 7.81013C18.7263 7.81047 18.7328 7.78711 18.7328 7.78711Z" fill="#1E2126" fill-opacity="0.2"/>
<path fill-rule="evenodd" clip-rule="evenodd" d="M19.5991 9.14098L19.6073 9.13281L19.5889 9.14425C19.5915 9.14458 19.5951 9.14327 19.5991 9.14098Z" fill="#121212"/>
<path fill-rule="evenodd" clip-rule="evenodd" d="M19.5991 9.14098L19.6073 9.13281L19.5889 9.14425C19.5915 9.14458 19.5951 9.14327 19.5991 9.14098Z" fill="#1E2126" fill-opacity="0.2"/>
<path fill-rule="evenodd" clip-rule="evenodd" d="M19.0565 8.12591L19.0636 8.11453C19.0636 8.09977 19.0493 8.0888 19.0282 8.0791L19.0059 8.12085L19.0565 8.12591Z" fill="#121212"/>
<path fill-rule="evenodd" clip-rule="evenodd" d="M19.0565 8.12591L19.0636 8.11453C19.0636 8.09977 19.0493 8.0888 19.0282 8.0791L19.0059 8.12085L19.0565 8.12591Z" fill="#1E2126" fill-opacity="0.2"/>
<path fill-rule="evenodd" clip-rule="evenodd" d="M18.7625 9.33379L18.7974 9.23345C18.9073 9.25161 18.876 9.36239 18.9931 9.35149L18.9754 9.36466C18.9654 9.38872 19.1325 9.22846 19.0331 9.52129C19.0303 9.53037 19.0449 9.51629 19.0313 9.54172L19.0603 9.48134C19.088 9.47271 19.1311 9.44774 19.1488 9.45636C19.1434 9.46726 19.1293 9.4827 19.1175 9.49405L19.1616 9.51493L19.1221 9.56896C19.1579 9.55443 19.2578 9.45818 19.2238 9.53809C19.2873 9.46363 19.2796 9.51493 19.3141 9.47906C19.3068 9.48905 19.2955 9.50358 19.285 9.51675C19.3082 9.52719 19.3572 9.54308 19.404 9.52129C19.404 9.52129 19.5011 9.32108 19.5588 9.22846C19.5633 9.27522 19.5742 9.22891 19.5938 9.20122L19.5738 9.21529C19.5765 9.18215 19.6224 9.14084 19.6269 9.12086C19.6233 9.12449 19.6192 9.12858 19.6146 9.13266C19.6146 9.13629 19.6087 9.14083 19.6033 9.14401C19.5938 9.15309 19.5851 9.159 19.5833 9.15219C19.5756 9.14765 19.5711 9.12858 19.5692 9.12041L19.6065 9.0859C19.5243 9.14084 19.6301 8.89477 19.611 8.87343C19.6364 8.80987 19.5579 8.84619 19.5565 8.80125C19.5297 8.75448 19.5874 8.72861 19.5969 8.67776C19.5933 8.63145 19.5629 8.72679 19.5506 8.72043L19.567 8.64144C19.5892 8.65142 19.5992 8.6201 19.6087 8.60239C19.5879 8.57379 19.6024 8.46574 19.5307 8.53792C19.5238 8.46982 19.5484 8.43759 19.5352 8.42034C19.5293 8.43941 19.5297 8.46165 19.517 8.47754C19.5297 8.43033 19.5034 8.48072 19.5034 8.49343C19.4567 8.51068 19.4889 8.25417 19.4185 8.34043L19.4303 8.32364C19.3772 8.3881 19.3395 8.46029 19.2973 8.48662L19.3077 8.44849L19.2714 8.46665C19.276 8.43623 19.2937 8.4217 19.2991 8.41353C19.251 8.42715 19.2378 8.3654 19.2097 8.33453L19.1234 8.54791C19.1257 8.48753 19.1307 8.3654 19.088 8.42488L19.1098 8.34861C19.1243 8.19062 19.0385 8.3813 19.0372 8.3309L19.0481 8.24237L19.0767 8.25962C19.0676 8.2065 19.0685 8.17609 19.0694 8.11525C19.068 8.12115 19.0676 8.12524 19.0653 8.12978C19.0372 8.16383 19.0086 8.18063 18.9886 8.16655C18.9632 8.14113 18.9132 8.18562 18.901 8.08301L18.8533 8.1543L18.8374 8.09073L18.8651 8.02899C18.9001 8.04988 18.9804 8.05941 19.0299 8.07893L19.0449 8.05215C19.0163 8.03853 18.9709 8.04988 18.955 8.03535C18.9518 8.019 18.9573 7.94409 18.994 7.91095L18.9482 7.96226C18.8483 7.92321 18.8474 7.92957 18.7707 7.81561L18.7675 7.85102C18.7393 7.86146 18.7125 7.87145 18.7257 7.81788C18.6662 7.78338 18.6127 7.72254 18.595 7.62629L18.5618 7.69893C18.5496 7.69031 18.5632 7.56818 18.5241 7.67306L18.4842 7.69848C18.4669 7.68758 18.4429 7.72845 18.4333 7.67851C18.3957 7.62902 18.4125 7.74342 18.3743 7.68622C18.372 7.6272 18.3326 7.77929 18.3135 7.75568L18.3158 7.63855C18.2853 7.56546 18.2522 7.67532 18.1891 7.66307C18.1664 7.61721 18.1678 7.51824 18.2054 7.43743C18.1564 7.53458 18.1791 7.5019 18.1319 7.54366C18.1332 7.50008 18.1391 7.49191 18.1541 7.45559C18.1278 7.39884 18.126 7.49009 18.1006 7.48328C18.0797 7.56228 18.0515 7.68849 18.0424 7.69258L18.0484 7.71891C18.0152 7.75796 17.9852 7.7743 17.9607 7.72981L17.9671 7.68986L17.9321 7.70574L17.9362 7.65353L17.8881 7.66352L17.8931 7.67851C17.8813 7.68395 17.8436 7.69939 17.8259 7.67033L17.8291 7.64173C17.7769 7.54775 17.7192 7.65989 17.652 7.66806L17.6629 7.6095C17.6411 7.55002 17.6534 7.70029 17.6266 7.67033L17.627 7.59769C17.6003 7.69303 17.5957 7.57726 17.5785 7.54094L17.5853 7.63583L17.5535 7.61585C17.5181 7.58407 17.5308 7.49554 17.5362 7.4456L17.5117 7.52051L17.5058 7.43652C17.489 7.53413 17.4872 7.41973 17.4554 7.47375C17.4522 7.44197 17.46 7.42336 17.4482 7.41064L17.3991 7.53141L17.4291 7.47738L17.4296 7.60041C17.4014 7.69485 17.3855 7.58906 17.3642 7.62448L17.3778 7.58725C17.3419 7.61903 17.3369 7.56727 17.3133 7.5414C17.3215 7.56364 17.3342 7.59678 17.3201 7.61404C17.3092 7.6213 17.3106 7.57136 17.2993 7.55819C17.3024 7.64037 17.2797 7.68395 17.2525 7.64854C17.2516 7.63719 17.2511 7.62584 17.252 7.61812C17.247 7.63219 17.2457 7.65353 17.2334 7.63492L17.2307 7.54412L17.2184 7.63265C17.2021 7.6095 17.1894 7.67714 17.1844 7.61631L17.1898 7.59724L17.0813 7.58816L17.0695 7.51642C17.0736 7.6163 17.0046 7.48737 17.0282 7.61041C16.9969 7.5473 16.9588 7.6726 16.9451 7.53186C16.8716 7.53504 16.863 7.67215 16.7658 7.6272C16.7077 7.51915 16.6328 7.57635 16.576 7.58089C16.4866 7.66307 16.4339 7.7239 16.3481 7.80063C16.2237 7.66897 16.2205 7.91413 16.1207 7.85829L16.1316 7.92639C16.043 7.85012 16.0385 7.99767 15.9336 7.93819C15.9336 7.97133 15.9304 7.98314 15.9286 7.98722C15.9327 7.98858 15.9427 7.99766 15.964 8.03353C15.9336 8.01628 15.9196 8.06622 15.8801 7.99222C15.8406 7.90777 15.8501 8.04352 15.7961 7.99267L15.8515 8.06395L15.8142 8.0694L15.8133 8.04942C15.792 8.29549 15.5786 8.09845 15.5686 8.32954C15.5246 8.2401 15.5781 8.38765 15.5119 8.30366C15.4011 8.21922 15.4774 8.36813 15.4783 8.41353C15.4819 8.41807 15.4855 8.42306 15.4892 8.43033L15.4419 8.45166C15.3784 8.32863 15.4864 8.56063 15.4333 8.45484C15.2653 8.46347 15.209 8.65869 15.0738 8.7395L15.1037 8.75766C15.0733 8.78263 15.0742 8.84664 15.0125 8.83257C14.9503 8.81986 15.0383 8.9379 15.0361 8.9497C15.0642 9.01236 14.953 8.96105 14.9657 8.95424C14.958 8.99238 15.0379 9.0918 14.9675 9.09634C14.8622 9.04186 14.9884 9.26478 14.8808 9.19259C14.7796 9.19986 14.879 9.32879 14.7777 9.34241C14.7777 9.34241 14.7705 9.33606 14.7637 9.33016C14.8549 9.43503 14.9489 9.53491 15.0456 9.62979L15.4419 9.80867C15.5586 9.8409 15.6735 9.87677 15.7856 9.91581C15.797 9.84816 15.8115 9.77871 15.8319 9.7097C15.9009 9.69381 15.9681 9.68064 16.0371 9.67338C16.1052 9.56941 16.186 9.46999 16.2768 9.37873L16.2378 9.28476C16.4003 9.37374 16.3681 9.15718 16.5061 9.21666L16.4639 9.14401C16.4816 9.12676 16.5066 9.17262 16.5188 9.18215C16.6891 9.05821 16.8739 8.86753 17.0918 8.92382C17.1222 8.97195 17.1694 8.93063 17.1944 8.98557C17.2339 8.87116 17.3033 8.86571 17.3651 8.86844C17.3728 8.87071 17.3819 8.86481 17.3914 8.85936C17.3932 8.86617 17.3941 8.87616 17.3937 8.88251C17.4209 8.80715 17.479 8.87615 17.5181 8.90612C17.7351 8.92836 17.9966 8.80714 18.1954 8.99737C18.2513 9.15718 18.4402 9.03369 18.5033 9.19486C18.4856 9.27613 18.7221 9.34695 18.7625 9.33379Z" fill="#121212"/>
<path fill-rule="evenodd" clip-rule="evenodd" d="M18.7625 9.33379L18.7974 9.23345C18.9073 9.25161 18.876 9.36239 18.9931 9.35149L18.9754 9.36466C18.9654 9.38872 19.1325 9.22846 19.0331 9.52129C19.0303 9.53037 19.0449 9.51629 19.0313 9.54172L19.0603 9.48134C19.088 9.47271 19.1311 9.44774 19.1488 9.45636C19.1434 9.46726 19.1293 9.4827 19.1175 9.49405L19.1616 9.51493L19.1221 9.56896C19.1579 9.55443 19.2578 9.45818 19.2238 9.53809C19.2873 9.46363 19.2796 9.51493 19.3141 9.47906C19.3068 9.48905 19.2955 9.50358 19.285 9.51675C19.3082 9.52719 19.3572 9.54308 19.404 9.52129C19.404 9.52129 19.5011 9.32108 19.5588 9.22846C19.5633 9.27522 19.5742 9.22891 19.5938 9.20122L19.5738 9.21529C19.5765 9.18215 19.6224 9.14084 19.6269 9.12086C19.6233 9.12449 19.6192 9.12858 19.6146 9.13266C19.6146 9.13629 19.6087 9.14083 19.6033 9.14401C19.5938 9.15309 19.5851 9.159 19.5833 9.15219C19.5756 9.14765 19.5711 9.12858 19.5692 9.12041L19.6065 9.0859C19.5243 9.14084 19.6301 8.89477 19.611 8.87343C19.6364 8.80987 19.5579 8.84619 19.5565 8.80125C19.5297 8.75448 19.5874 8.72861 19.5969 8.67776C19.5933 8.63145 19.5629 8.72679 19.5506 8.72043L19.567 8.64144C19.5892 8.65142 19.5992 8.6201 19.6087 8.60239C19.5879 8.57379 19.6024 8.46574 19.5307 8.53792C19.5238 8.46982 19.5484 8.43759 19.5352 8.42034C19.5293 8.43941 19.5297 8.46165 19.517 8.47754C19.5297 8.43033 19.5034 8.48072 19.5034 8.49343C19.4567 8.51068 19.4889 8.25417 19.4185 8.34043L19.4303 8.32364C19.3772 8.3881 19.3395 8.46029 19.2973 8.48662L19.3077 8.44849L19.2714 8.46665C19.276 8.43623 19.2937 8.4217 19.2991 8.41353C19.251 8.42715 19.2378 8.3654 19.2097 8.33453L19.1234 8.54791C19.1257 8.48753 19.1307 8.3654 19.088 8.42488L19.1098 8.34861C19.1243 8.19062 19.0385 8.3813 19.0372 8.3309L19.0481 8.24237L19.0767 8.25962C19.0676 8.2065 19.0685 8.17609 19.0694 8.11525C19.068 8.12115 19.0676 8.12524 19.0653 8.12978C19.0372 8.16383 19.0086 8.18063 18.9886 8.16655C18.9632 8.14113 18.9132 8.18562 18.901 8.08301L18.8533 8.1543L18.8374 8.09073L18.8651 8.02899C18.9001 8.04988 18.9804 8.05941 19.0299 8.07893L19.0449 8.05215C19.0163 8.03853 18.9709 8.04988 18.955 8.03535C18.9518 8.019 18.9573 7.94409 18.994 7.91095L18.9482 7.96226C18.8483 7.92321 18.8474 7.92957 18.7707 7.81561L18.7675 7.85102C18.7393 7.86146 18.7125 7.87145 18.7257 7.81788C18.6662 7.78338 18.6127 7.72254 18.595 7.62629L18.5618 7.69893C18.5496 7.69031 18.5632 7.56818 18.5241 7.67306L18.4842 7.69848C18.4669 7.68758 18.4429 7.72845 18.4333 7.67851C18.3957 7.62902 18.4125 7.74342 18.3743 7.68622C18.372 7.6272 18.3326 7.77929 18.3135 7.75568L18.3158 7.63855C18.2853 7.56546 18.2522 7.67532 18.1891 7.66307C18.1664 7.61721 18.1678 7.51824 18.2054 7.43743C18.1564 7.53458 18.1791 7.5019 18.1319 7.54366C18.1332 7.50008 18.1391 7.49191 18.1541 7.45559C18.1278 7.39884 18.126 7.49009 18.1006 7.48328C18.0797 7.56228 18.0515 7.68849 18.0424 7.69258L18.0484 7.71891C18.0152 7.75796 17.9852 7.7743 17.9607 7.72981L17.9671 7.68986L17.9321 7.70574L17.9362 7.65353L17.8881 7.66352L17.8931 7.67851C17.8813 7.68395 17.8436 7.69939 17.8259 7.67033L17.8291 7.64173C17.7769 7.54775 17.7192 7.65989 17.652 7.66806L17.6629 7.6095C17.6411 7.55002 17.6534 7.70029 17.6266 7.67033L17.627 7.59769C17.6003 7.69303 17.5957 7.57726 17.5785 7.54094L17.5853 7.63583L17.5535 7.61585C17.5181 7.58407 17.5308 7.49554 17.5362 7.4456L17.5117 7.52051L17.5058 7.43652C17.489 7.53413 17.4872 7.41973 17.4554 7.47375C17.4522 7.44197 17.46 7.42336 17.4482 7.41064L17.3991 7.53141L17.4291 7.47738L17.4296 7.60041C17.4014 7.69485 17.3855 7.58906 17.3642 7.62448L17.3778 7.58725C17.3419 7.61903 17.3369 7.56727 17.3133 7.5414C17.3215 7.56364 17.3342 7.59678 17.3201 7.61404C17.3092 7.6213 17.3106 7.57136 17.2993 7.55819C17.3024 7.64037 17.2797 7.68395 17.2525 7.64854C17.2516 7.63719 17.2511 7.62584 17.252 7.61812C17.247 7.63219 17.2457 7.65353 17.2334 7.63492L17.2307 7.54412L17.2184 7.63265C17.2021 7.6095 17.1894 7.67714 17.1844 7.61631L17.1898 7.59724L17.0813 7.58816L17.0695 7.51642C17.0736 7.6163 17.0046 7.48737 17.0282 7.61041C16.9969 7.5473 16.9588 7.6726 16.9451 7.53186C16.8716 7.53504 16.863 7.67215 16.7658 7.6272C16.7077 7.51915 16.6328 7.57635 16.576 7.58089C16.4866 7.66307 16.4339 7.7239 16.3481 7.80063C16.2237 7.66897 16.2205 7.91413 16.1207 7.85829L16.1316 7.92639C16.043 7.85012 16.0385 7.99767 15.9336 7.93819C15.9336 7.97133 15.9304 7.98314 15.9286 7.98722C15.9327 7.98858 15.9427 7.99766 15.964 8.03353C15.9336 8.01628 15.9196 8.06622 15.8801 7.99222C15.8406 7.90777 15.8501 8.04352 15.7961 7.99267L15.8515 8.06395L15.8142 8.0694L15.8133 8.04942C15.792 8.29549 15.5786 8.09845 15.5686 8.32954C15.5246 8.2401 15.5781 8.38765 15.5119 8.30366C15.4011 8.21922 15.4774 8.36813 15.4783 8.41353C15.4819 8.41807 15.4855 8.42306 15.4892 8.43033L15.4419 8.45166C15.3784 8.32863 15.4864 8.56063 15.4333 8.45484C15.2653 8.46347 15.209 8.65869 15.0738 8.7395L15.1037 8.75766C15.0733 8.78263 15.0742 8.84664 15.0125 8.83257C14.9503 8.81986 15.0383 8.9379 15.0361 8.9497C15.0642 9.01236 14.953 8.96105 14.9657 8.95424C14.958 8.99238 15.0379 9.0918 14.9675 9.09634C14.8622 9.04186 14.9884 9.26478 14.8808 9.19259C14.7796 9.19986 14.879 9.32879 14.7777 9.34241C14.7777 9.34241 14.7705 9.33606 14.7637 9.33016C14.8549 9.43503 14.9489 9.53491 15.0456 9.62979L15.4419 9.80867C15.5586 9.8409 15.6735 9.87677 15.7856 9.91581C15.797 9.84816 15.8115 9.77871 15.8319 9.7097C15.9009 9.69381 15.9681 9.68064 16.0371 9.67338C16.1052 9.56941 16.186 9.46999 16.2768 9.37873L16.2378 9.28476C16.4003 9.37374 16.3681 9.15718 16.5061 9.21666L16.4639 9.14401C16.4816 9.12676 16.5066 9.17262 16.5188 9.18215C16.6891 9.05821 16.8739 8.86753 17.0918 8.92382C17.1222 8.97195 17.1694 8.93063 17.1944 8.98557C17.2339 8.87116 17.3033 8.86571 17.3651 8.86844C17.3728 8.87071 17.3819 8.86481 17.3914 8.85936C17.3932 8.86617 17.3941 8.87616 17.3937 8.88251C17.4209 8.80715 17.479 8.87615 17.5181 8.90612C17.7351 8.92836 17.9966 8.80714 18.1954 8.99737C18.2513 9.15718 18.4402 9.03369 18.5033 9.19486C18.4856 9.27613 18.7221 9.34695 18.7625 9.33379Z" fill="#1E2126" fill-opacity="0.2"/>
<path fill-rule="evenodd" clip-rule="evenodd" d="M19.207 8.32562C19.2086 8.32716 19.2239 8.28711 19.2239 8.28711L19.207 8.32562Z" fill="#121212"/>
<path fill-rule="evenodd" clip-rule="evenodd" d="M19.207 8.32562C19.2086 8.32716 19.2239 8.28711 19.2239 8.28711L19.207 8.32562Z" fill="#1E2126" fill-opacity="0.2"/>
<path fill-rule="evenodd" clip-rule="evenodd" d="M19.6237 8.60097C19.6165 8.58509 19.6121 8.58945 19.6074 8.59817C19.6109 8.60284 19.6158 8.60439 19.6237 8.60097Z" fill="#121212"/>
<path fill-rule="evenodd" clip-rule="evenodd" d="M19.6237 8.60097C19.6165 8.58509 19.6121 8.58945 19.6074 8.59817C19.6109 8.60284 19.6158 8.60439 19.6237 8.60097Z" fill="#1E2126" fill-opacity="0.2"/>
<path fill-rule="evenodd" clip-rule="evenodd" d="M19.252 9.53741C19.2546 9.54413 19.2665 9.53106 19.2784 9.51537C19.271 9.51163 19.2669 9.50977 19.2669 9.50977C19.2631 9.51649 19.2557 9.53068 19.252 9.53741Z" fill="#121212"/>
<path fill-rule="evenodd" clip-rule="evenodd" d="M19.252 9.53741C19.2546 9.54413 19.2665 9.53106 19.2784 9.51537C19.271 9.51163 19.2669 9.50977 19.2669 9.50977C19.2631 9.51649 19.2557 9.53068 19.252 9.53741Z" fill="#1E2126" fill-opacity="0.2"/>
<path fill-rule="evenodd" clip-rule="evenodd" d="M19.5928 9.19581L19.609 9.18457C19.6028 9.18457 19.5975 9.18957 19.5928 9.19581Z" fill="#121212"/>
<path fill-rule="evenodd" clip-rule="evenodd" d="M19.5928 9.19581L19.609 9.18457C19.6028 9.18457 19.5975 9.18957 19.5928 9.19581Z" fill="#1E2126" fill-opacity="0.2"/>
<path fill-rule="evenodd" clip-rule="evenodd" d="M13.6837 17.3181C13.6825 17.3023 13.6791 17.2905 13.6768 17.2812L13.6837 17.3181Z" fill="#121212"/>
<path fill-rule="evenodd" clip-rule="evenodd" d="M13.6837 17.3181C13.6825 17.3023 13.6791 17.2905 13.6768 17.2812L13.6837 17.3181Z" fill="#1E2126" fill-opacity="0.2"/>
<path fill-rule="evenodd" clip-rule="evenodd" d="M12.3431 17.9126C12.34 17.9126 12.3387 17.9149 12.3379 17.9183C12.3392 17.916 12.3407 17.9139 12.3431 17.9126Z" fill="#121212"/>
<path fill-rule="evenodd" clip-rule="evenodd" d="M12.3431 17.9126C12.34 17.9126 12.3387 17.9149 12.3379 17.9183C12.3392 17.916 12.3407 17.9139 12.3431 17.9126Z" fill="#1E2126" fill-opacity="0.2"/>
<path fill-rule="evenodd" clip-rule="evenodd" d="M9.05414 16.707C9.05606 16.7232 9.038 16.7194 9.03185 16.7174C9.02878 16.7414 9.03762 16.7522 9.05414 16.7556C9.06913 16.7394 9.04761 16.7232 9.05414 16.707Z" fill="#121212"/>
<path fill-rule="evenodd" clip-rule="evenodd" d="M9.05414 16.707C9.05606 16.7232 9.038 16.7194 9.03185 16.7174C9.02878 16.7414 9.03762 16.7522 9.05414 16.7556C9.06913 16.7394 9.04761 16.7232 9.05414 16.707Z" fill="#1E2126" fill-opacity="0.2"/>
<path fill-rule="evenodd" clip-rule="evenodd" d="M7.45996 15.0025L7.4679 15.0022C7.46563 15.0016 7.4628 15.0022 7.45996 15.0025Z" fill="#121212"/>
<path fill-rule="evenodd" clip-rule="evenodd" d="M7.45996 15.0025L7.4679 15.0022C7.46563 15.0016 7.4628 15.0022 7.45996 15.0025Z" fill="#1E2126" fill-opacity="0.2"/>
<path fill-rule="evenodd" clip-rule="evenodd" d="M12.6012 19.1685C12.5989 19.17 12.5973 19.1711 12.5947 19.1729C12.5984 19.1729 12.6002 19.1708 12.6012 19.1685Z" fill="#121212"/>
<path fill-rule="evenodd" clip-rule="evenodd" d="M12.6012 19.1685C12.5989 19.17 12.5973 19.1711 12.5947 19.1729C12.5984 19.1729 12.6002 19.1708 12.6012 19.1685Z" fill="#1E2126" fill-opacity="0.2"/>
<path fill-rule="evenodd" clip-rule="evenodd" d="M7.66797 15.3147L7.69666 15.2964C7.68362 15.3027 7.67505 15.3087 7.66797 15.3147Z" fill="#121212"/>
<path fill-rule="evenodd" clip-rule="evenodd" d="M7.66797 15.3147L7.69666 15.2964C7.68362 15.3027 7.67505 15.3087 7.66797 15.3147Z" fill="#1E2126" fill-opacity="0.2"/>
<path fill-rule="evenodd" clip-rule="evenodd" d="M13.676 17.2758L13.6738 17.2646C13.6741 17.2671 13.6751 17.2712 13.676 17.2758Z" fill="#121212"/>
<path fill-rule="evenodd" clip-rule="evenodd" d="M13.676 17.2758L13.6738 17.2646C13.6741 17.2671 13.6751 17.2712 13.676 17.2758Z" fill="#1E2126" fill-opacity="0.2"/>
<path fill-rule="evenodd" clip-rule="evenodd" d="M14.8105 16.7637C14.8159 16.7705 14.8212 16.7752 14.8255 16.7793C14.8268 16.7787 14.8105 16.7637 14.8105 16.7637Z" fill="#121212"/>
<path fill-rule="evenodd" clip-rule="evenodd" d="M14.8105 16.7637C14.8159 16.7705 14.8212 16.7752 14.8255 16.7793C14.8268 16.7787 14.8105 16.7637 14.8105 16.7637Z" fill="#1E2126" fill-opacity="0.2"/>
<path fill-rule="evenodd" clip-rule="evenodd" d="M17.5318 14.822L17.5215 14.8154L17.5325 14.8374C17.5342 14.8319 17.5339 14.8268 17.5318 14.822Z" fill="#121212"/>
<path fill-rule="evenodd" clip-rule="evenodd" d="M17.5318 14.822L17.5215 14.8154L17.5325 14.8374C17.5342 14.8319 17.5339 14.8268 17.5318 14.822Z" fill="#1E2126" fill-opacity="0.2"/>
<path fill-rule="evenodd" clip-rule="evenodd" d="M15.5721 16.3267C15.5696 16.323 15.5683 16.3187 15.5649 16.3149C15.546 16.3154 15.5173 16.3386 15.4844 16.3723L15.5147 16.4085L15.5721 16.3267Z" fill="#121212"/>
<path fill-rule="evenodd" clip-rule="evenodd" d="M15.5721 16.3267C15.5696 16.323 15.5683 16.3187 15.5649 16.3149C15.546 16.3154 15.5173 16.3386 15.4844 16.3723L15.5147 16.4085L15.5721 16.3267Z" fill="#1E2126" fill-opacity="0.2"/>
<path fill-rule="evenodd" clip-rule="evenodd" d="M17.1345 16.4111L16.9906 16.4192C17.1731 16.145 17.3474 16.0951 17.4627 15.8304L17.47 15.8563C17.5131 15.8395 17.3528 15.6783 17.8472 15.5126C17.8636 15.5058 17.8472 15.4931 17.8877 15.4863L17.791 15.5063C17.8 15.455 17.7864 15.3932 17.8191 15.3419C17.8359 15.3387 17.855 15.3483 17.8686 15.3578L17.9476 15.2311L18.0275 15.2366C18.0275 15.1789 17.9058 15.1086 18.0416 15.0623C17.9376 15.0377 18.0329 14.9792 17.9853 14.9606C17.9984 14.9633 18.0211 14.9633 18.0407 14.9651C18.0765 14.902 18.1383 14.7794 18.1201 14.7227C18.1201 14.7227 17.7873 14.8162 17.6597 14.8107C17.7428 14.7481 17.667 14.7826 17.6289 14.778L17.6439 14.798C17.588 14.8307 17.5399 14.7926 17.5081 14.8057C17.5122 14.8085 17.5172 14.8116 17.5226 14.8148C17.5285 14.8112 17.5335 14.8171 17.5363 14.8234C17.5472 14.8312 17.5531 14.8398 17.5403 14.8502C17.5285 14.8688 17.494 14.897 17.4791 14.9088L17.4387 14.8775C17.4868 14.9733 17.1363 15.0187 17.0963 15.0623C17.0087 15.0682 17.0246 15.1767 16.952 15.2134C16.8634 15.2947 16.8566 15.2121 16.7849 15.2298C16.7132 15.2665 16.8403 15.2561 16.8239 15.2815L16.7127 15.3042C16.7413 15.2611 16.6995 15.2625 16.6782 15.257C16.6224 15.3101 16.4739 15.3415 16.5361 15.4254C16.4317 15.4713 16.4008 15.445 16.3686 15.4749C16.3922 15.4758 16.424 15.4649 16.4394 15.4781C16.379 15.4795 16.4353 15.4999 16.4539 15.494C16.4462 15.5721 16.1007 15.6152 16.1756 15.6983L16.1602 15.6847C16.2124 15.7514 16.2882 15.7877 16.2932 15.8513L16.246 15.8481L16.2424 15.9049C16.2024 15.908 16.1961 15.8826 16.1883 15.8758C16.1679 15.9539 16.0676 15.9979 15.9995 16.0515L16.2278 16.14C16.1384 16.1587 15.97 16.18 16.0122 16.2417L15.9273 16.2204C15.7207 16.2218 15.9001 16.3371 15.8274 16.3475L15.7171 16.3407L15.7698 16.2903C15.6885 16.3116 15.6494 16.313 15.57 16.3135C15.5764 16.3153 15.5814 16.3162 15.585 16.3194C15.6018 16.3634 15.5941 16.4102 15.555 16.4433C15.4955 16.4851 15.4946 16.5682 15.3503 16.58L15.3857 16.6626L15.2876 16.6821L15.2431 16.6313C15.3085 16.5781 15.4093 16.4551 15.4847 16.377L15.4647 16.3534C15.4188 16.3979 15.3857 16.4687 15.3494 16.4919C15.3253 16.4955 15.2395 16.4783 15.2372 16.4192L15.2522 16.4946C15.0992 16.639 15.0997 16.6453 14.8827 16.7225L14.9185 16.737C14.8976 16.7797 14.8758 16.8219 14.8323 16.7865C14.7228 16.8569 14.5898 16.9064 14.4731 16.8814L14.5045 16.9563C14.48 16.9686 14.3792 16.8923 14.4314 16.9913L14.4046 17.053C14.3705 17.0685 14.3764 17.1179 14.3161 17.1025C14.2194 17.1193 14.3474 17.1638 14.2425 17.1765C14.1871 17.1447 14.2675 17.2814 14.2171 17.2896L14.1181 17.2151C14.0128 17.1997 14.06 17.31 13.952 17.3667C13.8807 17.3586 13.8117 17.285 13.804 17.191C13.8076 17.3077 13.8153 17.2623 13.7776 17.3395C13.7486 17.3059 13.7508 17.2946 13.7467 17.2528C13.6705 17.2364 13.7313 17.3045 13.6886 17.3222C13.7127 17.4008 13.7549 17.5234 13.7436 17.5347L13.7708 17.5497C13.7445 17.6101 13.7023 17.6532 13.6319 17.6414L13.6169 17.6033L13.5683 17.6469L13.5438 17.6005L13.4689 17.65L13.4852 17.6582C13.4689 17.6723 13.4126 17.7177 13.3658 17.7045L13.3568 17.6773C13.2228 17.6305 13.1811 17.7744 13.0599 17.8207L13.058 17.7594C12.9995 17.7168 13.0744 17.8498 13.0158 17.8375L12.9922 17.769C12.9763 17.8748 12.9305 17.7676 12.8914 17.7399L12.9314 17.828L12.8692 17.8235C12.7988 17.8094 12.8011 17.7172 12.7965 17.6668L12.7743 17.7504L12.7457 17.6709C12.7393 17.7731 12.7125 17.6655 12.6721 17.7272C12.6608 17.6972 12.6699 17.6768 12.649 17.6673L12.5872 17.8012L12.629 17.7386L12.649 17.8598C12.6113 17.9628 12.5695 17.863 12.5364 17.9052L12.5573 17.8634C12.4973 17.907 12.4837 17.8548 12.4429 17.8339C12.4579 17.8543 12.4815 17.8852 12.4574 17.9052C12.4388 17.9147 12.4397 17.8643 12.4193 17.8534C12.4283 17.9347 12.3866 17.9851 12.3375 17.9538C12.3366 17.942 12.3362 17.9306 12.338 17.9229C12.3289 17.9379 12.3257 17.9597 12.3039 17.9429L12.3035 17.8512L12.2781 17.942C12.2508 17.9197 12.2222 17.9883 12.2186 17.927L12.2309 17.9079L12.0456 17.9025L12.0388 17.8298C12.0261 17.9302 11.9398 17.7949 11.9503 17.9197C11.9144 17.853 11.815 17.9724 11.835 17.8303C11.7215 17.8144 11.6488 17.9538 11.5113 17.8689C11.4727 17.749 11.3374 17.7649 11.2516 17.7386C11.0732 17.7467 10.9474 17.7694 10.7594 17.7408C10.7118 17.5561 10.478 17.6895 10.4017 17.5565L10.3431 17.6005C10.3195 17.4657 10.1447 17.5297 10.0975 17.3767C10.0585 17.3867 10.0408 17.3867 10.034 17.3854C10.0367 17.3908 10.0371 17.4058 10.0176 17.443C10.0044 17.4003 9.92681 17.3962 9.97584 17.3277C10.0376 17.2555 9.88005 17.3082 9.89049 17.2228L9.8569 17.3095L9.81332 17.26L9.83692 17.2555C9.48962 17.2573 9.56271 16.9513 9.244 16.9173C9.33571 16.8673 9.17 16.9209 9.2381 16.8378C9.2776 16.6921 9.12369 16.7788 9.05832 16.7638C9.05469 16.7679 9.05015 16.772 9.04197 16.7756L8.97887 16.6975C9.11552 16.6403 8.84948 16.7289 8.96888 16.6835C8.8522 16.4351 8.54666 16.2572 8.38004 15.9938L8.36234 16.027C8.31694 15.9634 8.2216 15.9167 8.22569 15.8359C8.23023 15.756 8.07496 15.7918 8.05589 15.7777C7.96782 15.7646 8.02275 15.6434 8.03546 15.6688C7.97871 15.6257 7.83979 15.652 7.82118 15.5412C7.89109 15.4436 7.56648 15.4005 7.66772 15.3179C7.6541 15.1676 7.45798 15.168 7.44209 15.0087C7.44209 15.0087 7.45116 15.005 7.4607 15.0032L6.97855 15.0159L6.67983 15.3392L6.5459 15.7469L7.01941 16.2349C7.09705 16.4047 7.17468 16.5759 7.26049 16.7461C7.56285 17.0789 7.88337 17.4058 8.23658 17.7113L8.37732 17.7054C8.46994 18.0182 8.869 18.0931 9.05014 18.3614L9.10281 18.2956C9.17545 18.3401 9.14186 18.3801 9.15093 18.4046C9.49416 18.618 9.88005 18.7818 10.2673 18.9076C10.6555 19.0347 11.0459 19.1142 11.4155 19.2032C11.4836 19.269 11.7069 19.2445 11.7632 19.3035C12.0111 19.2059 12.2599 19.1891 12.4996 19.1677L12.4919 19.1782L12.6009 19.145C12.6068 19.1514 12.609 19.1609 12.6063 19.1682C12.7203 19.0779 12.9255 19.1092 13.0848 19.1019L13.0785 19.1128C13.5207 19.0102 13.9138 18.8232 14.2829 18.6189C14.6534 18.4128 15.003 18.1912 15.3861 17.9837C15.7938 17.8557 16.024 17.4117 16.4208 17.187C16.5466 17.1938 17.1227 16.4982 17.1345 16.4111Z" fill="#121212"/>
<path fill-rule="evenodd" clip-rule="evenodd" d="M17.1345 16.4111L16.9906 16.4192C17.1731 16.145 17.3474 16.0951 17.4627 15.8304L17.47 15.8563C17.5131 15.8395 17.3528 15.6783 17.8472 15.5126C17.8636 15.5058 17.8472 15.4931 17.8877 15.4863L17.791 15.5063C17.8 15.455 17.7864 15.3932 17.8191 15.3419C17.8359 15.3387 17.855 15.3483 17.8686 15.3578L17.9476 15.2311L18.0275 15.2366C18.0275 15.1789 17.9058 15.1086 18.0416 15.0623C17.9376 15.0377 18.0329 14.9792 17.9853 14.9606C17.9984 14.9633 18.0211 14.9633 18.0407 14.9651C18.0765 14.902 18.1383 14.7794 18.1201 14.7227C18.1201 14.7227 17.7873 14.8162 17.6597 14.8107C17.7428 14.7481 17.667 14.7826 17.6289 14.778L17.6439 14.798C17.588 14.8307 17.5399 14.7926 17.5081 14.8057C17.5122 14.8085 17.5172 14.8116 17.5226 14.8148C17.5285 14.8112 17.5335 14.8171 17.5363 14.8234C17.5472 14.8312 17.5531 14.8398 17.5403 14.8502C17.5285 14.8688 17.494 14.897 17.4791 14.9088L17.4387 14.8775C17.4868 14.9733 17.1363 15.0187 17.0963 15.0623C17.0087 15.0682 17.0246 15.1767 16.952 15.2134C16.8634 15.2947 16.8566 15.2121 16.7849 15.2298C16.7132 15.2665 16.8403 15.2561 16.8239 15.2815L16.7127 15.3042C16.7413 15.2611 16.6995 15.2625 16.6782 15.257C16.6224 15.3101 16.4739 15.3415 16.5361 15.4254C16.4317 15.4713 16.4008 15.445 16.3686 15.4749C16.3922 15.4758 16.424 15.4649 16.4394 15.4781C16.379 15.4795 16.4353 15.4999 16.4539 15.494C16.4462 15.5721 16.1007 15.6152 16.1756 15.6983L16.1602 15.6847C16.2124 15.7514 16.2882 15.7877 16.2932 15.8513L16.246 15.8481L16.2424 15.9049C16.2024 15.908 16.1961 15.8826 16.1883 15.8758C16.1679 15.9539 16.0676 15.9979 15.9995 16.0515L16.2278 16.14C16.1384 16.1587 15.97 16.18 16.0122 16.2417L15.9273 16.2204C15.7207 16.2218 15.9001 16.3371 15.8274 16.3475L15.7171 16.3407L15.7698 16.2903C15.6885 16.3116 15.6494 16.313 15.57 16.3135C15.5764 16.3153 15.5814 16.3162 15.585 16.3194C15.6018 16.3634 15.5941 16.4102 15.555 16.4433C15.4955 16.4851 15.4946 16.5682 15.3503 16.58L15.3857 16.6626L15.2876 16.6821L15.2431 16.6313C15.3085 16.5781 15.4093 16.4551 15.4847 16.377L15.4647 16.3534C15.4188 16.3979 15.3857 16.4687 15.3494 16.4919C15.3253 16.4955 15.2395 16.4783 15.2372 16.4192L15.2522 16.4946C15.0992 16.639 15.0997 16.6453 14.8827 16.7225L14.9185 16.737C14.8976 16.7797 14.8758 16.8219 14.8323 16.7865C14.7228 16.8569 14.5898 16.9064 14.4731 16.8814L14.5045 16.9563C14.48 16.9686 14.3792 16.8923 14.4314 16.9913L14.4046 17.053C14.3705 17.0685 14.3764 17.1179 14.3161 17.1025C14.2194 17.1193 14.3474 17.1638 14.2425 17.1765C14.1871 17.1447 14.2675 17.2814 14.2171 17.2896L14.1181 17.2151C14.0128 17.1997 14.06 17.31 13.952 17.3667C13.8807 17.3586 13.8117 17.285 13.804 17.191C13.8076 17.3077 13.8153 17.2623 13.7776 17.3395C13.7486 17.3059 13.7508 17.2946 13.7467 17.2528C13.6705 17.2364 13.7313 17.3045 13.6886 17.3222C13.7127 17.4008 13.7549 17.5234 13.7436 17.5347L13.7708 17.5497C13.7445 17.6101 13.7023 17.6532 13.6319 17.6414L13.6169 17.6033L13.5683 17.6469L13.5438 17.6005L13.4689 17.65L13.4852 17.6582C13.4689 17.6723 13.4126 17.7177 13.3658 17.7045L13.3568 17.6773C13.2228 17.6305 13.1811 17.7744 13.0599 17.8207L13.058 17.7594C12.9995 17.7168 13.0744 17.8498 13.0158 17.8375L12.9922 17.769C12.9763 17.8748 12.9305 17.7676 12.8914 17.7399L12.9314 17.828L12.8692 17.8235C12.7988 17.8094 12.8011 17.7172 12.7965 17.6668L12.7743 17.7504L12.7457 17.6709C12.7393 17.7731 12.7125 17.6655 12.6721 17.7272C12.6608 17.6972 12.6699 17.6768 12.649 17.6673L12.5872 17.8012L12.629 17.7386L12.649 17.8598C12.6113 17.9628 12.5695 17.863 12.5364 17.9052L12.5573 17.8634C12.4973 17.907 12.4837 17.8548 12.4429 17.8339C12.4579 17.8543 12.4815 17.8852 12.4574 17.9052C12.4388 17.9147 12.4397 17.8643 12.4193 17.8534C12.4283 17.9347 12.3866 17.9851 12.3375 17.9538C12.3366 17.942 12.3362 17.9306 12.338 17.9229C12.3289 17.9379 12.3257 17.9597 12.3039 17.9429L12.3035 17.8512L12.2781 17.942C12.2508 17.9197 12.2222 17.9883 12.2186 17.927L12.2309 17.9079L12.0456 17.9025L12.0388 17.8298C12.0261 17.9302 11.9398 17.7949 11.9503 17.9197C11.9144 17.853 11.815 17.9724 11.835 17.8303C11.7215 17.8144 11.6488 17.9538 11.5113 17.8689C11.4727 17.749 11.3374 17.7649 11.2516 17.7386C11.0732 17.7467 10.9474 17.7694 10.7594 17.7408C10.7118 17.5561 10.478 17.6895 10.4017 17.5565L10.3431 17.6005C10.3195 17.4657 10.1447 17.5297 10.0975 17.3767C10.0585 17.3867 10.0408 17.3867 10.034 17.3854C10.0367 17.3908 10.0371 17.4058 10.0176 17.443C10.0044 17.4003 9.92681 17.3962 9.97584 17.3277C10.0376 17.2555 9.88005 17.3082 9.89049 17.2228L9.8569 17.3095L9.81332 17.26L9.83692 17.2555C9.48962 17.2573 9.56271 16.9513 9.244 16.9173C9.33571 16.8673 9.17 16.9209 9.2381 16.8378C9.2776 16.6921 9.12369 16.7788 9.05832 16.7638C9.05469 16.7679 9.05015 16.772 9.04197 16.7756L8.97887 16.6975C9.11552 16.6403 8.84948 16.7289 8.96888 16.6835C8.8522 16.4351 8.54666 16.2572 8.38004 15.9938L8.36234 16.027C8.31694 15.9634 8.2216 15.9167 8.22569 15.8359C8.23023 15.756 8.07496 15.7918 8.05589 15.7777C7.96782 15.7646 8.02275 15.6434 8.03546 15.6688C7.97871 15.6257 7.83979 15.652 7.82118 15.5412C7.89109 15.4436 7.56648 15.4005 7.66772 15.3179C7.6541 15.1676 7.45798 15.168 7.44209 15.0087C7.44209 15.0087 7.45116 15.005 7.4607 15.0032L6.97855 15.0159L6.67983 15.3392L6.5459 15.7469L7.01941 16.2349C7.09705 16.4047 7.17468 16.5759 7.26049 16.7461C7.56285 17.0789 7.88337 17.4058 8.23658 17.7113L8.37732 17.7054C8.46994 18.0182 8.869 18.0931 9.05014 18.3614L9.10281 18.2956C9.17545 18.3401 9.14186 18.3801 9.15093 18.4046C9.49416 18.618 9.88005 18.7818 10.2673 18.9076C10.6555 19.0347 11.0459 19.1142 11.4155 19.2032C11.4836 19.269 11.7069 19.2445 11.7632 19.3035C12.0111 19.2059 12.2599 19.1891 12.4996 19.1677L12.4919 19.1782L12.6009 19.145C12.6068 19.1514 12.609 19.1609 12.6063 19.1682C12.7203 19.0779 12.9255 19.1092 13.0848 19.1019L13.0785 19.1128C13.5207 19.0102 13.9138 18.8232 14.2829 18.6189C14.6534 18.4128 15.003 18.1912 15.3861 17.9837C15.7938 17.8557 16.024 17.4117 16.4208 17.187C16.5466 17.1938 17.1227 16.4982 17.1345 16.4111Z" fill="#1E2126" fill-opacity="0.2"/>
<path fill-rule="evenodd" clip-rule="evenodd" d="M15.9881 16.0509C15.992 16.0482 15.9492 16.0312 15.9492 16.0312L15.9881 16.0509Z" fill="#121212"/>
<path fill-rule="evenodd" clip-rule="evenodd" d="M15.9881 16.0509C15.992 16.0482 15.9492 16.0312 15.9492 16.0312L15.9881 16.0509Z" fill="#1E2126" fill-opacity="0.2"/>
<path fill-rule="evenodd" clip-rule="evenodd" d="M16.6935 15.2148C16.6593 15.241 16.6635 15.2472 16.6766 15.2503C16.6878 15.2399 16.6947 15.2283 16.6935 15.2148Z" fill="#121212"/>
<path fill-rule="evenodd" clip-rule="evenodd" d="M16.6935 15.2148C16.6593 15.241 16.6635 15.2472 16.6766 15.2503C16.6878 15.2399 16.6947 15.2283 16.6935 15.2148Z" fill="#1E2126" fill-opacity="0.2"/>
<path fill-rule="evenodd" clip-rule="evenodd" d="M18.0694 14.9894C18.0867 14.9716 18.0652 14.967 18.0391 14.9648C18.026 14.9873 18.0176 15.0021 18.0176 15.0021C18.0323 14.9957 18.0542 14.9957 18.0694 14.9894Z" fill="#121212"/>
<path fill-rule="evenodd" clip-rule="evenodd" d="M18.0694 14.9894C18.0867 14.9716 18.0652 14.967 18.0391 14.9648C18.026 14.9873 18.0176 15.0021 18.0176 15.0021C18.0323 14.9957 18.0542 14.9957 18.0694 14.9894Z" fill="#1E2126" fill-opacity="0.2"/>
<path fill-rule="evenodd" clip-rule="evenodd" d="M17.6226 14.7707L17.6101 14.7529C17.6072 14.7651 17.6134 14.7694 17.6226 14.7707Z" fill="#121212"/>
<path fill-rule="evenodd" clip-rule="evenodd" d="M17.6226 14.7707L17.6101 14.7529C17.6072 14.7651 17.6134 14.7694 17.6226 14.7707Z" fill="#1E2126" fill-opacity="0.2"/>
<path fill-rule="evenodd" clip-rule="evenodd" d="M14.4412 15.4242L14.3744 15.3333C14.5664 15.2772 14.6633 15.3663 14.8252 15.2791L14.8173 15.3002C14.843 15.3206 14.843 15.1069 15.128 15.3496L15.1286 15.359C15.1378 15.3568 15.1366 15.3379 15.1567 15.3619L15.1068 15.3068C15.1328 15.2812 15.1543 15.2344 15.191 15.2256C15.1992 15.2356 15.2034 15.2548 15.2052 15.27L15.295 15.2482L15.3266 15.3077C15.3523 15.2727 15.3313 15.1443 15.4102 15.2115C15.3765 15.1236 15.4436 15.1553 15.4314 15.1103C15.4359 15.1212 15.4453 15.1372 15.4533 15.1521C15.4967 15.1388 15.5783 15.1083 15.596 15.061C15.596 15.061 15.4111 14.8834 15.3582 14.7906C15.422 14.8109 15.3741 14.7785 15.3597 14.7492L15.357 14.7718C15.3186 14.7523 15.3148 14.6957 15.2953 14.6812C15.2956 14.6858 15.2964 14.6913 15.2973 14.6968C15.3015 14.699 15.3009 14.706 15.2994 14.7118C15.3006 14.7238 15.2994 14.7334 15.2891 14.7307C15.2758 14.7339 15.2483 14.7268 15.2362 14.7235L15.2329 14.6763C15.2111 14.768 15.0385 14.5509 15.0013 14.5503C14.9602 14.4931 14.9189 14.5705 14.8704 14.5436C14.7954 14.5332 14.8288 14.4771 14.7892 14.4387C14.7407 14.4121 14.8019 14.4932 14.7836 14.4976L14.7236 14.4355C14.7558 14.4277 14.7363 14.4003 14.7292 14.3824C14.6805 14.3775 14.5989 14.2957 14.5904 14.391C14.5224 14.35 14.5201 14.3122 14.4917 14.3094C14.5023 14.326 14.5218 14.3404 14.523 14.3594C14.4944 14.3195 14.5115 14.3705 14.5227 14.3791C14.4855 14.4226 14.3056 14.2204 14.3041 14.3245L14.3029 14.3056C14.2985 14.3833 14.3183 14.4572 14.2932 14.5016L14.2725 14.4684L14.2468 14.5033C14.2267 14.4795 14.2344 14.4583 14.2338 14.4489C14.1907 14.4874 14.1248 14.449 14.0692 14.4422L14.141 14.6487C14.0914 14.6031 14.0016 14.51 13.9966 14.5782L13.9644 14.5094C13.8628 14.3805 13.9032 14.5721 13.8636 14.5339L13.8119 14.4599L13.8583 14.4583C13.8096 14.4223 13.7892 14.3983 13.749 14.3506C13.7517 14.3557 13.7534 14.3593 13.754 14.3638C13.7446 14.4048 13.7221 14.4327 13.689 14.4323C13.6421 14.4245 13.6093 14.4835 13.5298 14.4069L13.5165 14.4867L13.4577 14.4435L13.4539 14.3808C13.5085 14.3811 13.6096 14.3506 13.6796 14.3429L13.679 14.3142C13.6373 14.317 13.5918 14.3477 13.5641 14.3433C13.5499 14.3317 13.5112 14.2687 13.5334 14.2249L13.5118 14.2878C13.3735 14.3038 13.3726 14.3069 13.2232 14.2453L13.2379 14.2759C13.2105 14.2962 13.183 14.3161 13.1715 14.2656C13.084 14.2609 12.9913 14.2273 12.9298 14.1516L12.9221 14.2262C12.9035 14.2233 12.8686 14.1135 12.8666 14.2174L12.8294 14.2525C12.8039 14.2485 12.7912 14.2917 12.7599 14.2511C12.7579 14.2484 12.7558 14.2458 12.7537 14.2426C12.6955 14.2197 12.7593 14.3148 12.6917 14.2765C12.6672 14.2254 12.6746 14.3717 12.6418 14.357L12.6031 14.2532C12.5416 14.1961 12.5387 14.303 12.4556 14.3087C12.4131 14.2735 12.388 14.1844 12.4093 14.1025C12.3791 14.2019 12.3969 14.1669 12.3517 14.2165C12.3416 14.1771 12.346 14.1683 12.3546 14.1318C12.3085 14.0878 12.3304 14.1695 12.2979 14.1692C12.2935 14.2451 12.2902 14.3654 12.2802 14.3709L12.2941 14.3936C12.2624 14.436 12.2264 14.4571 12.1842 14.422L12.183 14.3841L12.1419 14.406L12.1363 14.3578L12.0766 14.3767L12.0858 14.3892C12.0719 14.3965 12.0264 14.4161 11.9983 14.3926L11.9974 14.3657C11.9168 14.2867 11.8618 14.4005 11.7744 14.4151L11.7824 14.3595C11.749 14.3069 11.7797 14.4444 11.7422 14.4195L11.736 14.3522C11.7103 14.4428 11.694 14.336 11.6701 14.304L11.6861 14.3916L11.6438 14.3756C11.5971 14.3492 11.6093 14.2659 11.6128 14.2192L11.5865 14.2908L11.5756 14.2132C11.559 14.3053 11.5522 14.2001 11.5162 14.2513C11.5112 14.222 11.5197 14.2045 11.5059 14.1928L11.4482 14.3068L11.484 14.2556L11.4867 14.3698C11.4515 14.4588 11.4308 14.3609 11.4036 14.3945L11.4217 14.3594C11.3759 14.3901 11.3703 14.3418 11.3419 14.3183C11.3516 14.339 11.3664 14.3696 11.3481 14.3857C11.3345 14.3929 11.3378 14.3462 11.3239 14.3345C11.3256 14.4105 11.294 14.4529 11.261 14.4191C11.2607 14.4083 11.2607 14.3979 11.2621 14.3908C11.255 14.4036 11.2524 14.4234 11.2376 14.4061L11.24 14.3212L11.219 14.4032C11.1998 14.3813 11.1782 14.4441 11.1768 14.387L11.1859 14.3695L11.0515 14.3577L11.0453 14.2904C11.0382 14.3841 10.9705 14.2598 10.9824 14.3754C10.9531 14.3139 10.8864 14.4264 10.8929 14.2948C10.8048 14.2904 10.7655 14.4191 10.6553 14.3624C10.6104 14.2539 10.5088 14.2965 10.44 14.2892C10.3097 14.3442 10.2264 14.3915 10.0923 14.4358C10.0004 14.2863 9.89137 14.5022 9.79742 14.4205L9.77733 14.4835C9.71234 14.3895 9.6308 14.515 9.54217 14.4248C9.52386 14.453 9.51382 14.4622 9.50939 14.4647C9.51323 14.4674 9.51973 14.4787 9.52386 14.5176C9.49875 14.4917 9.45355 14.5291 9.45178 14.4509L9.45739 14.4425C9.45562 14.3643 9.38826 14.4836 9.35783 14.4177L9.37763 14.5003L9.33213 14.4891L9.34306 14.4723C9.16167 14.6701 9.05739 14.4108 8.88693 14.5918C8.90524 14.4992 8.85414 14.642 8.84557 14.5426C8.79151 14.4202 8.76256 14.5751 8.7271 14.6109C8.7274 14.6158 8.7274 14.6215 8.72563 14.6293L8.65945 14.6217C8.69047 14.4932 8.61897 14.7291 8.64793 14.6197C8.47097 14.5365 8.25383 14.6469 8.05324 14.6162L8.06387 14.648C8.01336 14.6451 7.95339 14.6884 7.91203 14.6391C7.87067 14.59 7.83404 14.7267 7.81956 14.7328C7.78145 14.7913 7.73625 14.6829 7.75456 14.6874C7.71084 14.7058 7.67628 14.8235 7.61129 14.7781C7.58322 14.6727 7.4491 14.8938 7.43935 14.7736V14.7838C7.35456 14.7042 7.28898 14.8532 7.19858 14.782C7.19858 14.782 7.19976 14.773 7.20212 14.7648L7.05176 15.141L7.12738 15.5395L7.29902 15.8559L7.70287 15.7589L8.03699 15.8654L8.82755 15.7711L8.87836 15.6768C9.04468 15.8252 9.23257 15.63 9.40805 15.7323L9.40628 15.654C9.45355 15.6464 9.45326 15.6949 9.46596 15.7078C9.90526 15.6621 10.3519 15.5289 10.7546 15.6017C10.796 15.6508 10.9103 15.613 10.944 15.6655C11.0663 15.5618 11.2028 15.554 11.3324 15.5555L11.328 15.5644L11.3877 15.5454C11.3906 15.5517 11.3915 15.5609 11.3901 15.567C11.4542 15.4935 11.5664 15.5549 11.6521 15.5776L11.6477 15.5865C12.1378 15.5691 12.5824 15.3942 13.0746 15.4717C13.3082 15.5845 13.5593 15.3918 13.8249 15.4812C13.8775 15.5557 14.3975 15.4637 14.4412 15.4242Z" fill="#121212"/>
<path fill-rule="evenodd" clip-rule="evenodd" d="M14.4412 15.4242L14.3744 15.3333C14.5664 15.2772 14.6633 15.3663 14.8252 15.2791L14.8173 15.3002C14.843 15.3206 14.843 15.1069 15.128 15.3496L15.1286 15.359C15.1378 15.3568 15.1366 15.3379 15.1567 15.3619L15.1068 15.3068C15.1328 15.2812 15.1543 15.2344 15.191 15.2256C15.1992 15.2356 15.2034 15.2548 15.2052 15.27L15.295 15.2482L15.3266 15.3077C15.3523 15.2727 15.3313 15.1443 15.4102 15.2115C15.3765 15.1236 15.4436 15.1553 15.4314 15.1103C15.4359 15.1212 15.4453 15.1372 15.4533 15.1521C15.4967 15.1388 15.5783 15.1083 15.596 15.061C15.596 15.061 15.4111 14.8834 15.3582 14.7906C15.422 14.8109 15.3741 14.7785 15.3597 14.7492L15.357 14.7718C15.3186 14.7523 15.3148 14.6957 15.2953 14.6812C15.2956 14.6858 15.2964 14.6913 15.2973 14.6968C15.3015 14.699 15.3009 14.706 15.2994 14.7118C15.3006 14.7238 15.2994 14.7334 15.2891 14.7307C15.2758 14.7339 15.2483 14.7268 15.2362 14.7235L15.2329 14.6763C15.2111 14.768 15.0385 14.5509 15.0013 14.5503C14.9602 14.4931 14.9189 14.5705 14.8704 14.5436C14.7954 14.5332 14.8288 14.4771 14.7892 14.4387C14.7407 14.4121 14.8019 14.4932 14.7836 14.4976L14.7236 14.4355C14.7558 14.4277 14.7363 14.4003 14.7292 14.3824C14.6805 14.3775 14.5989 14.2957 14.5904 14.391C14.5224 14.35 14.5201 14.3122 14.4917 14.3094C14.5023 14.326 14.5218 14.3404 14.523 14.3594C14.4944 14.3195 14.5115 14.3705 14.5227 14.3791C14.4855 14.4226 14.3056 14.2204 14.3041 14.3245L14.3029 14.3056C14.2985 14.3833 14.3183 14.4572 14.2932 14.5016L14.2725 14.4684L14.2468 14.5033C14.2267 14.4795 14.2344 14.4583 14.2338 14.4489C14.1907 14.4874 14.1248 14.449 14.0692 14.4422L14.141 14.6487C14.0914 14.6031 14.0016 14.51 13.9966 14.5782L13.9644 14.5094C13.8628 14.3805 13.9032 14.5721 13.8636 14.5339L13.8119 14.4599L13.8583 14.4583C13.8096 14.4223 13.7892 14.3983 13.749 14.3506C13.7517 14.3557 13.7534 14.3593 13.754 14.3638C13.7446 14.4048 13.7221 14.4327 13.689 14.4323C13.6421 14.4245 13.6093 14.4835 13.5298 14.4069L13.5165 14.4867L13.4577 14.4435L13.4539 14.3808C13.5085 14.3811 13.6096 14.3506 13.6796 14.3429L13.679 14.3142C13.6373 14.317 13.5918 14.3477 13.5641 14.3433C13.5499 14.3317 13.5112 14.2687 13.5334 14.2249L13.5118 14.2878C13.3735 14.3038 13.3726 14.3069 13.2232 14.2453L13.2379 14.2759C13.2105 14.2962 13.183 14.3161 13.1715 14.2656C13.084 14.2609 12.9913 14.2273 12.9298 14.1516L12.9221 14.2262C12.9035 14.2233 12.8686 14.1135 12.8666 14.2174L12.8294 14.2525C12.8039 14.2485 12.7912 14.2917 12.7599 14.2511C12.7579 14.2484 12.7558 14.2458 12.7537 14.2426C12.6955 14.2197 12.7593 14.3148 12.6917 14.2765C12.6672 14.2254 12.6746 14.3717 12.6418 14.357L12.6031 14.2532C12.5416 14.1961 12.5387 14.303 12.4556 14.3087C12.4131 14.2735 12.388 14.1844 12.4093 14.1025C12.3791 14.2019 12.3969 14.1669 12.3517 14.2165C12.3416 14.1771 12.346 14.1683 12.3546 14.1318C12.3085 14.0878 12.3304 14.1695 12.2979 14.1692C12.2935 14.2451 12.2902 14.3654 12.2802 14.3709L12.2941 14.3936C12.2624 14.436 12.2264 14.4571 12.1842 14.422L12.183 14.3841L12.1419 14.406L12.1363 14.3578L12.0766 14.3767L12.0858 14.3892C12.0719 14.3965 12.0264 14.4161 11.9983 14.3926L11.9974 14.3657C11.9168 14.2867 11.8618 14.4005 11.7744 14.4151L11.7824 14.3595C11.749 14.3069 11.7797 14.4444 11.7422 14.4195L11.736 14.3522C11.7103 14.4428 11.694 14.336 11.6701 14.304L11.6861 14.3916L11.6438 14.3756C11.5971 14.3492 11.6093 14.2659 11.6128 14.2192L11.5865 14.2908L11.5756 14.2132C11.559 14.3053 11.5522 14.2001 11.5162 14.2513C11.5112 14.222 11.5197 14.2045 11.5059 14.1928L11.4482 14.3068L11.484 14.2556L11.4867 14.3698C11.4515 14.4588 11.4308 14.3609 11.4036 14.3945L11.4217 14.3594C11.3759 14.3901 11.3703 14.3418 11.3419 14.3183C11.3516 14.339 11.3664 14.3696 11.3481 14.3857C11.3345 14.3929 11.3378 14.3462 11.3239 14.3345C11.3256 14.4105 11.294 14.4529 11.261 14.4191C11.2607 14.4083 11.2607 14.3979 11.2621 14.3908C11.255 14.4036 11.2524 14.4234 11.2376 14.4061L11.24 14.3212L11.219 14.4032C11.1998 14.3813 11.1782 14.4441 11.1768 14.387L11.1859 14.3695L11.0515 14.3577L11.0453 14.2904C11.0382 14.3841 10.9705 14.2598 10.9824 14.3754C10.9531 14.3139 10.8864 14.4264 10.8929 14.2948C10.8048 14.2904 10.7655 14.4191 10.6553 14.3624C10.6104 14.2539 10.5088 14.2965 10.44 14.2892C10.3097 14.3442 10.2264 14.3915 10.0923 14.4358C10.0004 14.2863 9.89137 14.5022 9.79742 14.4205L9.77733 14.4835C9.71234 14.3895 9.6308 14.515 9.54217 14.4248C9.52386 14.453 9.51382 14.4622 9.50939 14.4647C9.51323 14.4674 9.51973 14.4787 9.52386 14.5176C9.49875 14.4917 9.45355 14.5291 9.45178 14.4509L9.45739 14.4425C9.45562 14.3643 9.38826 14.4836 9.35783 14.4177L9.37763 14.5003L9.33213 14.4891L9.34306 14.4723C9.16167 14.6701 9.05739 14.4108 8.88693 14.5918C8.90524 14.4992 8.85414 14.642 8.84557 14.5426C8.79151 14.4202 8.76256 14.5751 8.7271 14.6109C8.7274 14.6158 8.7274 14.6215 8.72563 14.6293L8.65945 14.6217C8.69047 14.4932 8.61897 14.7291 8.64793 14.6197C8.47097 14.5365 8.25383 14.6469 8.05324 14.6162L8.06387 14.648C8.01336 14.6451 7.95339 14.6884 7.91203 14.6391C7.87067 14.59 7.83404 14.7267 7.81956 14.7328C7.78145 14.7913 7.73625 14.6829 7.75456 14.6874C7.71084 14.7058 7.67628 14.8235 7.61129 14.7781C7.58322 14.6727 7.4491 14.8938 7.43935 14.7736V14.7838C7.35456 14.7042 7.28898 14.8532 7.19858 14.782C7.19858 14.782 7.19976 14.773 7.20212 14.7648L7.05176 15.141L7.12738 15.5395L7.29902 15.8559L7.70287 15.7589L8.03699 15.8654L8.82755 15.7711L8.87836 15.6768C9.04468 15.8252 9.23257 15.63 9.40805 15.7323L9.40628 15.654C9.45355 15.6464 9.45326 15.6949 9.46596 15.7078C9.90526 15.6621 10.3519 15.5289 10.7546 15.6017C10.796 15.6508 10.9103 15.613 10.944 15.6655C11.0663 15.5618 11.2028 15.554 11.3324 15.5555L11.328 15.5644L11.3877 15.5454C11.3906 15.5517 11.3915 15.5609 11.3901 15.567C11.4542 15.4935 11.5664 15.5549 11.6521 15.5776L11.6477 15.5865C12.1378 15.5691 12.5824 15.3942 13.0746 15.4717C13.3082 15.5845 13.5593 15.3918 13.8249 15.4812C13.8775 15.5557 14.3975 15.4637 14.4412 15.4242Z" fill="#1E2126" fill-opacity="0.2"/>
</svg>
