<svg width="25" height="24" viewBox="0 0 25 24" fill="none" xmlns="http://www.w3.org/2000/svg">
<ellipse cx="13.2539" cy="11.25" rx="9.6875" ry="9.375" fill="#FFF3C7"/>
<path fill-rule="evenodd" clip-rule="evenodd" d="M3.39064 17.508C3.38356 17.4914 3.375 17.4865 3.39064 17.508V17.508Z" fill="#1E2126"/>
<path fill-rule="evenodd" clip-rule="evenodd" d="M21.0869 18.606C21.0918 18.6012 21.0942 18.5988 21.0995 18.594C21.0963 18.5709 21.0938 18.5504 21.0938 18.5332L21.0869 18.606Z" fill="#1E2126"/>
<path fill-rule="evenodd" clip-rule="evenodd" d="M14.4131 21.9639C14.3893 21.967 14.3767 21.9728 14.3682 21.9802C14.3812 21.9741 14.3945 21.9687 14.4131 21.9639Z" fill="#1E2126"/>
<path fill-rule="evenodd" clip-rule="evenodd" d="M6.74407 2.95752L6.72754 2.97833C6.73514 2.97101 6.73977 2.9642 6.74407 2.95752Z" fill="#1E2126"/>
<path fill-rule="evenodd" clip-rule="evenodd" d="M5.32422 3.91699L5.33993 3.96023C5.33918 3.93761 5.33282 3.92519 5.32422 3.91699Z" fill="#1E2126"/>
<path fill-rule="evenodd" clip-rule="evenodd" d="M21.0957 18.5259L21.0983 18.5034C21.0964 18.5098 21.0957 18.5174 21.0957 18.5259Z" fill="#1E2126"/>
<path fill-rule="evenodd" clip-rule="evenodd" d="M22.2139 4.1447C22.2844 4.30414 22.3483 4.46476 22.4044 4.62792C21.9215 3.98531 21.5524 3.52183 21.1681 3.11216C20.7837 2.70394 20.395 2.33021 19.8123 1.95753L19.8898 1.98205C19.8162 1.9127 19.723 1.90478 19.4367 1.74044C19.2918 1.66015 19.1105 1.52483 18.8404 1.34316C18.7065 1.25052 18.558 1.13478 18.3759 1.01522C18.1969 0.890586 17.9946 0.745552 17.7534 0.594519L17.7587 0.583006C17.6864 0.552668 17.6768 0.576089 17.5477 0.480873L17.8703 0.71193C17.6448 0.645913 17.4404 0.611724 17.1488 0.515238C17.0928 0.478903 17.081 0.446551 17.0819 0.425276C16.8459 0.335707 16.599 0.276037 16.3565 0.205512C16.2908 0.15473 16.2225 0.109289 16.1529 0.0649863C16.0338 0.0585948 15.9896 0.10373 15.9034 0.120496C15.8162 0.139802 15.6923 0.117694 15.3947 0.0215148C15.6017 0.179376 15.0812 0.0395509 15.1464 0.11301C15.1184 0.0936161 15.0528 0.0581132 14.9993 0.0304458C14.8159 0.0200268 14.5524 -0.003744 14.3129 0.000502416C14.0726 0.00938925 13.8585 0.0260681 13.774 0.0540419C13.774 0.0540419 13.862 0.0730856 14.0003 0.103161C14.1378 0.137657 14.3252 0.166725 14.5178 0.231823C14.907 0.341091 15.318 0.515369 15.484 0.610409C15.009 0.494136 15.3553 0.602706 15.4411 0.658653L15.4791 0.635013C15.7576 0.726946 15.7383 0.804388 15.8731 0.857534C15.8745 0.851624 15.8723 0.843438 15.8701 0.835207L15.8495 0.840635C15.8399 0.824482 15.8499 0.817434 15.8666 0.813757C15.867 0.797253 15.8832 0.788103 15.9585 0.81113L15.9419 0.815201C16.0636 0.828334 16.2584 0.907265 16.3433 0.938216L16.3263 0.999067C16.3858 0.986897 16.4987 1.0161 16.6362 1.07458C16.771 1.13863 16.9308 1.22846 17.0897 1.32188C17.4019 1.523 17.7009 1.74906 17.8204 1.82143C18.0336 2.01672 18.3816 2.10992 18.657 2.33389C19.1061 2.66699 18.8387 2.56262 19.0304 2.77149C19.2817 3.01344 19.0186 2.66983 19.1315 2.75078L19.4078 3.07307C19.2125 2.9318 19.2922 3.04194 19.3119 3.08712C19.4472 3.20252 19.5982 3.37859 19.7392 3.51619C19.8727 3.6628 19.9944 3.77557 20.078 3.76821C20.3757 4.1489 20.3297 4.19058 20.4676 4.34043C20.4379 4.27559 20.3599 4.16269 20.3779 4.14444C20.4681 4.32103 20.451 4.20178 20.4059 4.13621C20.5302 4.2207 20.7364 4.54802 20.915 4.84886C21.0008 5.00252 21.0853 5.14602 21.1545 5.25196C21.2206 5.36097 21.2762 5.42856 21.3134 5.42186L21.2924 5.43605C21.4159 5.43473 21.4369 5.28707 21.6002 5.42716L21.6391 5.56668L21.7845 5.72117C21.8287 5.85819 21.7691 5.81345 21.7586 5.82011C21.869 5.95074 21.9692 6.12743 22.0585 6.31983C22.1544 6.50864 22.2336 6.7154 22.3155 6.90281C22.3361 6.73326 22.3602 6.55824 22.3742 6.38466C22.4271 6.55618 22.4867 6.80134 22.5519 7.00236C22.6079 7.20803 22.667 7.37215 22.7226 7.38699C22.7209 7.46369 22.7209 7.53907 22.7152 7.61639C22.7936 8.32987 22.959 8.04567 22.998 8.32886C23.0011 8.45113 23.0085 8.57122 23.0076 8.69296C22.9765 8.58155 22.9376 8.47263 22.9026 8.36231C22.9656 8.70645 22.9638 8.85152 22.9765 9.13236C22.9787 9.11524 22.98 9.10224 22.9853 9.09812L23.0011 9.14369C23.0645 9.16944 23.1394 9.33675 23.1946 9.57482C23.258 9.91418 23.392 10.168 23.371 10.7327L23.4971 10.8537L23.4874 11.276L23.4043 11.2857C23.3688 10.8802 23.2081 10.1328 23.0842 9.62941L23.0448 9.62919C23.1149 9.92758 23.2208 10.2639 23.2445 10.4668C23.244 10.5683 23.1989 10.8308 23.1136 10.6591L23.2252 10.833C23.2602 11.0869 23.2865 11.2777 23.3084 11.4376C23.3233 11.5986 23.3338 11.7288 23.3408 11.8605C23.35 11.9919 23.3469 12.1259 23.3438 12.2934C23.343 12.4608 23.3325 12.6624 23.3128 12.9297L23.353 12.8362C23.385 13.0476 23.4073 13.2604 23.3373 13.3189C23.3255 13.9636 23.2186 14.617 23.0567 14.9923L23.142 15.0926C23.1175 15.2221 22.9363 15.3819 23.0602 15.4689L23.0444 15.7446C22.9958 15.9108 23.0234 16.0302 22.9104 16.2001C22.9026 16.211 22.8951 16.2215 22.8872 16.2323C22.7288 16.5814 22.9866 16.2622 22.7756 16.6532C22.6583 16.7549 22.8299 16.8465 22.7152 17.0331C22.639 17.0753 22.5681 17.1182 22.4906 17.1548C22.2266 17.436 22.3229 17.5722 21.96 18.0163C21.7407 18.1927 21.5638 18.1997 21.605 17.9978C21.5341 18.2642 21.594 18.1373 21.4032 18.4133C21.3296 18.4101 21.3476 18.3771 21.3668 18.2928C21.1138 18.448 21.2692 18.4514 21.1015 18.5985C21.1195 18.7171 21.1628 18.888 21.1094 18.9421L21.1983 18.9081C21.0464 19.1089 20.8441 19.2982 20.5775 19.4278L20.5569 19.3804L20.3179 19.58L20.2654 19.5378C20.1467 19.6262 20.0272 19.7141 19.9047 19.7997L19.9655 19.7812C19.8841 19.848 19.5978 20.0435 19.4113 20.1165L19.399 20.0819C18.8662 20.2688 18.5327 20.6079 17.9465 20.9018L17.9924 20.7978C17.7626 20.8282 17.9863 20.9292 17.7285 21.0019L17.6794 20.9249C17.5139 21.1254 17.3936 21.0211 17.2311 21.0427L17.345 21.1221C17.25 21.1559 17.1537 21.1855 17.056 21.212C16.7321 21.2929 16.8139 21.1445 16.8358 21.07L16.6598 21.2362L16.5832 21.1539C16.472 21.327 16.4248 21.1924 16.1748 21.3421C16.1402 21.312 16.2015 21.2683 16.1043 21.2822C15.9708 21.3748 15.8381 21.4776 15.6994 21.5636C15.7852 21.5199 15.8688 21.4677 15.9519 21.4179L15.9642 21.5739C15.7134 21.7775 15.5706 21.6681 15.378 21.7683L15.5076 21.686C15.1819 21.8121 15.1486 21.7596 14.9503 21.7662C15.016 21.7809 15.1167 21.8019 14.984 21.8513C14.8851 21.8814 14.917 21.8111 14.8185 21.8154C14.8185 21.9174 14.5856 22.0296 14.3541 22.0234C14.3541 22.0088 14.3562 21.9943 14.3689 21.9829C14.3155 22.0084 14.2906 22.0389 14.1873 22.0312L14.2258 21.9107L14.0546 22.0477C13.9233 22.0381 13.7504 22.1498 13.7561 22.0718L13.8248 22.0374C13.665 22.0637 13.5034 22.0669 13.3432 22.0831C13.1826 22.0939 13.0223 22.1154 12.8617 22.1146L12.842 22.0254C12.7544 22.1539 12.3197 22.0059 12.3565 22.159C12.1744 22.0806 11.642 22.2161 11.7519 22.044C11.4398 22.0357 11.1994 22.0433 10.9385 22.0605C10.8085 22.0635 10.6754 22.0544 10.5274 22.0398C10.3799 22.022 10.2157 22.0035 10.0349 21.9398C9.79722 21.7475 9.07182 21.6388 8.62966 21.4517C7.7309 21.2023 7.15085 20.9741 6.31294 20.4748C6.11857 20.239 5.83532 20.0167 5.51968 19.8175C5.37084 19.707 5.22156 19.5929 5.08234 19.4777C5.01361 19.4193 4.94576 19.3622 4.88666 19.3C4.82975 19.2352 4.77853 19.1693 4.73431 19.1022L4.55482 19.0342C4.50535 18.9351 4.43224 18.8407 4.34863 18.7431C4.2707 18.6404 4.17921 18.5365 4.08465 18.4286C3.88765 18.2187 3.70247 17.9693 3.58427 17.6925C3.47088 17.5956 3.41572 17.5407 3.39515 17.5142C3.40609 17.539 3.41791 17.5801 3.38201 17.6199C3.31547 17.4607 3.10402 17.1883 3.2034 17.1563L3.23492 17.1872C3.33736 17.155 2.92103 16.7791 2.92541 16.5625L2.87419 16.7066L2.74417 16.4135L2.80239 16.4798C2.37162 15.919 2.21752 15.4218 2.09188 14.9461C1.96843 14.4652 1.88262 13.9985 1.67074 13.3716C1.81958 13.5251 1.56217 13.1261 1.70313 13.0915C1.84804 12.7503 1.59806 12.496 1.56435 12.2223C1.55779 12.2225 1.55035 12.2194 1.53984 12.2041L1.55341 11.7309C1.63834 11.874 1.60288 11.7883 1.56435 11.6994C1.52802 11.6101 1.49825 11.5171 1.55779 11.6499C1.66592 11.0386 1.7237 10.3341 1.91326 9.62105L1.97499 9.35129L2.05685 9.08499C2.11377 8.90795 2.16105 8.72702 2.22671 8.55296C2.3668 8.20808 2.49682 7.86115 2.67937 7.55111L2.61284 7.58863C2.70039 7.42876 2.76956 7.23425 2.86718 7.06658C2.96218 6.89782 3.05849 6.74167 3.15743 6.64041C3.35137 6.43833 3.40259 6.07844 3.45512 5.98042C3.56063 5.67739 3.86882 5.562 3.77601 5.6566C3.86926 5.52343 3.93361 5.3727 4.01767 5.21462C4.10172 5.05724 4.22298 4.90752 4.39985 4.76095C4.45194 4.75684 4.52418 4.69222 4.60473 4.59867C4.68966 4.50901 4.78991 4.39681 4.8849 4.28444C4.98078 4.1728 5.07403 4.06384 5.15064 3.98986C5.23207 3.92143 5.29598 3.88759 5.324 3.91614L5.31918 3.9027C5.58579 3.76961 5.77972 3.56285 6.01175 3.39286C6.23676 3.21438 6.46528 3.02229 6.76735 2.92134C6.76735 2.92134 6.76298 2.93745 6.75028 2.95719C7.02827 2.59449 7.35135 2.27558 7.69063 1.93862C7.50764 1.82659 7.31852 1.71711 7.12327 1.61059C6.91139 1.63393 6.6868 1.64203 6.4758 1.68379L5.82569 1.8033C4.87002 2.42227 4.01723 3.17888 3.28701 4.02987C2.64567 4.65471 2.05598 5.34613 1.56479 6.1097C0.488732 8.0296 -0.097451 10.245 0.013307 12.4716C0.0597116 12.6283 0.118811 12.7826 0.171344 12.9355C0.159962 13.0989 0.153394 13.269 0.158647 13.4425C0.173532 13.6145 0.194985 13.7909 0.221252 13.9698C0.261528 14.3309 0.376221 14.6886 0.473846 15.0523C0.518061 15.2357 0.596425 15.4087 0.655963 15.5873C0.722068 15.7634 0.775914 15.9437 0.847272 16.1152C0.91863 16.2864 0.987363 16.4571 1.05128 16.6271L1.14365 16.8813L1.24303 17.127L1.3494 17.1059C1.53415 17.4494 1.46542 17.4565 1.49387 17.5515C1.94654 18.3438 2.47975 19.0964 3.0957 19.7726C3.71822 20.4425 4.40247 21.0489 5.13663 21.5707C5.88041 22.0792 6.6601 22.5142 7.46386 22.855C8.27594 23.1814 9.0889 23.4313 9.89266 23.6016C10.0428 23.6621 10.3598 23.7077 10.6684 23.7566C10.9775 23.7932 11.2791 23.8162 11.4017 23.8624C12.4734 23.7861 13.5809 23.6997 14.6172 23.5187L14.5799 23.5366C14.7424 23.5067 14.9004 23.458 15.0598 23.4181C15.0821 23.422 15.0873 23.4335 15.0738 23.4448C15.6017 23.2516 16.4589 23.0888 17.1173 22.9L17.084 22.9248C18.0231 22.5975 18.9074 22.1801 19.7431 21.7027C20.5749 21.2195 21.3716 20.703 22.1189 20.054C22.8623 19.4132 23.5518 18.6323 24.0277 17.6885C24.5005 16.7491 24.7338 15.7396 24.8673 14.747C25.2005 12.9054 24.8511 10.7857 24.4282 8.71244C24.4269 8.5133 24.1218 7.36874 23.5903 6.30569C23.3386 5.76937 23.0229 5.26356 22.7668 4.87101C22.6294 4.6808 22.5103 4.51567 22.4179 4.38801C22.3225 4.26316 22.2468 4.1802 22.2139 4.1447Z" fill="#1E2126"/>
<path fill-rule="evenodd" clip-rule="evenodd" d="M22.3253 6.92621L22.3152 6.90283L22.3008 7.01507L22.3253 6.92621Z" fill="#1E2126"/>
<path fill-rule="evenodd" clip-rule="evenodd" d="M19.1377 2.97217C19.3116 3.12228 19.3265 3.12027 19.3121 3.087C19.2477 3.0346 19.1876 2.99296 19.1377 2.97217Z" fill="#1E2126"/>
<path fill-rule="evenodd" clip-rule="evenodd" d="M9.81443 8.28943C9.81443 9.04449 9.20242 9.65658 8.44725 9.65658C7.69209 9.65658 7.08008 9.04449 7.08008 8.28943C7.08008 7.53441 7.69209 6.92236 8.44725 6.92236C9.20242 6.92236 9.81443 7.53441 9.81443 8.28943Z" fill="#1E2126"/>
<path fill-rule="evenodd" clip-rule="evenodd" d="M18.4839 8.28943C18.4839 9.04449 17.8719 9.65658 17.1172 9.65658C16.362 9.65658 15.75 9.04449 15.75 8.28943C15.75 7.53441 16.362 6.92236 17.1172 6.92236C17.8719 6.92236 18.4839 7.53441 18.4839 8.28943Z" fill="#1E2126"/>
<path fill-rule="evenodd" clip-rule="evenodd" d="M14.2363 14.0448C14.2412 14.0224 14.2428 14.0036 14.244 13.9893L14.2363 14.0448Z" fill="#1E2126"/>
<path fill-rule="evenodd" clip-rule="evenodd" d="M12.7132 14.3648C12.7099 14.3642 12.7081 14.3674 12.707 14.3719C12.7088 14.3689 12.7106 14.3662 12.7132 14.3648Z" fill="#1E2126"/>
<path fill-rule="evenodd" clip-rule="evenodd" d="M8.89619 14.6842C8.89619 14.6796 8.89438 14.6774 8.89258 14.6733L8.89619 14.6842Z" fill="#1E2126"/>
<path fill-rule="evenodd" clip-rule="evenodd" d="M8.90715 14.6484C8.92178 14.6634 8.90511 14.6792 8.89941 14.6841C8.91649 14.7124 8.93194 14.7137 8.94617 14.6993C8.94373 14.6659 8.91528 14.6728 8.90715 14.6484Z" fill="#1E2126"/>
<path fill-rule="evenodd" clip-rule="evenodd" d="M6.69043 14.9263L6.69436 14.916C6.69255 14.9188 6.69164 14.9224 6.69043 14.9263Z" fill="#1E2126"/>
<path fill-rule="evenodd" clip-rule="evenodd" d="M12.8924 16.1196C12.8906 16.1217 12.8885 16.1228 12.8867 16.1251C12.8898 16.1255 12.8914 16.123 12.8924 16.1196Z" fill="#1E2126"/>
<path fill-rule="evenodd" clip-rule="evenodd" d="M7.04211 14.9391L7.04255 14.8867C7.04036 14.9086 7.0408 14.925 7.04211 14.9391Z" fill="#1E2126"/>
<path fill-rule="evenodd" clip-rule="evenodd" d="M14.2461 13.9828L14.2485 13.9673C14.2476 13.9708 14.247 13.9763 14.2461 13.9828Z" fill="#1E2126"/>
<path fill-rule="evenodd" clip-rule="evenodd" d="M15.5303 14.1489C15.5314 14.1637 15.5332 14.1754 15.5351 14.1854C15.537 14.1857 15.5303 14.1489 15.5303 14.1489Z" fill="#1E2126"/>
<path fill-rule="evenodd" clip-rule="evenodd" d="M18.6869 14.8488C18.6861 14.8428 18.6854 14.8366 18.6843 14.8301L18.6758 14.865C18.6813 14.8616 18.6847 14.8561 18.6869 14.8488Z" fill="#1E2126"/>
<path fill-rule="evenodd" clip-rule="evenodd" d="M16.3835 14.3372C16.3839 14.3311 16.3855 14.3253 16.3851 14.3187C16.3705 14.3019 16.3351 14.3002 16.29 14.3052L16.2913 14.3702L16.3835 14.3372Z" fill="#1E2126"/>
<path fill-rule="evenodd" clip-rule="evenodd" d="M17.4169 15.9082L17.3179 15.7736C17.6025 15.6904 17.7461 15.8224 17.986 15.6932L17.9742 15.7245C18.0123 15.7547 18.0123 15.4381 18.4347 15.7976L18.4356 15.8116C18.4492 15.8083 18.4474 15.7803 18.4772 15.8159L18.4032 15.7343C18.4417 15.6963 18.4737 15.627 18.5279 15.6139C18.5402 15.6287 18.5463 15.6573 18.549 15.6797L18.682 15.6474L18.7289 15.7355C18.767 15.6837 18.7359 15.4935 18.8528 15.593C18.8029 15.4628 18.9023 15.5098 18.8843 15.4431C18.8909 15.4592 18.9049 15.4829 18.9167 15.5049C18.9811 15.4853 19.1019 15.4401 19.1281 15.37C19.1281 15.37 18.8541 15.1068 18.7757 14.9693C18.8703 14.9994 18.7994 14.9514 18.7779 14.908L18.774 14.9414C18.7171 14.9126 18.7114 14.8287 18.6825 14.8072C18.6829 14.814 18.6842 14.8221 18.6856 14.8304C18.6917 14.8336 18.6908 14.8439 18.6886 14.8525C18.6904 14.8704 18.6886 14.8846 18.6733 14.8806C18.6536 14.8853 18.6129 14.8747 18.5949 14.8699L18.5901 14.7999C18.5577 14.9359 18.3021 14.6142 18.2469 14.6133C18.186 14.5285 18.1248 14.6431 18.053 14.6034C17.9418 14.5879 17.9912 14.5047 17.9326 14.4479C17.8608 14.4084 17.9514 14.5286 17.9243 14.5351L17.8354 14.443C17.8831 14.4315 17.8542 14.3909 17.8437 14.3645C17.7715 14.3571 17.6507 14.236 17.638 14.3771C17.5373 14.3164 17.5338 14.2604 17.4917 14.2562C17.5075 14.2808 17.5364 14.3021 17.5381 14.3304C17.4957 14.2712 17.5211 14.3467 17.5377 14.3595C17.4825 14.424 17.2159 14.1244 17.2138 14.2787L17.212 14.2507C17.2054 14.3658 17.2348 14.4753 17.1976 14.5411L17.1669 14.4918L17.1288 14.5436C17.099 14.5083 17.1104 14.477 17.1096 14.463C17.0456 14.52 16.948 14.4632 16.8657 14.4531L16.9721 14.759C16.8986 14.6915 16.7655 14.5534 16.758 14.6546L16.7103 14.5526C16.5597 14.3616 16.6197 14.6456 16.561 14.5889L16.4844 14.4793L16.5531 14.4769C16.4809 14.4235 16.4507 14.388 16.3912 14.3173C16.3951 14.3248 16.3977 14.3301 16.3986 14.3369C16.3846 14.3977 16.3513 14.439 16.3023 14.4384C16.2327 14.4268 16.1841 14.5143 16.0663 14.4007L16.0466 14.519L15.9595 14.4549L15.9538 14.3621C16.0348 14.3624 16.1845 14.3173 16.2883 14.3058L16.2874 14.2633C16.2257 14.2674 16.1583 14.3131 16.1171 14.3065C16.0961 14.2892 16.0388 14.196 16.0716 14.131L16.0396 14.2242C15.8348 14.2479 15.8334 14.2525 15.6119 14.1612L15.6338 14.2066C15.5931 14.2367 15.5524 14.2661 15.5353 14.1914C15.4057 14.1844 15.2683 14.1345 15.1772 14.0224L15.1658 14.1329C15.1383 14.1286 15.0866 13.966 15.0835 14.12L15.0284 14.172C14.9907 14.166 14.9719 14.23 14.9255 14.1699C14.9224 14.1659 14.9194 14.1619 14.9163 14.1572C14.8301 14.1234 14.9246 14.2643 14.8244 14.2075C14.788 14.1318 14.799 14.3486 14.7504 14.3268L14.693 14.1729C14.602 14.0884 14.5976 14.2467 14.4746 14.2551C14.4115 14.2031 14.3743 14.0711 14.4059 13.9497C14.3612 14.097 14.3875 14.0451 14.3205 14.1186C14.3056 14.0602 14.3122 14.0472 14.3249 13.993C14.2566 13.9278 14.289 14.049 14.2408 14.0486C14.2342 14.1609 14.2294 14.3392 14.2146 14.3474L14.2351 14.381C14.1883 14.4438 14.1349 14.4751 14.0723 14.423L14.0705 14.3669L14.0097 14.3993L14.0013 14.3279L13.9129 14.3559L13.9265 14.3744C13.9059 14.3853 13.8385 14.4144 13.7969 14.3795L13.7956 14.3396C13.6761 14.2227 13.5947 14.3913 13.4651 14.4128L13.4769 14.3304C13.4274 14.2526 13.473 14.4563 13.4174 14.4194L13.4082 14.3197C13.3701 14.4539 13.346 14.2957 13.3105 14.2482L13.3342 14.378L13.2716 14.3543C13.2024 14.3153 13.2204 14.1918 13.2256 14.1226L13.1867 14.2286L13.1705 14.1137C13.1459 14.2502 13.1359 14.0943 13.0825 14.1701C13.075 14.1267 13.0877 14.1007 13.0671 14.0834L12.9818 14.2524L13.0347 14.1765L13.0387 14.3457C12.9866 14.4776 12.9559 14.3326 12.9157 14.3824L12.9424 14.3304C12.8745 14.3758 12.8662 14.3043 12.8242 14.2695C12.8386 14.3001 12.8605 14.3455 12.8334 14.3693C12.8132 14.38 12.818 14.3108 12.7975 14.2934C12.8001 14.4061 12.7533 14.4689 12.7042 14.4188C12.7038 14.4028 12.7038 14.3874 12.706 14.3769C12.6955 14.3959 12.6915 14.4252 12.6696 14.3995L12.6731 14.2738L12.6421 14.3952C12.6136 14.3627 12.5816 14.4558 12.5795 14.3713L12.593 14.3453L12.3938 14.3279L12.3846 14.2281C12.3741 14.3669 12.2739 14.1828 12.2914 14.354C12.2481 14.2628 12.1491 14.4296 12.1587 14.2346C12.0283 14.228 11.9701 14.4188 11.8068 14.3348C11.7402 14.1741 11.5896 14.2372 11.4876 14.2263C11.2946 14.3078 11.1711 14.3779 10.9724 14.4435C10.8362 14.222 10.6747 14.542 10.5355 14.4209L10.5057 14.5143C10.4094 14.3749 10.2886 14.5609 10.1572 14.4273C10.1301 14.4691 10.1152 14.4827 10.1087 14.4864C10.1143 14.4904 10.124 14.5071 10.1301 14.5648C10.0929 14.5264 10.0259 14.5818 10.0233 14.466L10.0316 14.4535C10.029 14.3377 9.92916 14.5144 9.88407 14.4168L9.9134 14.5392L9.84599 14.5225L9.86218 14.4976C9.59338 14.7908 9.43885 14.4065 9.18625 14.6748C9.2134 14.5375 9.13767 14.7491 9.12497 14.6018C9.04486 14.4205 9.00195 14.6499 8.94942 14.703C8.94986 14.7103 8.94986 14.7188 8.94723 14.7304L8.84917 14.719C8.89514 14.5286 8.78919 14.8782 8.83209 14.716C8.56986 14.5928 8.2481 14.7564 7.95085 14.7109L7.96661 14.7581C7.89175 14.7537 7.80288 14.8179 7.74159 14.7449C7.68031 14.672 7.62603 14.8747 7.60458 14.8837C7.5481 14.9703 7.48111 14.8097 7.50826 14.8164C7.44347 14.8436 7.39225 15.0181 7.29594 14.9508C7.25435 14.7946 7.0556 15.1222 7.04115 14.9441V14.9592C6.91551 14.8413 6.81833 15.062 6.68437 14.9565C6.68437 14.9565 6.68612 14.9432 6.68962 14.931L6.4668 15.4885L6.57886 16.079L6.83321 16.548L7.43165 16.4041L7.92677 16.562L9.09826 16.4223L9.17356 16.2825C9.42003 16.5024 9.69845 16.2132 9.95849 16.3647L9.95587 16.2488C10.0259 16.2374 10.0255 16.3094 10.0443 16.3284C10.6953 16.2607 11.3572 16.0633 11.9539 16.1712C12.0152 16.244 12.1846 16.1879 12.2345 16.2658C12.4157 16.1121 12.618 16.1005 12.8102 16.1027L12.8036 16.1159L12.892 16.0878C12.8964 16.0971 12.8977 16.1108 12.8955 16.1199C12.9905 16.011 13.1569 16.1019 13.2838 16.1355L13.2773 16.1487C14.0035 16.1229 14.6624 15.8637 15.3917 15.9787C15.738 16.1457 16.1101 15.8602 16.5037 15.9927C16.5816 16.1031 17.3521 15.9668 17.4169 15.9082Z" fill="#1E2126"/>
<path fill-rule="evenodd" clip-rule="evenodd" d="M16.8599 14.4476C16.8648 14.4484 16.8428 14.3857 16.8428 14.3857L16.8599 14.4476Z" fill="#1E2126"/>
<path fill-rule="evenodd" clip-rule="evenodd" d="M17.8786 14.345C17.8383 14.3347 17.8372 14.3447 17.8439 14.3609C17.8581 14.3624 17.8704 14.3586 17.8786 14.345Z" fill="#1E2126"/>
<path fill-rule="evenodd" clip-rule="evenodd" d="M18.9161 15.5584C18.9389 15.5606 18.9283 15.5342 18.9132 15.5049C18.8905 15.5119 18.875 15.5156 18.875 15.5156C18.888 15.5255 18.9023 15.5485 18.9161 15.5584Z" fill="#1E2126"/>
<path fill-rule="evenodd" clip-rule="evenodd" d="M18.7769 14.902L18.7813 14.8682C18.7698 14.8771 18.7709 14.8893 18.7769 14.902Z" fill="#1E2126"/>
</svg>
